<svg viewBox="0 0 24 28" fill="none" xmlns="http://www.w3.org/2000/svg">
<path fill-rule="evenodd" clip-rule="evenodd" d="M1 10.9427V20.3713C1 23.8428 3.81421 26.657 7.28571 26.657H16.7143C20.1858 26.657 23 23.8428 23 20.3713V10.9427C23 7.47119 20.1858 4.65698 16.7143 4.65698H7.28571C3.81421 4.65698 1 7.47119 1 10.9427Z" stroke="black" stroke-width="1.5" stroke-linecap="round" stroke-linejoin="round"/>
<path d="M15.9642 6.22845C15.9642 6.64266 16.3 6.97845 16.7142 6.97845C17.1284 6.97845 17.4642 6.64266 17.4642 6.22845H15.9642ZM17.4642 1.51416C17.4642 1.09995 17.1284 0.76416 16.7142 0.76416C16.3 0.76416 15.9642 1.09995 15.9642 1.51416H17.4642ZM6.53577 6.22845C6.53577 6.64266 6.87155 6.97845 7.28577 6.97845C7.69998 6.97845 8.03577 6.64266 8.03577 6.22845H6.53577ZM8.03577 1.51416C8.03577 1.09995 7.69998 0.764161 7.28577 0.764161C6.87155 0.764161 6.53577 1.09995 6.53577 1.51416H8.03577ZM6.53564 12.9636C6.53564 13.3778 6.87143 13.7136 7.28564 13.7136C7.69986 13.7136 8.03564 13.3778 8.03564 12.9636H6.53564ZM11.9999 12.9636L12.7486 13.0082C12.7495 12.9933 12.7499 12.9784 12.7499 12.9636H11.9999ZM11.0001 14.9772L11.4881 15.5467H11.4881L11.0001 14.9772ZM8.85707 15.657L8.78652 14.9103C8.40135 14.9467 8.10707 15.2701 8.10707 15.657C8.10707 16.0439 8.40135 16.3673 8.78652 16.4037L8.85707 15.657ZM11.0001 16.3368L11.4881 15.7673L11.0001 16.3368ZM11.9999 18.3504H12.7499C12.7499 18.3356 12.7495 18.3207 12.7486 18.3058L11.9999 18.3504ZM8.03564 18.3504C8.03564 17.9362 7.69986 17.6004 7.28564 17.6004C6.87143 17.6004 6.53564 17.9362 6.53564 18.3504H8.03564ZM14.6547 11.72C14.3402 11.9895 14.3038 12.463 14.5733 12.7775C14.8428 13.092 15.3163 13.1285 15.6308 12.8589L14.6547 11.72ZM16.7142 10.9427H17.4642C17.4642 10.6498 17.2937 10.3838 17.0276 10.2614C16.7616 10.139 16.4486 10.1827 16.2262 10.3732L16.7142 10.9427ZM15.9642 20.3713C15.9642 20.7855 16.3 21.1213 16.7142 21.1213C17.1284 21.1213 17.4642 20.7855 17.4642 20.3713H15.9642ZM17.4642 6.22845V1.51416H15.9642V6.22845H17.4642ZM8.03577 6.22845V1.51416H6.53577V6.22845H8.03577ZM8.03564 12.9636C8.03564 12.5377 8.2101 12.2482 8.47674 12.0451C8.76423 11.8261 9.18495 11.6935 9.64279 11.6935C10.1006 11.6935 10.5213 11.8261 10.8088 12.0451C11.0755 12.2482 11.2499 12.5377 11.2499 12.9636H12.7499C12.7499 12.0428 12.3351 11.3221 11.7178 10.8519C11.1214 10.3976 10.3635 10.1935 9.64279 10.1935C8.92205 10.1935 8.1642 10.3976 7.56777 10.8519C6.95047 11.3221 6.53564 12.0428 6.53564 12.9636H8.03564ZM11.2513 12.919C11.2169 13.4949 10.9501 14.0323 10.512 14.4077L11.4881 15.5467C12.2352 14.9065 12.6901 13.9903 12.7486 13.0082L11.2513 12.919ZM10.512 14.4077C10.0739 14.7832 9.50206 14.9646 8.92763 14.9103L8.78652 16.4037C9.76601 16.4962 10.7411 16.1869 11.4881 15.5467L10.512 14.4077ZM8.92762 16.4037C9.50206 16.3494 10.0739 16.5308 10.512 16.9063L11.4881 15.7673C10.7411 15.1271 9.76601 14.8178 8.78652 14.9103L8.92762 16.4037ZM10.512 16.9063C10.9501 17.2817 11.2169 17.8191 11.2513 18.395L12.7486 18.3058C12.6901 17.3237 12.2352 16.4075 11.4881 15.7673L10.512 16.9063ZM11.2499 18.3504C11.2499 18.7763 11.0755 19.0658 10.8088 19.2689C10.5213 19.4879 10.1006 19.6205 9.64279 19.6205C9.18495 19.6205 8.76423 19.4879 8.47674 19.2689C8.2101 19.0658 8.03564 18.7763 8.03564 18.3504H6.53564C6.53564 19.2712 6.95047 19.9918 7.56777 20.4621C8.1642 20.9164 8.92205 21.1205 9.64279 21.1205C10.3635 21.1205 11.1214 20.9164 11.7178 20.4621C12.3351 19.9918 12.7499 19.2712 12.7499 18.3504H11.2499ZM15.6308 12.8589L17.2023 11.5122L16.2262 10.3732L14.6547 11.72L15.6308 12.8589ZM15.9642 10.9427V20.3713H17.4642V10.9427H15.9642Z" fill="black"/>
</svg>
