<svg width="22" height="22" viewBox="0 0 24 24" fill="none" xmlns="http://www.w3.org/2000/svg">
<path d="M0.614128 6.64259C0.258943 6.85571 0.143769 7.3164 0.35688 7.67159C0.569991 8.02677 1.03069 8.14194 1.38587 7.92883L0.614128 6.64259ZM8.85714 2.57143L9.30714 1.97143C9.06319 1.78847 8.73275 1.77142 8.47127 1.92831L8.85714 2.57143ZM15.1429 7.28571L14.6929 7.88571C14.9665 8.09093 15.3443 8.08503 15.6114 7.87137L15.1429 7.28571ZM23.4685 1.58565C23.792 1.32689 23.8444 0.854925 23.5857 0.531479C23.3269 0.208032 22.8549 0.155591 22.5315 0.414348L23.4685 1.58565ZM20.6785 23C20.6785 23.4142 21.0143 23.75 21.4285 23.75C21.8428 23.75 22.1785 23.4142 22.1785 23H20.6785ZM22.1785 10.4286C22.1785 10.0144 21.8428 9.67857 21.4285 9.67857C21.0143 9.67857 20.6785 10.0144 20.6785 10.4286H22.1785ZM8.10725 23C8.10725 23.4142 8.44303 23.75 8.85725 23.75C9.27146 23.75 9.60725 23.4142 9.60725 23H8.10725ZM9.60725 10.4286C9.60725 10.0144 9.27146 9.67857 8.85725 9.67857C8.44303 9.67857 8.10725 10.0144 8.10725 10.4286H9.60725ZM14.3929 23C14.3929 23.4142 14.7287 23.75 15.1429 23.75C15.5571 23.75 15.8929 23.4142 15.8929 23H14.3929ZM15.8929 15.1429C15.8929 14.7286 15.5571 14.3929 15.1429 14.3929C14.7287 14.3929 14.3929 14.7286 14.3929 15.1429H15.8929ZM1.82136 23C1.82136 23.4142 2.15715 23.75 2.57136 23.75C2.98557 23.75 3.32136 23.4142 3.32136 23H1.82136ZM3.32136 15.1429C3.32136 14.7286 2.98557 14.3929 2.57136 14.3929C2.15715 14.3929 1.82136 14.7286 1.82136 15.1429H3.32136ZM1.38587 7.92883L9.24301 3.21455L8.47127 1.92831L0.614128 6.64259L1.38587 7.92883ZM8.40714 3.17143L14.6929 7.88571L15.5929 6.68571L9.30714 1.97143L8.40714 3.17143ZM15.6114 7.87137L23.4685 1.58565L22.5315 0.414348L14.6743 6.70006L15.6114 7.87137ZM22.1785 23V10.4286H20.6785V23H22.1785ZM9.60725 23V10.4286H8.10725V23H9.60725ZM15.8929 23V15.1429H14.3929V23H15.8929ZM3.32136 23V15.1429H1.82136V23H3.32136Z" fill="black"/>
</svg>
