<svg width="72" height="76" viewBox="0 0 72 76" fill="none" xmlns="http://www.w3.org/2000/svg">
<path d="M59.1684 32.1753C63.9001 41.7241 61.7084 54.9017 48.7339 62.2898C35.7594 69.6779 21.4056 67.9263 16.6739 58.3775C11.9422 48.8287 17.1188 15.0614 30.0933 7.67329C44.0774 9.77644 54.4366 22.6265 59.1684 32.1753Z" fill="#6ABD8C"/>
<path d="M69.7464 45.2136C69.262 55.7611 60.9627 66.1299 46.0332 66.3043C31.1037 66.4786 19.3936 58.0695 19.878 47.5219C20.3624 36.9744 41.2444 10.1935 56.1739 10.0192C67.3903 18.5555 70.2308 34.666 69.7464 45.2136Z" fill="#CCDFB0"/>
<ellipse cx="34.07" cy="34.2733" rx="2" ry="2.21017" transform="rotate(1.84173 34.07 34.2733)" fill="black"/>
<ellipse cx="49.07" cy="36.2733" rx="2" ry="2.21017" transform="rotate(1.84173 49.07 36.2733)" fill="black"/>
<path d="M32.0662 44C37.5613 48.5332 40.9094 48.9348 47.0662 46" stroke="black"/>
</svg>
