<svg width="22" height="22" viewBox="0 0 24 26" fill="none" xmlns="http://www.w3.org/2000/svg">
<path fill-rule="evenodd" clip-rule="evenodd" d="M16.5406 16.4286H7.45854C4.7855 16.5527 2.41731 18.0794 1.3427 20.3714C0.0465724 22.7509 2.63334 25 5.64176 25H18.3574C21.3677 25 23.9544 22.7509 22.6565 20.3714C21.5819 18.0794 19.2137 16.5527 16.5406 16.4286Z" stroke="black" stroke-width="1.5" stroke-linecap="round" stroke-linejoin="round"/>
<path fill-rule="evenodd" clip-rule="evenodd" d="M17.4995 6.14286C17.4995 8.98318 15.0371 11.2857 11.9996 11.2857C8.96213 11.2857 6.49976 8.98318 6.49976 6.14286C6.49976 3.30254 8.96213 1 11.9996 1C13.4583 1 14.8572 1.54184 15.8886 2.50631C16.92 3.47078 17.4995 4.77889 17.4995 6.14286Z" stroke="black" stroke-width="1.5" stroke-linecap="round" stroke-linejoin="round"/>
</svg>
