<svg width="31" height="31" viewBox="0 0 31 31" fill="none" xmlns="http://www.w3.org/2000/svg">
<path fill-rule="evenodd" clip-rule="evenodd" d="M18.6308 9.40462C18.6294 11.0301 17.3108 12.3467 15.6854 12.3457C14.06 12.3448 12.7429 11.0266 12.7434 9.40118C12.7439 7.77575 14.0617 6.45833 15.6871 6.45833C16.4682 6.45867 17.2171 6.76928 17.7692 7.32182C18.3212 7.87435 18.6312 8.62356 18.6308 9.40462Z" stroke="black" stroke-width="1.5" stroke-linecap="round" stroke-linejoin="round"/>
<path fill-rule="evenodd" clip-rule="evenodd" d="M18.7251 16.687H12.6543C10.5333 16.7537 8.84839 18.4923 8.84839 20.6144C8.84839 22.7364 10.5333 24.475 12.6543 24.5417H18.7251C20.8461 24.475 22.531 22.7364 22.531 20.6144C22.531 18.4923 20.8461 16.7537 18.7251 16.687V16.687Z" stroke="black" stroke-width="1.5" stroke-linecap="round" stroke-linejoin="round"/>
<path fill-rule="evenodd" clip-rule="evenodd" d="M26.076 11.656C26.0753 12.8993 25.067 13.9066 23.8238 13.9061C22.5805 13.9056 21.573 12.8975 21.5732 11.6543C21.5735 10.4111 22.5814 9.40337 23.8246 9.40337C24.4219 9.40337 24.9948 9.64074 25.417 10.0632C25.8393 10.4857 26.0763 11.0587 26.076 11.656V11.656Z" stroke="black" stroke-width="1.5" stroke-linecap="round" stroke-linejoin="round"/>
<path fill-rule="evenodd" clip-rule="evenodd" d="M4.9519 11.656C4.9519 12.8994 5.95988 13.9074 7.20328 13.9074C8.44668 13.9074 9.45465 12.8994 9.45465 11.656C9.45465 10.4126 8.44668 9.40463 7.20328 9.40463C5.95988 9.40463 4.9519 10.4126 4.9519 11.656V11.656Z" stroke="black" stroke-width="1.5" stroke-linecap="round" stroke-linejoin="round"/>
<path d="M24.46 16.8024C24.0458 16.8024 23.71 17.1382 23.71 17.5524C23.71 17.9667 24.0458 18.3024 24.46 18.3024V16.8024ZM26.1482 17.5524L26.1638 16.8026C26.1586 16.8025 26.1534 16.8024 26.1482 16.8024V17.5524ZM26.1482 23.56V24.31C26.1534 24.31 26.1586 24.3099 26.1638 24.3098L26.1482 23.56ZM24.46 22.81C24.0458 22.81 23.71 23.1458 23.71 23.56C23.71 23.9742 24.0458 24.31 24.46 24.31V22.81ZM6.56783 18.3024C6.98205 18.3024 7.31783 17.9667 7.31783 17.5524C7.31783 17.1382 6.98205 16.8024 6.56783 16.8024V18.3024ZM4.87963 17.5524V16.8024C4.87444 16.8024 4.86926 16.8025 4.86407 16.8026L4.87963 17.5524ZM4.87963 23.56L4.86407 24.3098C4.86926 24.3099 4.87444 24.31 4.87963 24.31V23.56ZM6.56783 24.31C6.98205 24.31 7.31783 23.9742 7.31783 23.56C7.31783 23.1458 6.98205 22.81 6.56783 22.81V24.31ZM24.46 18.3024H26.1482V16.8024H24.46V18.3024ZM26.1327 18.3023C27.3593 18.3277 28.3403 19.3294 28.3403 20.5562H29.8403C29.8403 18.513 28.2065 16.845 26.1638 16.8026L26.1327 18.3023ZM28.3403 20.5562C28.3403 21.7831 27.3593 22.7847 26.1327 22.8101L26.1638 24.3098C28.2065 24.2675 29.8403 22.5994 29.8403 20.5562H28.3403ZM26.1482 22.81H24.46V24.31H26.1482V22.81ZM6.56783 16.8024H4.87963V18.3024H6.56783V16.8024ZM4.86407 16.8026C2.82134 16.845 1.1875 18.513 1.1875 20.5562H2.6875C2.6875 19.3294 3.66857 18.3277 4.89518 18.3023L4.86407 16.8026ZM1.1875 20.5562C1.1875 22.5994 2.82134 24.2675 4.86407 24.3098L4.89518 22.8101C3.66857 22.7847 2.6875 21.7831 2.6875 20.5562H1.1875ZM4.87963 24.31H6.56783V22.81H4.87963V24.31Z" fill="black"/>
</svg>
