<svg viewBox="0 0 54 54" fill="none" xmlns="http://www.w3.org/2000/svg">
<path d="M23.7391 15.1885L25.4684 17.2175L29.1739 12.8696" stroke="#6ABD8C" stroke-width="2" stroke-linecap="round" stroke-linejoin="round"/>
<path d="M23.5396 3.2744C25.5336 1.5752 28.4663 1.5752 30.4602 3.2744L33.8518 6.16468C34.7062 6.89284 35.7686 7.33289 36.8877 7.42223L41.3296 7.77668C43.9411 7.98505 46.0148 10.0588 46.2232 12.6703L46.5776 17.1122C46.667 18.2313 47.1071 19.2937 47.8351 20.1481L50.7252 23.5396C52.4249 25.5336 52.4249 28.4663 50.7252 30.4602L47.8351 33.8518C47.1071 34.7062 46.667 35.7686 46.5776 36.8877L46.2232 41.3296C46.0148 43.9411 43.9411 46.0148 41.3296 46.2232L36.8877 46.5776C35.7686 46.667 34.7062 47.1071 33.8518 47.8351L30.4602 50.7252C28.4663 52.4249 25.5336 52.4249 23.5396 50.7252L20.1481 47.8351C19.2937 47.1071 18.2313 46.667 17.1122 46.5776L12.6703 46.2232C10.0588 46.0148 7.98505 43.9411 7.77668 41.3296L7.42223 36.8877C7.33289 35.7686 6.89284 34.7062 6.16468 33.8518L3.2744 30.4602C1.5752 28.4663 1.5752 25.5336 3.2744 23.5396L6.16468 20.1481C6.89284 19.2937 7.33289 18.2313 7.42223 17.1122L7.77668 12.6703C7.98505 10.0588 10.0588 7.98505 12.6703 7.77668L17.1122 7.42223C18.2313 7.33289 19.2937 6.89284 20.1481 6.16468L23.5396 3.2744Z" stroke="#6ABD8C" stroke-width="3" stroke-linecap="round" stroke-linejoin="round"/>
<path d="M18.6037 21.6851V33.3618H16.7309V23.9709L13.9565 24.9379V23.3475L18.3784 21.6851H18.6037ZM29.9109 26.5684V28.4706C29.9109 29.3817 29.8228 30.1596 29.6466 30.8043C29.4757 31.4437 29.227 31.9632 28.9006 32.3628C28.5742 32.7624 28.183 33.0555 27.7272 33.242C27.2764 33.4285 26.7713 33.5217 26.2117 33.5217C25.7662 33.5217 25.3517 33.4631 24.9684 33.3459C24.5902 33.2287 24.2482 33.0448 23.9426 32.7944C23.6369 32.544 23.3752 32.2216 23.1577 31.8273C22.9453 31.4277 22.7795 30.9509 22.6603 30.3967C22.5463 29.8426 22.4893 29.2005 22.4893 28.4706V26.5684C22.4893 25.6519 22.5774 24.8793 22.7536 24.2506C22.9297 23.6166 23.181 23.1024 23.5074 22.7081C23.8338 22.3085 24.2223 22.0181 24.673 21.837C25.129 21.6558 25.6367 21.5652 26.1962 21.5652C26.6469 21.5652 27.0614 21.6238 27.4396 21.741C27.823 21.8529 28.1649 22.0314 28.4654 22.2765C28.771 22.5216 29.0301 22.8413 29.2425 23.2356C29.4601 23.6245 29.6259 24.0961 29.7399 24.6502C29.8539 25.199 29.9109 25.8384 29.9109 26.5684ZM28.038 28.7423V26.2807C28.038 25.8171 28.0121 25.4095 27.9603 25.0578C27.9085 24.7009 27.8308 24.3998 27.7272 24.1547C27.6287 23.9043 27.5043 23.7018 27.3541 23.5473C27.2038 23.3875 27.0329 23.2729 26.8412 23.2036C26.6495 23.129 26.4345 23.0917 26.1962 23.0917C25.9061 23.0917 25.6471 23.1503 25.4191 23.2675C25.1911 23.3794 24.9995 23.5606 24.844 23.811C24.6886 24.0615 24.5694 24.3918 24.4866 24.8021C24.4088 25.207 24.3699 25.6999 24.3699 26.2807V28.7423C24.3699 29.2112 24.3959 29.6241 24.4477 29.9811C24.4995 30.3381 24.5772 30.6444 24.6808 30.9002C24.7844 31.1507 24.9088 31.3584 25.0538 31.5236C25.2041 31.6834 25.3751 31.8007 25.5667 31.8753C25.7636 31.9499 25.9786 31.9872 26.2117 31.9872C26.5071 31.9872 26.7687 31.9285 26.9966 31.8113C27.2246 31.6941 27.4163 31.5076 27.5717 31.2519C27.7271 30.9908 27.8437 30.6525 27.9214 30.2369C27.9991 29.8212 28.038 29.3231 28.038 28.7423ZM38.9565 26.5684V28.4706C38.9565 29.3817 38.8684 30.1596 38.6923 30.8043C38.5213 31.4437 38.2727 31.9632 37.9463 32.3628C37.6199 32.7624 37.2287 33.0555 36.7728 33.242C36.3221 33.4285 35.817 33.5217 35.2574 33.5217C34.8119 33.5217 34.3974 33.4631 34.0141 33.3459C33.6359 33.2287 33.2939 33.0448 32.9883 32.7944C32.6826 32.544 32.4209 32.2216 32.2034 31.8273C31.9909 31.4277 31.8252 30.9509 31.706 30.3967C31.592 29.8426 31.535 29.2005 31.535 28.4706V26.5684C31.535 25.6519 31.6231 24.8793 31.7992 24.2506C31.9754 23.6166 32.2267 23.1024 32.553 22.7081C32.8794 22.3085 33.268 22.0181 33.7187 21.837C34.1746 21.6558 34.6823 21.5652 35.2419 21.5652C35.6926 21.5652 36.1071 21.6238 36.4853 21.741C36.8686 21.8529 37.2106 22.0314 37.5111 22.2765C37.8167 22.5216 38.0758 22.8413 38.2882 23.2356C38.5058 23.6245 38.6715 24.0961 38.7856 24.6502C38.8995 25.199 38.9565 25.8384 38.9565 26.5684ZM37.0837 28.7423V26.2807C37.0837 25.8171 37.0578 25.4095 37.0059 25.0578C36.9541 24.7009 36.8764 24.3998 36.7728 24.1547C36.6744 23.9043 36.55 23.7018 36.3998 23.5473C36.2495 23.3875 36.0786 23.2729 35.8869 23.2036C35.6952 23.129 35.4802 23.0917 35.2419 23.0917C34.9517 23.0917 34.6927 23.1503 34.4648 23.2675C34.2368 23.3794 34.0451 23.5606 33.8897 23.811C33.7343 24.0615 33.6151 24.3918 33.5322 24.8021C33.4545 25.207 33.4156 25.6999 33.4156 26.2807V28.7423C33.4156 29.2112 33.4416 29.6241 33.4934 29.9811C33.5452 30.3381 33.6229 30.6444 33.7265 30.9002C33.8301 31.1507 33.9544 31.3584 34.0995 31.5236C34.2498 31.6834 34.4207 31.8007 34.6124 31.8753C34.8093 31.9499 35.0243 31.9872 35.2574 31.9872C35.5527 31.9872 35.8144 31.9285 36.0423 31.8113C36.2703 31.6941 36.462 31.5076 36.6174 31.2519C36.7728 30.9908 36.8894 30.6525 36.9671 30.2369C37.0448 29.8212 37.0837 29.3231 37.0837 28.7423Z" fill="#6ABD8C"/>
</svg>
