<svg viewBox="0 0 50 51" fill="none" xmlns="http://www.w3.org/2000/svg">
<path d="M1.75439 5.45459H47.3684V17.2728H1.75439V5.45459Z" fill="#6ABD8C"/>
<rect x="0.877197" y="16.6687" width="46.3752" height="32.4923" fill="white"/>
<path d="M44.5307 49.7257H4.90498C2.84629 49.7257 1.19006 48.1035 1.19006 46.0872V8.48978C1.19006 6.47347 2.84629 4.85132 4.90498 4.85132H44.5307C46.5894 4.85132 48.2456 6.47347 48.2456 8.48978V46.0872C48.2456 48.1035 46.5894 49.7257 44.5307 49.7257Z" stroke="black" stroke-width="2" stroke-miterlimit="10"/>
<path d="M38.3392 0V9.70256" stroke="black" stroke-width="2" stroke-miterlimit="10"/>
<path d="M11.0966 0V9.70256" stroke="black" stroke-width="2" stroke-miterlimit="10"/>
<path d="M1.19006 16.9795H48.2456" stroke="black" stroke-width="2" stroke-miterlimit="10"/>
<path d="M24.6396 27.8574V29H20.1748V28.0332L22.2314 25.8711C22.4131 25.6631 22.5596 25.4771 22.6709 25.313C22.7822 25.146 22.8628 24.9951 22.9126 24.8604C22.9653 24.7256 22.9917 24.604 22.9917 24.4956C22.9917 24.311 22.9639 24.1572 22.9082 24.0342C22.8555 23.9082 22.7764 23.813 22.6709 23.7485C22.5684 23.6841 22.4409 23.6519 22.2886 23.6519C22.1362 23.6519 22.0029 23.6958 21.8887 23.7837C21.7744 23.8716 21.6851 23.9917 21.6206 24.144C21.5591 24.2964 21.5283 24.4678 21.5283 24.6582H20.043C20.043 24.2656 20.1382 23.9067 20.3286 23.5815C20.522 23.2563 20.79 22.9971 21.1328 22.8037C21.4756 22.6074 21.8726 22.5093 22.3237 22.5093C22.7954 22.5093 23.1909 22.5825 23.5103 22.729C23.8296 22.8755 24.0698 23.0879 24.231 23.3662C24.395 23.6416 24.4771 23.9741 24.4771 24.3638C24.4771 24.5864 24.4419 24.8003 24.3716 25.0054C24.3013 25.2104 24.2002 25.4141 24.0684 25.6162C23.9365 25.8154 23.7754 26.0205 23.585 26.2314C23.3975 26.4424 23.1836 26.6665 22.9434 26.9038L22.1172 27.8574H24.6396ZM29.8384 27.2378C29.8384 27.645 29.7417 27.9863 29.5483 28.2617C29.3579 28.5371 29.0942 28.7437 28.7573 28.8813C28.4233 29.019 28.0425 29.0879 27.6147 29.0879C27.1899 29.0879 26.8076 29.019 26.4678 28.8813C26.1309 28.7437 25.8643 28.5371 25.668 28.2617C25.4717 27.9863 25.3735 27.645 25.3735 27.2378C25.3735 26.9595 25.4292 26.7104 25.5405 26.4907C25.6548 26.2681 25.813 26.0791 26.0151 25.9238C26.2173 25.7686 26.4531 25.6499 26.7227 25.5679C26.9951 25.4858 27.2896 25.4448 27.606 25.4448C28.0337 25.4448 28.416 25.5181 28.7529 25.6646C29.0898 25.8081 29.355 26.0132 29.5483 26.2798C29.7417 26.5464 29.8384 26.8657 29.8384 27.2378ZM28.3486 27.1191C28.3486 26.9434 28.3179 26.7954 28.2563 26.6753C28.1948 26.5522 28.1084 26.4585 27.9971 26.394C27.8857 26.3296 27.7554 26.2974 27.606 26.2974C27.4595 26.2974 27.3291 26.3296 27.2148 26.394C27.1035 26.4585 27.0156 26.5522 26.9512 26.6753C26.8896 26.7954 26.8589 26.9434 26.8589 27.1191C26.8589 27.2891 26.8911 27.437 26.9556 27.563C27.02 27.686 27.1079 27.7812 27.2192 27.8486C27.3335 27.9131 27.4653 27.9453 27.6147 27.9453C27.7642 27.9453 27.8931 27.9131 28.0015 27.8486C28.1128 27.7812 28.1978 27.686 28.2563 27.563C28.3179 27.437 28.3486 27.2891 28.3486 27.1191ZM29.7065 24.311C29.7065 24.645 29.6172 24.938 29.4385 25.1899C29.2627 25.439 29.0166 25.6338 28.7002 25.7744C28.3867 25.9121 28.0249 25.981 27.6147 25.981C27.2075 25.981 26.8442 25.9121 26.5249 25.7744C26.2085 25.6338 25.9595 25.439 25.7778 25.1899C25.5991 24.938 25.5098 24.645 25.5098 24.311C25.5098 23.9185 25.5991 23.5889 25.7778 23.3223C25.9595 23.0557 26.2085 22.8535 26.5249 22.7158C26.8413 22.5781 27.2017 22.5093 27.606 22.5093C28.0161 22.5093 28.3794 22.5781 28.6958 22.7158C29.0122 22.8535 29.2598 23.0557 29.4385 23.3223C29.6172 23.5889 29.7065 23.9185 29.7065 24.311ZM28.2256 24.3901C28.2256 24.2378 28.2021 24.1074 28.1553 23.999C28.1084 23.8877 28.0396 23.8027 27.9487 23.7441C27.8579 23.6826 27.7437 23.6519 27.606 23.6519C27.4741 23.6519 27.3628 23.6812 27.272 23.7397C27.1812 23.7983 27.1123 23.8833 27.0654 23.9946C27.0186 24.103 26.9951 24.2349 26.9951 24.3901C26.9951 24.5425 27.0186 24.6758 27.0654 24.79C27.1123 24.9043 27.1812 24.9937 27.272 25.0581C27.3657 25.1226 27.48 25.1548 27.6147 25.1548C27.7524 25.1548 27.8652 25.1226 27.9531 25.0581C28.0439 24.9937 28.1113 24.9043 28.1553 24.79C28.2021 24.6758 28.2256 24.5425 28.2256 24.3901ZM16.356 40H14.9365L14.9453 38.8135H16.356C16.6489 38.8135 16.8965 38.7432 17.0986 38.6025C17.3037 38.4619 17.459 38.2524 17.5645 37.9741C17.6729 37.6929 17.7271 37.3472 17.7271 36.937V36.6602C17.7271 36.3525 17.6963 36.083 17.6348 35.8516C17.5762 35.6172 17.4883 35.4224 17.3711 35.2671C17.2539 35.1089 17.1074 34.9902 16.9316 34.9111C16.7588 34.832 16.5596 34.7925 16.334 34.7925H14.9102V33.6016H16.334C16.7676 33.6016 17.1646 33.6763 17.5249 33.8257C17.8882 33.9722 18.2017 34.1831 18.4653 34.4585C18.7319 34.731 18.937 35.0547 19.0806 35.4297C19.2271 35.8018 19.3003 36.2148 19.3003 36.6689V36.937C19.3003 37.3882 19.2271 37.8013 19.0806 38.1763C18.937 38.5513 18.7334 38.875 18.4697 39.1475C18.2061 39.4199 17.894 39.6309 17.5337 39.7803C17.1763 39.9268 16.7837 40 16.356 40ZM15.8198 33.6016V40H14.2773V33.6016H15.8198ZM22.7192 34.9463L21.1592 40H19.5024L21.8535 33.6016H22.9038L22.7192 34.9463ZM24.0112 40L22.4468 34.9463L22.2446 33.6016H23.3081L25.6724 40H24.0112ZM23.9497 37.6138V38.8047H20.667V37.6138H23.9497ZM26.6436 33.6016L27.8213 36.3789L29.0034 33.6016H30.6646L28.6079 37.7017V40H27.0391V37.7017L24.978 33.6016H26.6436ZM34.3604 38.2993C34.3604 38.1997 34.3457 38.1104 34.3164 38.0312C34.2871 37.9492 34.2329 37.873 34.1538 37.8027C34.0747 37.7324 33.9604 37.6621 33.811 37.5918C33.6646 37.5186 33.4712 37.4424 33.231 37.3633C32.9497 37.2695 32.6787 37.1641 32.418 37.0469C32.1572 36.9268 31.9243 36.7876 31.7192 36.6294C31.5142 36.4683 31.3516 36.2808 31.2314 36.0669C31.1113 35.8501 31.0513 35.5981 31.0513 35.311C31.0513 35.0356 31.1128 34.7881 31.2358 34.5684C31.3589 34.3457 31.5303 34.1567 31.75 34.0015C31.9727 33.8433 32.2334 33.7231 32.5322 33.6411C32.8311 33.5562 33.1577 33.5137 33.5122 33.5137C33.981 33.5137 34.394 33.5957 34.7515 33.7598C35.1118 33.9209 35.3931 34.1509 35.5952 34.4497C35.8003 34.7456 35.9028 35.0957 35.9028 35.5H34.3691C34.3691 35.3389 34.3354 35.1968 34.2681 35.0737C34.2036 34.9507 34.1055 34.854 33.9736 34.7837C33.8418 34.7134 33.6763 34.6782 33.4771 34.6782C33.2837 34.6782 33.1211 34.7075 32.9893 34.7661C32.8574 34.8247 32.7578 34.9038 32.6904 35.0034C32.623 35.1001 32.5894 35.207 32.5894 35.3242C32.5894 35.4209 32.6157 35.5088 32.6685 35.5879C32.7241 35.6641 32.8018 35.7358 32.9014 35.8032C33.0039 35.8706 33.127 35.9351 33.2705 35.9966C33.417 36.0581 33.5811 36.1182 33.7627 36.1768C34.1025 36.2852 34.4043 36.4067 34.668 36.5415C34.9346 36.6733 35.1587 36.8242 35.3403 36.9941C35.5249 37.1611 35.6641 37.3516 35.7578 37.5654C35.8545 37.7793 35.9028 38.021 35.9028 38.2905C35.9028 38.5776 35.8472 38.8325 35.7358 39.0552C35.6245 39.2778 35.4648 39.4668 35.2568 39.6221C35.0488 39.7744 34.7998 39.8901 34.5098 39.9692C34.2197 40.0483 33.896 40.0879 33.5386 40.0879C33.2104 40.0879 32.8867 40.0469 32.5674 39.9648C32.251 39.8799 31.9639 39.751 31.7061 39.5781C31.4482 39.4023 31.2417 39.1782 31.0864 38.9058C30.9341 38.6304 30.8579 38.3037 30.8579 37.9258H32.4048C32.4048 38.1133 32.4297 38.2715 32.4795 38.4004C32.5293 38.5293 32.6025 38.6333 32.6992 38.7124C32.7959 38.7886 32.9146 38.8442 33.0552 38.8794C33.1958 38.9116 33.3569 38.9277 33.5386 38.9277C33.7349 38.9277 33.8931 38.8999 34.0132 38.8442C34.1333 38.7856 34.2212 38.7095 34.2769 38.6157C34.3325 38.519 34.3604 38.4136 34.3604 38.2993Z" fill="black"/>
</svg>
