<svg viewBox="0 0 54 54" fill="none" xmlns="http://www.w3.org/2000/svg">
<path d="M23.8888 15.0001L25.6487 16.76L29.4199 12.9888" stroke="#6ABD8C" stroke-width="2" stroke-linecap="round" stroke-linejoin="round"/>
<path d="M23.5396 3.2744C25.5336 1.5752 28.4663 1.5752 30.4602 3.2744L33.8518 6.16468C34.7062 6.89284 35.7686 7.33289 36.8877 7.42223L41.3296 7.77668C43.9411 7.98505 46.0148 10.0588 46.2233 12.6703L46.5775 17.1122C46.6671 18.2313 47.1071 19.2937 47.8351 20.1481L50.7252 23.5396C52.4249 25.5336 52.4249 28.4663 50.7252 30.4602L47.8351 33.8518C47.1071 34.7062 46.6671 35.7686 46.5775 36.8877L46.2233 41.3296C46.0148 43.9411 43.9411 46.0148 41.3296 46.2232L36.8877 46.5776C35.7686 46.667 34.7062 47.1071 33.8518 47.8351L30.4602 50.7252C28.4663 52.4249 25.5336 52.4249 23.5396 50.7252L20.1481 47.8351C19.2937 47.1071 18.2313 46.667 17.1122 46.5776L12.6703 46.2232C10.0588 46.0148 7.98505 43.9411 7.77668 41.3296L7.42223 36.8877C7.33289 35.7686 6.89284 34.7062 6.16468 33.8518L3.2744 30.4602C1.5752 28.4663 1.5752 25.5336 3.2744 23.5396L6.16468 20.1481C6.89284 19.2937 7.33289 18.2313 7.42223 17.1122L7.77668 12.6703C7.98505 10.0588 10.0588 7.98505 12.6703 7.77668L17.1122 7.42223C18.2313 7.33289 19.2937 6.89284 20.1481 6.16468L23.5396 3.2744Z" stroke="#6ABD8C" stroke-width="3" stroke-linecap="round" stroke-linejoin="round"/>
<path d="M20.5025 27.8442L19.0025 27.477L19.6197 21.7583H25.7525V23.3521H21.1822L20.8697 26.1411C21.0468 26.0369 21.2916 25.9354 21.6041 25.8364C21.9166 25.7322 22.2734 25.6802 22.6744 25.6802C23.2109 25.6802 23.69 25.7687 24.1119 25.9458C24.539 26.1177 24.901 26.3703 25.1978 26.7036C25.4947 27.0317 25.7212 27.4328 25.8775 27.9067C26.0338 28.3755 26.1119 28.9041 26.1119 29.4926C26.1119 30.0187 26.0338 30.5109 25.8775 30.9692C25.7265 31.4276 25.4973 31.8312 25.19 32.1802C24.8827 32.5291 24.4947 32.8026 24.0259 33.0005C23.5624 33.1932 23.0129 33.2895 22.3775 33.2895C21.9036 33.2895 21.4478 33.2218 21.0103 33.0864C20.5781 32.9458 20.19 32.74 19.8463 32.4692C19.5025 32.1932 19.2265 31.8546 19.0182 31.4536C18.8099 31.0474 18.69 30.5812 18.6588 30.0551H20.5025C20.5494 30.425 20.651 30.7401 20.8072 31.0005C20.9687 31.2557 21.1822 31.451 21.4478 31.5864C21.7135 31.7218 22.0208 31.7895 22.3697 31.7895C22.6874 31.7895 22.9609 31.7348 23.19 31.6255C23.4192 31.5109 23.6093 31.3494 23.7603 31.1411C23.9166 30.9276 24.0312 30.6775 24.1041 30.3911C24.1822 30.1046 24.2213 29.7869 24.2213 29.438C24.2213 29.1046 24.177 28.8 24.0885 28.5239C24.0051 28.2478 23.8775 28.0083 23.7056 27.8052C23.539 27.602 23.328 27.4458 23.0728 27.3364C22.8176 27.2218 22.5233 27.1645 22.19 27.1645C21.7421 27.1645 21.3984 27.2297 21.1588 27.3598C20.9244 27.49 20.7056 27.6515 20.5025 27.8442ZM35.0338 26.4927V28.3521C35.0338 29.2427 34.9452 30.0031 34.7681 30.6333C34.5963 31.2583 34.3462 31.7661 34.0181 32.1567C33.69 32.5474 33.2967 32.8338 32.8385 33.0161C32.3853 33.1984 31.8775 33.2895 31.315 33.2895C30.8671 33.2895 30.4504 33.2322 30.065 33.1176C29.6848 33.0031 29.341 32.8234 29.0338 32.5786C28.7265 32.3338 28.4634 32.0187 28.2447 31.6333C28.0312 31.2427 27.8645 30.7765 27.7447 30.2348C27.6301 29.6932 27.5728 29.0656 27.5728 28.3521V26.4927C27.5728 25.5968 27.6614 24.8416 27.8385 24.2271C28.0155 23.6073 28.2681 23.1047 28.5963 22.7192C28.9244 22.3286 29.315 22.0448 29.7681 21.8677C30.2265 21.6906 30.7369 21.6021 31.2994 21.6021C31.7525 21.6021 32.1692 21.6593 32.5494 21.7739C32.9348 21.8833 33.2786 22.0578 33.5806 22.2974C33.8879 22.5369 34.1483 22.8495 34.3619 23.2348C34.5806 23.6151 34.7473 24.076 34.8619 24.6177C34.9765 25.1541 35.0338 25.7791 35.0338 26.4927ZM33.1509 28.6177V26.2114C33.1509 25.7583 33.1249 25.3599 33.0728 25.0161C33.0207 24.6672 32.9426 24.3729 32.8385 24.1333C32.7395 23.8885 32.6145 23.6906 32.4634 23.5395C32.3124 23.3833 32.1405 23.2713 31.9478 23.2036C31.7551 23.1307 31.5389 23.0943 31.2994 23.0943C31.0077 23.0943 30.7473 23.1515 30.5181 23.2661C30.289 23.3755 30.0963 23.5526 29.94 23.7974C29.7837 24.0422 29.664 24.3651 29.5806 24.7661C29.5025 25.1619 29.4634 25.6437 29.4634 26.2114V28.6177C29.4634 29.076 29.4895 29.4796 29.5416 29.8286C29.5937 30.1775 29.6718 30.477 29.776 30.727C29.8801 30.9718 30.0051 31.1749 30.1509 31.3364C30.302 31.4926 30.4739 31.6072 30.6666 31.6802C30.8645 31.7531 31.0806 31.7895 31.315 31.7895C31.6119 31.7895 31.8749 31.7322 32.1041 31.6177C32.3332 31.5031 32.5259 31.3208 32.6822 31.0708C32.8385 30.8156 32.9556 30.4849 33.0338 30.0786C33.1119 29.6723 33.1509 29.1854 33.1509 28.6177Z" fill="#6ABD8C"/>
</svg>
