<svg width="13" height="16" viewBox="0 0 13 16" fill="none" xmlns="http://www.w3.org/2000/svg">
<g id="Group 1596">
<path id="Rectangle 8" d="M5.39136 9.71521L6.84034 10.5732L3.89792 15.8001L3.05338 13.8683L5.39136 9.71521Z" fill="#77AADA"/>
<path id="Rectangle 9" d="M5.39136 9.71521L3.94237 8.85723L0.99995 14.0841L3.05338 13.8683L5.39136 9.71521Z" fill="#729ACA"/>
<path id="Rectangle 10" d="M7.4585 9.71521L6.00951 10.5732L8.95194 15.8001L9.79647 13.8683L7.4585 9.71521Z" fill="#729ACA"/>
<path id="Rectangle 11" d="M7.4585 9.71521L8.90748 8.85723L11.8499 14.0841L9.79647 13.8683L7.4585 9.71521Z" fill="#77AADA"/>
<path id="Ellipse 14" d="M6.42265 11.7325C9.46574 11.7325 11.9112 9.20602 11.9112 6.11624C11.9112 3.02646 9.46574 0.5 6.42265 0.5C3.37956 0.5 0.934082 3.02646 0.934082 6.11624C0.934082 9.20602 3.37956 11.7325 6.42265 11.7325Z" fill="#E3E3E3" stroke="#E3E3E3"/>
<ellipse id="Ellipse 4" cx="6.4226" cy="6.11625" rx="3.89403" ry="3.99369" fill="#595959"/>
<g id="Mask Group">
<mask id="mask0_1015_5092" style="mask-type:alpha" maskUnits="userSpaceOnUse" x="2" y="2" width="9" height="9">
<ellipse id="Ellipse 4_2" cx="6.63063" cy="6.54266" rx="3.90309" ry="4.00299" fill="#C28B37"/>
</mask>
<g mask="url(#mask0_1015_5092)">
<ellipse id="Ellipse 3" cx="6.42262" cy="6.11627" rx="3.90309" ry="4.00299" fill="url(#paint0_linear_1015_5092)"/>
</g>
</g>
<path id="Vector" d="M6.44383 3.33142L7.28578 5.05842L8.96968 5.2743L7.8134 6.60409L8.12773 8.51243L6.44383 7.64893L4.75992 8.51243L5.07706 6.60409L3.91797 5.2743L5.60187 5.05842L6.44383 3.33142Z" fill="url(#paint1_linear_1015_5092)"/>
</g>
<defs>
<linearGradient id="paint0_linear_1015_5092" x1="6.42262" y1="2.11328" x2="6.42262" y2="10.1193" gradientUnits="userSpaceOnUse">
<stop stop-color="#9CA1A3"/>
<stop offset="1" stop-color="#9CA1A3" stop-opacity="0"/>
</linearGradient>
<linearGradient id="paint1_linear_1015_5092" x1="6.44383" y1="3.33142" x2="6.44383" y2="8.51243" gradientUnits="userSpaceOnUse">
<stop stop-color="#F1F5F5"/>
<stop offset="0.0001" stop-color="white"/>
<stop offset="1" stop-color="#F1F5F5"/>
</linearGradient>
</defs>
</svg>
