<svg width="98" height="119" viewBox="0 0 98 119" fill="none" xmlns="http://www.w3.org/2000/svg">
<path d="M85.4347 40.3653C91.4704 52.4019 88.6747 69.0128 72.1246 78.3257C55.5746 87.6386 37.2652 85.4307 31.2294 73.3941C25.1937 61.3576 31.7969 18.7926 48.347 9.47967C66.1848 12.1308 79.399 28.3288 85.4347 40.3653Z" fill="#6ABD8C"/>
<path d="M88.1341 94.2259C86.5341 79.0259 60.8334 73.4996 54 74.4996L18 41.4996H9.00002C2.16669 40.4996 25 74.4996 28.5 88.4997C23.8334 95.6664 15.5278 113 26.7278 115L83.7278 119C94.9278 117 92.8008 101.393 88.1341 94.2259Z" fill="#6ABD8C"/>
<path d="M88.9279 58.8C88.31 72.0955 77.7236 85.1658 58.6797 85.3855C39.6358 85.6053 24.6986 75.0053 25.3165 61.7097C25.9344 48.4142 52.5712 14.656 71.6151 14.4362C85.9225 25.1966 89.5458 45.5044 88.9279 58.8Z" fill="#CCDFB0"/>
<ellipse rx="2.35498" ry="2.66002" transform="matrix(0.99946 0.0328505 -0.0314425 0.999506 43.0796 45.0657)" fill="black"/>
<ellipse rx="2.35498" ry="2.66006" transform="matrix(0.99946 0.0328509 -0.031442 0.999506 60.7416 47.4728)" fill="black"/>
<path d="M40.7202 56.7721C48.556 54.4709 51.8907 58.4057 58.3821 59.1793" stroke="black"/>
<path d="M73 38.9996C62.5 35.4996 58.3445 43.0476 58 37.9997" stroke="black"/>
<path d="M38.7659 32.7043C46.7345 33.2229 46.9218 41.7094 48.8213 37.1532" stroke="black"/>
<path d="M72.272 113.239C75.114 119.456 79.4559 117.748 82.2123 116.552C87.4652 113.571 88.5219 109.531 85.867 105.059C84.0392 101.98 81.344 99.1085 79.1675 97.2175C81.1555 94.345 77.722 82.989 72.5801 86.4257C69.2287 88.6658 68.002 85.4701 63.9172 91.5446C60.4448 96.7082 64.9918 104.728 68.2557 106.003L72.272 113.239Z" fill="#CCDFB0"/>
<path d="M8.38607 48.2399C12.5 53.5 15.2368 53.2399 18.0701 52.2399C23.5188 49.634 24.8556 45.678 22.5203 41.031C20.9124 37.8316 18.4248 34.7787 16.3861 32.7399C18.5701 30.0136 15.9399 18.4452 10.5701 21.5136C7.07012 23.5136 6.07012 20.2399 1.57012 26.0136C-2.2551 30.9215 1.7194 39.2399 4.88607 40.7399L8.38607 48.2399Z" fill="#CCDFB0"/>
</svg>
