<svg width="88" height="127" viewBox="0 0 88 127" fill="none" xmlns="http://www.w3.org/2000/svg">
<path d="M75.4347 40.3652C81.4704 52.4018 78.6747 69.0127 62.1246 78.3256C45.5746 87.6385 27.2652 85.4306 21.2294 73.394C15.1937 61.3574 21.7969 18.7925 38.347 9.47955C56.1848 12.1306 69.399 28.3286 75.4347 40.3652Z" fill="#6ABD8C"/>
<path d="M82.0846 95.4171C79.5916 80.3378 65.4433 79.3699 58.6808 80.7709L35.2875 80.1485C28.4071 79.5529 14.471 82.1788 13.7695 97.4467C9.53335 104.876 10.7109 118.437 22.0093 119.774L79.146 120.407C90.2087 117.751 87.1655 102.296 82.0846 95.4171Z" fill="#6ABD8C"/>
<path d="M69.2637 117.224C72.0367 123.472 78.2689 122.703 81.0384 121.538C86.324 118.615 85.5536 113.696 82.9485 109.195C81.1549 106.096 78.4916 103.195 76.3363 101.28C80.1231 97.5501 76.3899 91.2196 70.2137 90.8962C63.6822 90.5543 65.9117 94.3822 60.7454 100.197C58.4218 102.812 62.0782 108.633 65.3277 109.944L69.2637 117.224Z" fill="#CCDFB0"/>
<path d="M28.2829 115.637C26.2643 122.167 21.7388 121.032 18.8515 120.2C13.2586 117.92 11.691 114.05 13.7485 109.273C15.1649 105.985 17.4683 102.79 19.3834 100.635C17.0424 98.0422 18.9863 86.3389 24.5276 89.0855C28.1394 90.8758 28.9447 87.5489 33.7772 93.0473C37.885 97.7213 34.4076 106.259 31.3349 107.943L28.2829 115.637Z" fill="#CCDFB0"/>
<path d="M79.9279 59.7998C79.31 73.0954 68.7236 86.1656 49.6797 86.3854C30.6358 86.6052 15.6986 76.0052 16.3165 62.7096C16.9344 49.4141 43.5712 15.6559 62.6151 15.4361C76.9225 26.1965 80.5458 46.5043 79.9279 59.7998Z" fill="#CCDFB0"/>
<ellipse rx="2.35498" ry="2.66002" transform="matrix(0.99946 0.0328505 -0.0314425 0.999506 34.0796 46.0654)" fill="black"/>
<ellipse rx="2.35498" ry="2.66006" transform="matrix(0.99946 0.0328509 -0.031442 0.999506 51.7416 48.4727)" fill="black"/>
<path d="M31.7202 57.772C39.556 55.4708 42.8907 59.4056 49.3821 60.1791" stroke="black"/>
<path d="M64 39.9993C53.5 36.4994 49.3445 44.0473 49 38.9994" stroke="black"/>
<path d="M29.7659 33.7041C37.7345 34.2226 37.9218 42.7092 39.8213 38.153" stroke="black"/>
</svg>
