<svg viewBox="0 0 132 138" fill="none" xmlns="http://www.w3.org/2000/svg">
<path d="M124.457 97.87C121.529 78.0241 97.0472 75.8512 85.1725 77.2455L44.6031 74.9295C32.7092 73.7098 8.26227 76.2422 5.62558 96.129C-2.42169 105.555 -1.63651 123.335 17.8613 125.806L117.032 130.305C136.492 127.548 132.642 107.177 124.457 97.87Z" fill="#6ABD8C"/>
<path d="M97.3677 40.3653C103.403 52.4019 100.608 69.0128 84.0576 78.3257C67.5075 87.6386 49.1981 85.4307 43.1624 73.3941C37.1267 61.3576 43.7299 18.7926 60.28 9.47967C78.1178 12.1308 91.3319 28.3288 97.3677 40.3653Z" fill="#6ABD8C"/>
<path d="M101.861 58.8003C101.243 72.0959 90.6567 85.1661 71.6128 85.3859C52.5689 85.6056 37.6317 75.0056 38.2496 61.7101C38.8675 48.4146 65.5043 14.6564 84.5482 14.4366C98.8556 25.197 102.479 45.5048 101.861 58.8003Z" fill="#CCDFB0"/>
<ellipse rx="2.35498" ry="2.66002" transform="matrix(0.99946 0.0328505 -0.0314425 0.999506 56.0127 45.0659)" fill="black"/>
<ellipse rx="2.35498" ry="2.66006" transform="matrix(0.99946 0.0328509 -0.031442 0.999506 73.6746 47.473)" fill="black"/>
<path d="M53.6533 56.7724C61.4891 54.4711 64.8239 58.4059 71.3152 59.1795" stroke="black"/>
<path d="M95.1356 129.63C98.5261 138.097 106.016 137.113 109.337 135.563C115.669 131.66 114.699 125.005 111.526 118.899C109.341 114.695 106.112 110.751 103.503 108.144C108.025 103.137 103.479 94.5495 96.0467 94.0581C88.1872 93.5385 90.9026 98.7312 84.7394 106.544C81.9675 110.057 86.4169 117.956 90.3372 119.756L95.1356 129.63Z" fill="#CCDFB0"/>
<path d="M85.9331 38.9998C75.4331 35.4999 71.2776 43.0478 70.9331 37.9999" stroke="black"/>
<path d="M51.699 32.7046C59.6676 33.2231 59.8549 41.7097 61.7544 37.1535" stroke="black"/>
</svg>
