<svg width="31" height="31" viewBox="0 0 31 31" fill="none" xmlns="http://www.w3.org/2000/svg">
<g id="Back Button">
<g id="Vector">
<path id="Vector-13" d="M13.7569 9.58473C14.0568 9.29906 14.0684 8.82433 13.7827 8.52438C13.4971 8.22444 13.0223 8.21286 12.7224 8.49852L13.7569 9.58473ZM5.94113 14.9569C5.64118 15.2425 5.62961 15.7173 5.91527 16.0172C6.20094 16.3171 6.67567 16.3287 6.97562 16.0431L5.94113 14.9569ZM6.97562 14.9569C6.67567 14.6712 6.20093 14.6828 5.91527 14.9827C5.62961 15.2827 5.64118 15.7574 5.94113 16.0431L6.97562 14.9569ZM12.7224 22.5014C13.0223 22.7871 13.4971 22.7755 13.7827 22.4755C14.0684 22.1756 14.0568 21.7009 13.7569 21.4152L12.7224 22.5014ZM6.45837 14.75C6.04416 14.75 5.70837 15.0857 5.70837 15.5C5.70837 15.9142 6.04416 16.25 6.45837 16.25V14.75ZM24.5417 16.25C24.9559 16.25 25.2917 15.9142 25.2917 15.5C25.2917 15.0857 24.9559 14.75 24.5417 14.75V16.25ZM12.7224 8.49852L5.94113 14.9569L6.97562 16.0431L13.7569 9.58473L12.7224 8.49852ZM5.94113 16.0431L12.7224 22.5014L13.7569 21.4152L6.97562 14.9569L5.94113 16.0431ZM6.45837 16.25H24.5417V14.75H6.45837V16.25Z" fill="black"/>
</g>
</g>
</svg>
