<svg viewBox="0 0 32 32" fill="none" xmlns="http://www.w3.org/2000/svg">
<path d="M17.1648 18.2015H20.896V14.4639H19.616V15.8975C18.6675 15.0812 17.5045 14.5545 16.2654 14.3798C15.0262 14.2052 13.763 14.3901 12.6258 14.9125C11.4887 15.4349 10.5254 16.2729 9.85063 17.3267C9.17583 18.3806 8.81784 19.6061 8.81922 20.8575H10.0992C10.0997 19.8443 10.3926 18.8528 10.943 18.0022C11.4933 17.1515 12.2776 16.4778 13.2016 16.0621C14.1256 15.6465 15.1499 15.5064 16.1516 15.6589C17.1532 15.8113 18.0895 16.2498 18.848 16.9215H17.1648V18.2015Z" fill="#343434"/>
<path d="M15.36 26.1249C14.0744 26.1248 12.8334 25.6535 11.872 24.8001H13.5552V23.5201H9.82397V27.2513H11.104V25.8241C12.0529 26.6407 13.2165 27.1676 14.4562 27.342C15.696 27.5164 16.9597 27.3309 18.0971 26.8077C19.2345 26.2845 20.1976 25.4456 20.872 24.3908C21.5463 23.336 21.9034 22.1096 21.9008 20.8577H20.6208C20.6208 22.2535 20.0667 23.5923 19.0803 24.5799C18.0939 25.5675 16.7558 26.1232 15.36 26.1249V26.1249Z" fill="#343434"/>
<path d="M26.3296 11.6991C26.0736 9.74713 25.0496 8.33273 23.4688 7.85913C22.9233 7.70066 22.3476 7.67609 21.7905 7.7875C21.2334 7.89891 20.7115 8.14303 20.2688 8.49913C19.8289 7.53056 19.2224 6.64674 18.4768 5.88793C17.3563 4.7197 15.9044 3.92333 14.3171 3.60631C12.7297 3.2893 11.0833 3.46689 9.60003 4.11513C8.21339 4.77643 7.03692 5.80873 6.20099 7.09765C5.36506 8.38656 4.90231 9.88176 4.86403 11.4175C4.86403 11.5647 4.86403 11.7119 4.86403 11.8591C3.68638 12.214 2.66174 12.9536 1.954 13.9595C1.24625 14.9654 0.89627 16.1796 0.960033 17.4079C0.960033 17.5679 0.960033 17.7215 0.960033 17.8751C1.07993 19.3638 1.76046 20.7515 2.86411 21.7577C3.96776 22.764 5.41223 23.3137 6.90563 23.2959H7.54563V22.0159H6.90563C5.73691 22.0361 4.60431 21.6108 3.73779 20.8263C2.87127 20.0418 2.33578 18.9569 2.24003 17.7919C2.24003 17.6703 2.24003 17.5423 2.24003 17.4079C2.17715 16.3734 2.4894 15.3509 3.1195 14.528C3.74961 13.7051 4.65531 13.137 5.67043 12.9279V12.9279C5.82524 12.8941 5.96199 12.804 6.0542 12.6751C6.14642 12.5463 6.18755 12.3878 6.16963 12.2303C6.13664 11.9542 6.11954 11.6764 6.11843 11.3983C6.15403 10.1157 6.53951 8.86711 7.23322 7.78763C7.92693 6.70815 8.90248 5.8388 10.0544 5.27353C11.3078 4.71496 12.7037 4.55904 14.0494 4.82728C15.3952 5.09551 16.6246 5.77469 17.568 6.77113C18.4125 7.64026 19.0512 8.68788 19.4368 9.83673C19.4754 9.94667 19.5433 10.044 19.6332 10.1182C19.723 10.1924 19.8314 10.2406 19.9466 10.2578C20.0619 10.2749 20.1796 10.2602 20.2872 10.2154C20.3947 10.1705 20.4879 10.0971 20.5568 10.0031C20.8347 9.60252 21.2309 9.29888 21.69 9.13476C22.1491 8.97064 22.648 8.95426 23.1168 9.08793C24.2304 9.41433 24.9664 10.5471 25.0944 12.1279C25.068 12.2913 25.1059 12.4586 25.2002 12.5946C25.2945 12.7307 25.4378 12.8249 25.6 12.8575C26.848 13.0751 29.7472 13.9519 29.7472 17.4527C29.7472 21.6255 25.696 22.0223 25.5808 22.0351H23.8208V23.3151H25.6448C27.52 23.1615 31.04 21.7599 31.04 17.4527C31.04 14.0351 28.6912 12.2687 26.3296 11.6991Z" fill="#343434"/>
</svg>
