<svg width="33" height="33" viewBox="0 0 33 33" fill="none" xmlns="http://www.w3.org/2000/svg">
<g id="Xnix/Line/Rotate">
<g id="Vector">
<path id="Vector-63" d="M24.4277 13.9545C24.5416 14.3527 24.9569 14.5831 25.3551 14.4691C25.7533 14.3551 25.9837 13.9399 25.8697 13.5417L24.4277 13.9545ZM22.8112 9.69183L23.3513 9.17146L23.3507 9.17087L22.8112 9.69183ZM18.0276 7.0587L18.1791 6.32417L18.1777 6.32389L18.0276 7.0587ZM12.6362 7.6087L12.3408 6.91934L12.34 6.91966L12.6362 7.6087ZM8.44794 11.1507L7.81763 10.7442L7.81762 10.7443L8.44794 11.1507ZM9.60844 23.3043L10.1508 22.7863L10.1504 22.7859L9.60844 23.3043ZM21.3908 24.502L21.8178 25.1185L21.818 25.1184L21.3908 24.502ZM25.525 20.4595C25.6784 20.0747 25.4908 19.6384 25.1061 19.485C24.7213 19.3316 24.2851 19.5192 24.1317 19.9039L25.525 20.4595ZM24.4228 13.5594C24.3186 13.9603 24.5591 14.3698 24.96 14.474C25.3609 14.5782 25.7704 14.3376 25.8746 13.9367L24.4228 13.5594ZM26.8508 10.1802C26.955 9.77933 26.7145 9.36988 26.3136 9.26569C25.9127 9.16151 25.5032 9.40204 25.3991 9.80293L26.8508 10.1802ZM24.9489 14.471C25.3482 14.5813 25.7613 14.3471 25.8716 13.9478C25.9819 13.5486 25.7477 13.1355 25.3485 13.0252L24.9489 14.471ZM21.7061 12.0187C21.3068 11.9083 20.8937 12.1426 20.7834 12.5418C20.6731 12.9411 20.9073 13.3542 21.3066 13.4645L21.7061 12.0187ZM25.8697 13.5417C25.4001 11.901 24.5354 10.4005 23.3513 9.17146L22.2711 10.2122C23.285 11.2646 24.0255 12.5495 24.4277 13.9545L25.8697 13.5417ZM23.3507 9.17087C21.9527 7.72301 20.1502 6.73084 18.1791 6.32417L17.876 7.79323C19.5514 8.13888 21.0834 8.98218 22.2717 10.2128L23.3507 9.17087ZM18.1777 6.32389C16.2168 5.92323 14.1803 6.13098 12.3408 6.91934L12.9316 8.29807C14.4904 7.63007 16.2159 7.45404 17.8774 7.79352L18.1777 6.32389ZM12.34 6.91966C10.4859 7.71661 8.91139 9.04816 7.81763 10.7442L9.07825 11.5572C10.0104 10.1117 11.3522 8.97694 12.9324 8.29775L12.34 6.91966ZM7.81762 10.7443C5.15862 14.8678 5.67512 20.2769 9.06643 23.8227L10.1504 22.7859C7.23876 19.7416 6.79532 15.0975 9.07826 11.5572L7.81762 10.7443ZM9.0661 23.8224C12.4191 27.3325 17.8272 27.8822 21.8178 25.1185L20.9638 23.8854C17.5799 26.2289 12.994 25.7628 10.1508 22.7863L9.0661 23.8224ZM21.818 25.1184C23.4846 23.9634 24.774 22.343 25.525 20.4595L24.1317 19.9039C23.4898 21.5136 22.3879 22.8985 20.9636 23.8855L21.818 25.1184ZM25.8746 13.9367L26.8508 10.1802L25.3991 9.80293L24.4228 13.5594L25.8746 13.9367ZM25.3485 13.0252L21.7061 12.0187L21.3066 13.4645L24.9489 14.471L25.3485 13.0252Z" fill="black"/>
</g>
</g>
</svg>
