<svg width="32" height="30" viewBox="0 0 32 30" fill="none" xmlns="http://www.w3.org/2000/svg">
<g id="&#236;&#148;&#168;&#236;&#149;&#151;&#236;&#149;&#132;&#236;&#157;&#180;&#236;&#189;&#152;" clip-path="url(#clip0_164_2083)">
<g id="Group">
<path id="Vector" d="M0.349121 20.4485C0.925478 17.0959 2.52873 14.2993 4.83821 11.9493C5.77175 10.9954 6.52264 9.89142 6.99752 8.621C7.31411 7.76864 7.87424 7.20851 8.84024 7.20851C9.81031 7.20851 10.3745 7.77675 10.683 8.62505C11.3892 10.5652 12.8382 11.9411 14.1492 13.3983C14.616 13.2319 14.4699 12.8869 14.5105 12.6311C14.8961 10.2039 16.0488 8.17858 17.6926 6.39268C19.1863 4.7732 20.7246 3.19025 21.512 1.05123C21.7799 0.324699 22.4374 -0.012186 23.2045 -0.00406824C23.9229 0.00404946 24.5399 0.340934 24.7997 1.00659C25.4694 2.70725 26.5247 4.12379 27.7667 5.43074C28.0062 5.68644 29.926 7.76052 29.4917 8.1177C29.0899 8.44646 27.2959 6.29527 27.0483 6.02333C25.9037 4.75697 24.7712 3.47843 24.1705 1.83459C24.0122 1.40029 23.789 0.986292 23.2329 0.95788C22.6891 0.929468 22.3968 1.25418 22.2223 1.71689C21.4917 3.68137 20.1036 5.17909 18.6992 6.65651C16.8443 8.61288 15.5739 10.8371 15.3182 13.5769C15.2532 14.2669 15.3304 14.8554 15.7646 15.4439C16.5602 16.5236 17.1 17.7494 17.3232 19.0807C17.4491 19.8234 17.8468 20.2658 18.4719 20.5865C21.6256 22.1897 24.8037 22.2587 27.9006 20.5297C30.4861 19.0888 31.4927 16.3206 30.9042 12.8179C30.616 11.105 29.9747 9.55047 28.9153 8.16234C28.688 7.86605 27.0199 6.16133 27.5719 5.78386C28.0183 5.47944 29.4186 7.29781 29.6297 7.57381C31.7768 10.4394 32.5034 13.654 31.6591 17.1202C30.8879 20.2861 27.7545 22.4698 24.0163 22.6768C22.1168 22.7823 20.27 22.5591 18.5653 21.6743C17.8225 21.2887 17.6723 21.4957 17.652 22.2466C17.441 29.792 8.64542 31.3181 3.76262 28.4404C3.47038 28.2699 3.01173 28.2131 3.24714 27.8194C3.53126 27.3526 3.77885 28.0183 4.09544 28.1887C6.03152 29.2603 8.24359 29.1872 10.3826 28.8584C15.3872 28.0954 17.6967 24.2801 16.3816 19.0847C15.8986 17.1771 14.8676 15.59 13.5647 14.1573C12.0792 12.5297 10.5125 10.967 9.74131 8.82394C9.58707 8.40182 9.27048 8.15017 8.78342 8.17452C8.35724 8.19482 8.08124 8.42211 7.94324 8.80364C7.11523 11.1131 5.36992 12.757 3.79509 14.5185C1.84684 16.6981 0.893008 19.2227 0.970126 22.1573C1.00666 23.5698 1.10813 25.1162 1.93207 26.277C2.15937 26.5977 2.86155 26.7478 2.39478 27.0847C1.85496 27.4703 1.86307 26.7722 1.59925 26.4434C0.880831 25.5464 0.913302 24.5723 0.515534 23.5292C0.515534 22.4454 0.349121 21.5281 0.349121 20.4485Z" fill="black"/>
<g id="Group_2">
<path id="Vector_2" d="M23.2085 15.3668C22.7012 15.3911 22.3156 15.2491 21.9868 14.9893C21.7433 14.7945 21.378 14.5916 21.6053 14.1978C21.8326 13.8001 22.1451 13.9503 22.4373 14.1654C22.8838 14.4982 23.3425 14.5023 23.8173 14.2222C24.1258 14.0396 24.4749 13.6905 24.7144 14.2425C24.9051 14.689 24.4992 14.9 24.1908 15.0908C23.8701 15.2897 23.5211 15.4155 23.2085 15.3668Z" fill="black"/>
</g>
<g id="Group_3">
<path id="Vector_3" d="M8.66171 22.5956C8.48312 22.5307 8.11376 22.4495 7.79717 22.275C7.48464 22.1005 7.08281 21.861 7.29387 21.4145C7.55364 20.8706 7.89864 21.244 8.199 21.4308C8.67794 21.7311 9.13659 21.6865 9.57901 21.3577C9.87124 21.1385 10.1838 20.9883 10.403 21.4064C10.61 21.8042 10.2568 22.0071 10.0052 22.1979C9.66424 22.4455 9.27459 22.5835 8.66171 22.5956Z" fill="black"/>
</g>
<g id="Group_4">
<path id="Vector_4" d="M28.1886 14.0111C28.1562 14.3764 28.1683 14.8391 27.665 14.8107C27.1617 14.7783 27.2389 14.3034 27.2389 13.9462C27.2389 13.589 27.182 13.1182 27.7259 13.1547C28.2292 13.1872 28.1562 13.654 28.1886 14.0111Z" fill="black"/>
</g>
<g id="Group_5">
<path id="Vector_5" d="M4.76912 21.1263C4.74477 21.5484 4.80159 22.0192 4.29018 22.003C3.81123 21.9868 3.81529 21.5322 3.81935 21.1628C3.82341 20.7975 3.80311 20.3511 4.31859 20.3592C4.86653 20.3714 4.7123 20.8625 4.76912 21.1263Z" fill="black"/>
</g>
<g id="Group_6">
<path id="Vector_6" d="M19.0927 13.8772C19.044 14.3034 19.1333 14.8148 18.63 14.8108C18.1227 14.8067 18.1917 14.2993 18.1957 13.9422C18.1957 13.6296 18.1267 13.1994 18.5773 13.1547C19.1617 13.102 18.9913 13.6296 19.0927 13.8772Z" fill="black"/>
</g>
<g id="Group_7">
<path id="Vector_7" d="M13.8123 21.1101C13.788 21.4672 13.8813 21.9624 13.3943 21.9949C12.8788 22.0274 12.9234 21.5281 12.9234 21.175C12.9275 20.83 12.8423 20.347 13.3943 20.3592C13.8489 20.3714 13.788 20.7935 13.8123 21.1101Z" fill="black"/>
</g>
<g id="Group_8">
<path id="Vector_8" d="M14.6687 27.6895C14.6484 26.9426 14.1857 28.4566 13.4429 28.8463C11.7382 29.7311 9.89144 29.9543 7.99189 29.8488C4.24963 29.6418 1.12025 27.4581 0.349071 24.2922C-0.49517 20.826 0.227306 17.6113 2.3785 14.7458C2.5855 14.4698 3.98986 12.6514 4.43634 12.9558C4.98834 13.3333 3.32015 15.038 3.09286 15.3343C2.02944 16.7184 1.38814 18.2729 1.0959 19.9858C0.507367 23.4886 1.5099 26.2567 4.09945 27.6976C7.19636 29.4226 11.7544 29.52 14.5835 27.0238C15.1111 26.5611 15.6063 26.4394 16.0812 25.8589C16.8321 24.9416 17.0797 23.2775 17.0797 23.2775C17.514 22.689 16.7468 21.4388 16.6819 20.7488C16.4302 18.0091 15.1558 15.7808 13.3009 13.8285C11.8965 12.347 10.5084 10.8493 9.77779 8.88887C9.60326 8.4221 9.31102 8.10145 8.76713 8.12987C8.21107 8.15828 7.98783 8.57228 7.82954 9.00658C7.22883 10.6504 6.10047 11.929 4.95181 13.1953C4.70828 13.4673 2.91021 15.6184 2.50838 15.2897C2.07408 14.9325 3.98986 12.8584 4.23339 12.6027C5.47134 11.2958 6.5307 9.87517 7.20042 8.17857C7.46424 7.51292 8.07713 7.17603 8.79554 7.16792C9.56673 7.15574 10.2202 7.49668 10.4881 8.22322C11.2755 10.3582 12.8138 11.9411 14.3075 13.5647C15.9513 15.3465 17.104 17.3759 17.4896 19.8031C17.5302 20.0588 17.031 20.7935 17.4937 20.9599L16.7428 25.2055L14.6687 27.6895Z" fill="black"/>
</g>
</g>
</g>
<defs>
<clipPath id="clip0_164_2083">
<rect width="32" height="29.8732" fill="white"/>
</clipPath>
</defs>
</svg>
