<svg width="23" height="21" fill="none" xmlns="http://www.w3.org/2000/svg"><g stroke="#485686" stroke-width=".1" stroke-linecap="round" stroke-linejoin="round"><path d="M10.114 4.551c.214.942-.739.341-1.247.379l-.163-.166c.063-.014 1.213-1.079 1.41-.213Z" fill="#748BDE"/><path d="M9.009 3.761c-.985-.162-.613.614-.525 1.028l.525.055c0-.055.863-.94 0-1.083Z" fill="#6C80C6"/><path d="M9.462 5.765c-.937.298-.73-.518-.729-.94L9.24 4.7c.012.053 1.044.806.223 1.066Z" fill="#6C80C6"/><path d="M7.624 4.381c-.259.8.653.549 1.178.387l.13-.163c-.065-.003-1.082-.925-1.308-.224Z" fill="#748BDE"/><path d="M7.816 5.465c.484.619.88-.09 1.093-.508l-.174-.264c-.046.038-1.342.23-.919.772Z" fill="#748BDE"/></g><ellipse cx="8.867" cy="4.767" rx=".394" ry=".325" fill="#9BAFF3"/><mask id="a" fill="#fff"><ellipse cx="8.867" cy="4.767" rx=".262" ry=".216"/></mask><ellipse cx="8.867" cy="4.767" rx=".262" ry=".216" fill="#FCDC8A"/><path d="M8.63 4.767c0-.113.056-.193.104-.232a.21.21 0 0 1 .133-.051v1c.327 0 .762-.235.762-.717h-1Zm.237-.283a.21.21 0 0 1 .133.05c.048.04.105.12.105.233h-1c0 .482.435.717.762.717v-1Zm.238.283A.302.302 0 0 1 9 5a.21.21 0 0 1-.133.051v-1c-.327 0-.762.235-.762.716h1Zm-.238.284a.21.21 0 0 1-.133-.05.302.302 0 0 1-.105-.234h1c0-.481-.435-.716-.762-.716v1Z" fill="#9BAFF3" mask="url(#a)"/><g stroke="#485686" stroke-width=".1" stroke-linecap="round" stroke-linejoin="round"><path d="M16.802 8.78c-.737.636-.655-.478-.931-.901l.07-.221c.043.048 1.538.54.861 1.123Z" fill="#748BDE"/><path d="M16.979 7.445c-.325-.932-.838-.24-1.166.034l.202.481c.048-.025 1.248.302.963-.515Z" fill="#6C80C6"/><path d="M15.41 8.793c-.71-.671.115-.88.49-1.08l.354.38c-.042.034-.22 1.29-.844.7Z" fill="#6C80C6"/><path d="M15.767 6.538c-.835.156-.177.828.217 1.207l.207.036c-.028-.058.309-1.38-.424-1.243Z" fill="#748BDE"/><path d="M14.894 7.222c-.32.714.499.72.973.706l.152-.276c-.056-.022-.844-1.057-1.125-.43Z" fill="#748BDE"/></g><ellipse rx=".39" ry=".328" transform="matrix(.48098 .87673 -.88171 .47179 16.015 7.801)" fill="#9BAFF3"/><mask id="b" fill="#fff"><ellipse rx=".26" ry=".219" transform="matrix(.48098 .87673 -.88171 .47179 16.015 7.801)"/></mask><ellipse rx=".26" ry=".219" transform="matrix(.48098 .87673 -.88171 .47179 16.015 7.801)" fill="#FCDC8A"/><path d="M15.9 7.59a.302.302 0 0 1 .25-.017c.058.022.094.06.114.096l-.882.471c.161.294.58.551.999.328L15.9 7.59Zm.364.079c.019.035.031.085.019.146a.295.295 0 0 1-.152.197l-.481-.877c-.418.224-.43.712-.268 1.005l.882-.471Zm-.133.343a.302.302 0 0 1-.25.018.217.217 0 0 1-.114-.096l.882-.472c-.161-.293-.58-.55-.999-.327l.48.877Zm-.364-.078a.213.213 0 0 1-.02-.146.295.295 0 0 1 .153-.197l.481.877c.418-.224.43-.712.268-1.006l-.882.472Z" fill="#9BAFF3" mask="url(#b)"/><g stroke="#485686" stroke-width=".1" stroke-linecap="round" stroke-linejoin="round"><path d="M3.769 10.244c-.47.847-.782-.226-1.19-.53l-.01-.23c.056.03 1.631-.018 1.2.76Z" fill="#748BDE"/><path d="M3.468 8.93c-.63-.764-.87.06-1.082.43l.358.382c.036-.04 1.276-.141.724-.812Z" fill="#6C80C6"/><path d="M2.467 10.73c-.902-.388-.2-.865.082-1.18l.465.235c-.028.047.244 1.285-.547.945Z" fill="#6C80C6"/><path d="M2.014 8.491c-.73.432.123.838.625 1.06l.207-.037c-.047-.045-.192-1.4-.832-1.023Z" fill="#748BDE"/><path d="M1.433 9.43c-.051.78.72.507 1.16.332l.047-.311c-.06-.001-1.162-.704-1.207-.02Z" fill="#748BDE"/></g><ellipse rx=".392" ry=".326" transform="matrix(.75443 .65638 -.66567 .74625 2.688 9.593)" fill="#9BAFF3"/><mask id="c" fill="#fff"><ellipse rx=".261" ry=".218" transform="matrix(.75443 .65638 -.66567 .74625 2.688 9.593)"/></mask><ellipse rx=".261" ry=".218" transform="matrix(.75443 .65638 -.66567 .74625 2.688 9.593)" fill="#FCDC8A"/><path d="M2.508 9.436a.304.304 0 0 1 .231-.104.215.215 0 0 1 .137.05l-.665.746c.25.218.734.32 1.052-.036l-.755-.656Zm.368-.054a.21.21 0 0 1 .068.128.296.296 0 0 1-.075.24l-.755-.657c-.318.357-.153.818.097 1.035l.665-.746Zm-.007.368a.304.304 0 0 1-.231.104.215.215 0 0 1-.138-.05l.666-.747c-.25-.217-.734-.32-1.052.036l.755.657Zm-.369.054a.21.21 0 0 1-.067-.128.296.296 0 0 1 .075-.24l.755.656c.317-.356.153-.817-.097-1.035l-.666.747Z" fill="#9BAFF3" mask="url(#c)"/><g stroke="#485686" stroke-width=".1" stroke-linecap="round" stroke-linejoin="round"><path d="M5.078 4.413c-.47.847-.782-.226-1.189-.53l-.01-.23c.056.03 1.631-.018 1.2.76Z" fill="#748BDE"/><path d="M4.778 3.1c-.63-.765-.87.06-1.082.428l.357.383c.037-.04 1.277-.141.725-.812Z" fill="#6C80C6"/><path d="M3.776 4.899c-.902-.388-.2-.865.083-1.18l.464.235c-.027.047.244 1.285-.547.945Z" fill="#6C80C6"/><path d="M3.324 2.66c-.73.432.123.838.625 1.06l.207-.037c-.047-.045-.193-1.4-.832-1.023Z" fill="#748BDE"/><path d="M2.743 3.6c-.052.779.72.505 1.16.33l.046-.31c-.06-.001-1.161-.704-1.206-.02Z" fill="#748BDE"/></g><ellipse rx=".392" ry=".326" transform="matrix(.75443 .65638 -.66567 .74625 3.998 3.762)" fill="#9BAFF3"/><mask id="d" fill="#fff"><ellipse rx=".261" ry=".218" transform="matrix(.75443 .65638 -.66567 .74625 3.998 3.762)"/></mask><ellipse rx=".261" ry=".218" transform="matrix(.75443 .65638 -.66567 .74625 3.998 3.762)" fill="#FCDC8A"/><path d="M3.818 3.605a.304.304 0 0 1 .231-.104.215.215 0 0 1 .137.05l-.666.746c.25.218.734.32 1.052-.036l-.754-.656Zm.368-.054a.21.21 0 0 1 .068.128.296.296 0 0 1-.076.24l-.754-.657c-.318.357-.154.818.096 1.035l.666-.746Zm-.008.368a.304.304 0 0 1-.23.104.215.215 0 0 1-.138-.05l.666-.747c-.25-.217-.734-.32-1.052.036l.754.657Zm-.368.054a.21.21 0 0 1-.067-.128.296.296 0 0 1 .075-.24l.754.656c.318-.356.154-.817-.096-1.035l-.666.747Z" fill="#9BAFF3" mask="url(#d)"/><g stroke="#485686" stroke-width=".1" stroke-linecap="round" stroke-linejoin="round"><path d="M12.936 2.54c-.47.847-.782-.226-1.188-.53l-.012-.23c.057.03 1.632-.018 1.2.76Z" fill="#748BDE"/><path d="M12.636 1.226c-.63-.764-.87.06-1.082.429l.357.383c.037-.04 1.277-.142.725-.812Z" fill="#6C80C6"/><path d="M11.634 3.026c-.901-.388-.2-.866.083-1.181l.464.235c-.027.048.244 1.286-.547.946Z" fill="#6C80C6"/><path d="M11.182.787c-.73.432.123.838.625 1.06l.207-.037c-.047-.046-.193-1.401-.832-1.023Z" fill="#748BDE"/><path d="M10.6 1.726c-.05.78.72.506 1.16.332l.047-.311c-.06-.001-1.161-.704-1.206-.02Z" fill="#748BDE"/></g><ellipse rx=".392" ry=".326" transform="matrix(.75443 .65638 -.66567 .74625 11.856 1.889)" fill="#9BAFF3"/><mask id="e" fill="#fff"><ellipse rx=".261" ry=".218" transform="matrix(.75443 .65638 -.66567 .74625 11.856 1.889)"/></mask><ellipse rx=".261" ry=".218" transform="matrix(.75443 .65638 -.66567 .74625 11.856 1.889)" fill="#FCDC8A"/><path d="M11.676 1.732a.304.304 0 0 1 .231-.104.215.215 0 0 1 .137.05l-.665.746c.25.218.733.32 1.051-.036l-.754-.656Zm.368-.054a.21.21 0 0 1 .068.128.296.296 0 0 1-.075.24l-.755-.657c-.318.357-.153.818.097 1.035l.665-.746Zm-.008.368a.304.304 0 0 1-.23.103.215.215 0 0 1-.138-.05l.666-.746c-.25-.217-.734-.32-1.052.036l.755.657Zm-.368.053a.21.21 0 0 1-.067-.128.296.296 0 0 1 .075-.24l.754.657c.318-.356.154-.817-.096-1.035l-.666.746Z" fill="#9BAFF3" mask="url(#e)"/><g stroke="#485686" stroke-width=".1" stroke-linecap="round" stroke-linejoin="round"><path d="M22.628 6.378c-.04.965-.802.14-1.303.047l-.114-.202c.065.003 1.454-.731 1.417.155Z" fill="#748BDE"/><path d="M21.768 5.333c-.908-.408-.753.436-.777.859l.493.186c.014-.052 1.08-.687.284-1.045Z" fill="#6C80C6"/><path d="M21.68 7.385c-.982.048-.568-.688-.457-1.094l.522.007c-.003.054.797 1.045-.065 1.087Z" fill="#6C80C6"/><path d="M20.268 5.578c-.46.706.487.697 1.036.674l.17-.123c-.063-.02-.804-1.17-1.206-.551Z" fill="#748BDE"/><path d="M20.17 6.674c.304.72.872.137 1.188-.212l-.098-.3c-.055.026-1.358-.12-1.09.512Z" fill="#748BDE"/></g><ellipse rx=".393" ry=".325" transform="matrix(.96672 .25582 -.26185 .9651 21.367 6.269)" fill="#9BAFF3"/><mask id="f" fill="#fff"><ellipse rx=".262" ry=".217" transform="matrix(.96672 .25582 -.26185 .9651 21.367 6.269)"/></mask><ellipse rx=".262" ry=".217" transform="matrix(.96672 .25582 -.26185 .9651 21.367 6.269)" fill="#FCDC8A"/><path d="M21.137 6.208a.304.304 0 0 1 .162-.198.211.211 0 0 1 .143-.015l-.262.965c.316.084.798-.032.924-.496l-.967-.256Zm.305-.213c.036.01.08.034.115.083a.3.3 0 0 1 .04.251l-.966-.255c-.127.464.232.802.549.886l.262-.965Zm.155.334a.304.304 0 0 1-.162.198.211.211 0 0 1-.142.015l.262-.965c-.317-.084-.799.032-.924.497l.966.255Zm-.304.213a.208.208 0 0 1-.115-.083.3.3 0 0 1-.04-.251l.966.256c.126-.465-.233-.803-.55-.887l-.26.965Z" fill="#9BAFF3" mask="url(#f)"/><g stroke="#485686" stroke-width=".1" stroke-linecap="round" stroke-linejoin="round"><path d="M15.771 12.938c.04.965.803.14 1.304.047l.114-.202c-.065.003-1.454-.732-1.418.155Z" fill="#748BDE"/><path d="M16.632 11.893c.908-.409.752.436.776.859l-.493.186c-.014-.052-1.08-.687-.283-1.045Z" fill="#6C80C6"/><path d="M16.72 13.944c.982.048.568-.687.457-1.094l-.523.007c.004.055-.796 1.045.065 1.087Z" fill="#6C80C6"/><path d="M18.132 12.138c.46.706-.487.696-1.037.674l-.169-.124c.063-.02.803-1.17 1.206-.55Z" fill="#748BDE"/><path d="M18.23 13.234c-.305.72-.873.137-1.188-.212l.098-.3c.054.026 1.357-.12 1.09.512Z" fill="#748BDE"/></g><ellipse rx=".393" ry=".325" transform="matrix(-.96672 .25582 .26185 .9651 17.032 12.828)" fill="#9BAFF3"/><mask id="g" fill="#fff"><ellipse rx=".262" ry=".217" transform="matrix(-.96672 .25582 .26185 .9651 17.032 12.828)"/></mask><ellipse rx=".262" ry=".217" transform="matrix(-.96672 .25582 .26185 .9651 17.032 12.828)" fill="#FCDC8A"/><path d="M17.262 12.768a.304.304 0 0 0-.162-.198.211.211 0 0 0-.142-.015l.262.965c-.317.084-.799-.032-.925-.497l.967-.255Zm-.304-.213a.208.208 0 0 0-.115.083.3.3 0 0 0-.04.251l.966-.256c.126.465-.233.803-.55.887l-.261-.965Zm-.156.334c.03.11.106.172.163.198a.21.21 0 0 0 .141.015l-.261-.965c.316-.084.798.032.924.496l-.967.256Zm.304.213a.21.21 0 0 0 .116-.083.3.3 0 0 0 .04-.251l-.967.255c-.126-.464.233-.803.55-.886l.261.965Z" fill="#9BAFF3" mask="url(#g)"/><g stroke="#485686" stroke-width=".1" stroke-linecap="round" stroke-linejoin="round"><path d="M6.017 6.783c.04.965.802.14 1.303.047l.114-.202c-.065.003-1.454-.731-1.417.155Z" fill="#748BDE"/><path d="M6.877 5.738c.908-.408.752.436.776.859l-.492.186c-.015-.052-1.08-.687-.284-1.045Z" fill="#6C80C6"/><path d="M6.964 7.79c.983.047.569-.688.458-1.095l-.522.007c.003.055-.797 1.045.064 1.087Z" fill="#6C80C6"/><path d="M8.377 5.983c.46.706-.487.696-1.037.674l-.169-.124c.063-.02.803-1.17 1.206-.55Z" fill="#748BDE"/><path d="M8.475 7.079c-.305.72-.873.137-1.188-.212l.098-.3c.054.026 1.357-.12 1.09.512Z" fill="#748BDE"/></g><ellipse rx=".393" ry=".325" transform="matrix(-.96672 .25582 .26185 .9651 7.277 6.673)" fill="#9BAFF3"/><mask id="h" fill="#fff"><ellipse rx=".262" ry=".217" transform="matrix(-.96672 .25582 .26185 .9651 7.277 6.673)"/></mask><ellipse rx=".262" ry=".217" transform="matrix(-.96672 .25582 .26185 .9651 7.277 6.673)" fill="#FCDC8A"/><path d="M7.507 6.613a.304.304 0 0 0-.162-.198.211.211 0 0 0-.142-.015l.262.965c-.316.084-.799-.032-.925-.497l.967-.255ZM7.203 6.4a.208.208 0 0 0-.115.083.3.3 0 0 0-.04.251l.966-.256c.126.465-.233.803-.549.887L7.203 6.4Zm-.156.334c.03.11.106.172.163.198a.21.21 0 0 0 .142.015l-.262-.965c.316-.084.798.032.924.496l-.967.256Zm.305.213a.208.208 0 0 0 .115-.083.3.3 0 0 0 .04-.251l-.967.255c-.125-.464.233-.802.55-.886l.262.965Z" fill="#9BAFF3" mask="url(#h)"/><g stroke="#485686" stroke-width=".1" stroke-linecap="round" stroke-linejoin="round"><path d="M10.488 10.133c.04-.965.802-.14 1.303-.047l.114.202c-.065-.003-1.454.731-1.417-.155Z" fill="#748BDE"/><path d="M11.348 11.178c.908.408.752-.436.776-.859l-.492-.186c-.015.052-1.08.687-.284 1.045Z" fill="#6C80C6"/><path d="M11.435 9.126c.983-.048.57.688.458 1.094l-.522-.007c.003-.054-.797-1.045.064-1.087Z" fill="#6C80C6"/><path d="M12.848 10.933c.46-.706-.487-.697-1.037-.674l-.169.123c.063.02.803 1.17 1.206.551Z" fill="#748BDE"/><path d="M12.946 9.837c-.305-.72-.873-.137-1.188.212l.098.3c.054-.026 1.357.12 1.09-.512Z" fill="#748BDE"/></g><ellipse rx=".393" ry=".325" transform="matrix(-.96672 -.25582 .26185 -.9651 11.748 10.242)" fill="#9BAFF3"/><mask id="i" fill="#fff"><ellipse rx=".262" ry=".217" transform="matrix(-.96672 -.25582 .26185 -.9651 11.748 10.242)"/></mask><ellipse rx=".262" ry=".217" transform="matrix(-.96672 -.25582 .26185 -.9651 11.748 10.242)" fill="#FCDC8A"/><path d="M11.978 10.303a.304.304 0 0 1-.162.198.21.21 0 0 1-.142.015l.262-.965c-.316-.084-.799.032-.925.496l.967.256Zm-.304.213a.208.208 0 0 1-.115-.083.3.3 0 0 1-.04-.251l.966.255c.126-.464-.233-.802-.549-.886l-.262.965Zm-.155-.334a.304.304 0 0 1 .162-.198.211.211 0 0 1 .142-.015l-.262.965c.316.084.798-.032.924-.497l-.966-.255Zm.304-.213c.036.01.08.034.115.083a.3.3 0 0 1 .04.251l-.966-.256c-.126.465.232.803.549.887l.262-.965Z" fill="#9BAFF3" mask="url(#i)"/><g stroke="#485686" stroke-width=".1" stroke-linecap="round" stroke-linejoin="round"><path d="M14.18 5.502c-.215-.942.738-.341 1.246-.379l.163.166c-.063.014-1.213 1.079-1.41.213Z" fill="#748BDE"/><path d="M15.285 6.292c.984.162.612-.614.525-1.028l-.525-.055c0 .055-.863.94 0 1.083Z" fill="#6C80C6"/><path d="M14.831 4.288c.937-.298.73.518.729.94l-.506.126c-.011-.053-1.044-.806-.223-1.066Z" fill="#6C80C6"/><path d="M16.67 5.672c.258-.8-.654-.549-1.179-.387l-.13.163c.065.003 1.082.925 1.308.224Z" fill="#748BDE"/><path d="M16.477 4.588c-.483-.619-.879.09-1.092.508l.173.264c.046-.038 1.343-.23.919-.772Z" fill="#748BDE"/></g><ellipse cx="15.426" cy="5.286" rx=".394" ry=".325" transform="rotate(-180 15.426 5.286)" fill="#9BAFF3"/><mask id="j" fill="#fff"><ellipse cx="15.426" cy="5.286" rx=".262" ry=".216" transform="rotate(-180 15.426 5.286)"/></mask><ellipse cx="15.426" cy="5.286" rx=".262" ry=".216" transform="rotate(-180 15.426 5.286)" fill="#FCDC8A"/><path d="M15.664 5.286a.302.302 0 0 1-.105.232.21.21 0 0 1-.133.051v-1c-.326 0-.762.235-.762.717h1Zm-.238.283a.209.209 0 0 1-.132-.05.302.302 0 0 1-.105-.233h1c0-.482-.436-.717-.763-.717v1Zm-.237-.283c0-.114.057-.194.105-.233a.209.209 0 0 1 .132-.051v1c.327 0 .763-.235.763-.716h-1Zm.237-.284a.21.21 0 0 1 .133.05c.048.04.105.12.105.234h-1c0 .481.436.716.762.716v-1Z" fill="#9BAFF3" mask="url(#j)"/></svg>