<svg width="59" height="86" fill="none" xmlns="http://www.w3.org/2000/svg"><path d="M37.074 40.59H21.876v43.278h15.198V40.59Z" fill="#907442"/><path d="M35.037 55.646c-.288 2.735-.239 5.52-.239 8.264 0 2.976-.09 6.052.502 8.977a17.649 17.649 0 0 0 1.774 4.899v2.429a18.938 18.938 0 0 1-3.032-7.253c-.577-3.063-.503-6.245-.503-9.367 0-5.114-.514-11.443 3.1-15.57a.593.593 0 0 1 .44-.216v1.67c-1.301 1.796-1.828 3.981-2.042 6.167Z" fill="#826334"/><path d="M33.691 51.375c-2.136 5.81-3.029 11.846-2.124 18.012a35.19 35.19 0 0 0 5.507 14.419v.062h-1.46a35.488 35.488 0 0 1-3.392-6.835 36.685 36.685 0 0 1-1.889-17.953c.481-3.369 1.572-6.556 2.79-9.735 1.02-2.698 2.05-5.454 3.963-7.659v2.039c-1.572 2.295-2.465 5.08-3.395 7.65Z" fill="#826334"/><path d="M29.72 83.868c-.391-5.19-1.296-10.303-1.585-15.52-.366-6.392.62-12.733 1.749-19 .589-3.266 1.634-6.244 3.82-8.76h-1.61a17.154 17.154 0 0 0-3.016 6.456c-.741 3.141-1.206 6.379-1.634 9.57a63.052 63.052 0 0 0-.654 9.723c.126 3.295.416 6.581.868 9.847.31 2.557.62 5.115.803 7.684h1.259ZM23.748 83.868h-1.255l-.568-6.394c0-.2-.037-.39-.05-.594v-7.037c.754 2.238 1.046 4.568 1.24 7 .209 2.342.432 4.683.633 7.025Z" fill="#826334"/><path d="M24.954 71.31c.62 4.165 1.222 8.343 1.284 12.558h-1.259c-.087-5.698-1.079-11.343-1.984-16.938a138.656 138.656 0 0 0-1.12-6.051V55.22l.227.875c.152.593.264 1.19.403 1.782 1.37-5.757 3.618-11.39 4.096-17.29h1.24c-.515 6.672-3.268 12.988-4.552 19.545a.458.458 0 0 1-.226.343c.747 3.6 1.327 7.216 1.891 10.834Z" fill="#826334"/><path d="M53.766 36.035c-.335-.453-.93-.99-1.054-1.527-.106-.465.276-1.024.45-1.446a23.576 23.576 0 0 0 1.453-4.37c.62-3.039.648-6.245-.48-9.199-.82-2.1-2.11-3.98-3.768-5.497a14.544 14.544 0 0 0-5.797-3.245C44.493 4.306 36.943-.34 29.85.019c-3.907.197-7.813 1.596-10.3 4.403a11.063 11.063 0 0 0-1.829 2.885 17.822 17.822 0 0 0-5.177 3.775 16.346 16.346 0 0 0-4.168 7.805 16.42 16.42 0 0 0 .5 8.849C1.621 33.63-1.73 43.734.88 52.21a13.487 13.487 0 0 0 4.336 6.534 13.337 13.337 0 0 0 7.216 2.99c.9.093 1.86.015 2.626.508 1.017.675 1.798 1.664 2.821 2.367a16.155 16.155 0 0 0 6.294 2.57c4.765.842 9.807 0 13.67-2.72.486-.334.95-.697 1.392-1.09a5.56 5.56 0 0 0 .48-.456l.127-.146c1.089.15 2.133.58 3.234.73a13.65 13.65 0 0 0 7.788-1.29 14.163 14.163 0 0 0 5.487-4.63 14.298 14.298 0 0 0 2.53-6.744c.522-5.254-1.928-10.487-5.115-14.8Z" fill="#5C7343"/><path d="M45.085 48.324a.642.642 0 0 0-.62.624 9.59 9.59 0 0 1-.08 1.303c0 .047 0 .096-.023.143a.678.678 0 0 0 .063.487.622.622 0 0 0 .627.311.619.619 0 0 0 .231-.083.603.603 0 0 0 .289-.378c.102-.588.152-1.185.148-1.782a.63.63 0 0 0-.393-.582.617.617 0 0 0-.242-.043ZM25.184 19.337a.634.634 0 0 0-.444-.184.643.643 0 0 0-.62.624c-.05.643-.102 1.29-.155 1.933a.63.63 0 0 0 .186.45.62.62 0 0 0 1.073-.45c.05-.643.102-1.29.155-1.933a.646.646 0 0 0-.195-.44ZM16.596 16.108a.642.642 0 0 0-.623-.31.618.618 0 0 0-.527.46c-.143.796-.285 1.59-.425 2.386a.69.69 0 0 0 .062.49.622.622 0 0 0 .627.324.618.618 0 0 0 .523-.477c.14-.793.282-1.588.425-2.385a.682.682 0 0 0-.062-.488ZM22.766 11.79a.646.646 0 0 0-.376-.29.636.636 0 0 0-.486.066.624.624 0 0 0-.289.377c-.12.762-.223 1.53-.31 2.298a.627.627 0 0 0 .62.625.643.643 0 0 0 .447-.184.736.736 0 0 0 .183-.45c.037-.35.08-.702.124-1.052.043-.312.087-.606.133-.909a.708.708 0 0 0-.046-.48ZM30.935 7.66a.645.645 0 0 0-.375-.29.631.631 0 0 0-.775.443c-.112.757-.17 1.522-.174 2.288a.628.628 0 1 0 1.259 0 14 14 0 0 1 .127-1.939.706.706 0 0 0-.062-.502ZM39.628 11.416a.619.619 0 0 0-.89 0 .718.718 0 0 0-.182.446l-.146 1.48a.629.629 0 0 0 .186.447.619.619 0 0 0 .887 0 .72.72 0 0 0 .186-.447l.142-1.48a.63.63 0 0 0-.183-.446ZM34.218 17.207a.62.62 0 0 0-1.073.447c-.062.709-.127 1.418-.189 2.123a.627.627 0 0 0 .62.625.646.646 0 0 0 .62-.625l.187-2.123a.628.628 0 0 0-.165-.447ZM47.522 15.993a.637.637 0 0 0-.623-.309.618.618 0 0 0-.236.081.6.6 0 0 0-.288.378c-.09.588-.214 1.17-.372 1.742a.638.638 0 0 0 .438.78.625.625 0 0 0 .774-.443c.158-.573.282-1.154.372-1.742a.698.698 0 0 0-.065-.487ZM43.023 22.122a.622.622 0 0 0-.443-.187.646.646 0 0 0-.447.187.712.712 0 0 0-.183.447c-.024.265-.055.527-.09.79-.049.35-.102.696-.167 1.042a.697.697 0 0 0 .062.487.622.622 0 0 0 .627.325.618.618 0 0 0 .523-.475c.135-.718.238-1.441.31-2.17a.628.628 0 0 0-.192-.446ZM31.44 25.894a.619.619 0 0 0-.89 0 .746.746 0 0 0-.182.446c-.075.625-.146 1.25-.217 1.874a.63.63 0 0 0 .869.59.62.62 0 0 0 .203-.14.765.765 0 0 0 .183-.45c.072-.625.146-1.25.217-1.874a.627.627 0 0 0-.183-.446ZM13.254 25.198a.623.623 0 0 0-.627-.311.619.619 0 0 0-.232.082.603.603 0 0 0-.288.378l-.289 1.808a.707.707 0 0 0 .062.49.626.626 0 0 0 .384.296.614.614 0 0 0 .478-.07.624.624 0 0 0 .288-.379l.289-1.808a.681.681 0 0 0-.065-.486ZM22.809 28.92a.646.646 0 0 0-.62-.311.618.618 0 0 0-.527.463l-.378 2.123a.707.707 0 0 0 .065.49.622.622 0 0 0 .625.32.617.617 0 0 0 .522-.472l.378-2.127a.701.701 0 0 0-.065-.487ZM37.948 30.668a.648.648 0 0 0-.62.625l-.084 2.313c0 .165.066.324.182.441a.618.618 0 0 0 .438.183.64.64 0 0 0 .62-.624c.028-.771.053-1.543.08-2.314a.627.627 0 0 0-.18-.44.618.618 0 0 0-.436-.184ZM50.917 26.437a.638.638 0 0 0-.775.443l-.4 1.811a.638.638 0 0 0 .438.78.625.625 0 0 0 .774-.442l.4-1.814a.648.648 0 0 0-.437-.778ZM29.41 38.448a.624.624 0 0 0-.63-.312.617.617 0 0 0-.232.084.624.624 0 0 0-.289.378c-.093.625-.183 1.25-.276 1.874a.68.68 0 0 0 .062.487.652.652 0 0 0 .375.293.638.638 0 0 0 .776-.443c.09-.625.183-1.25.276-1.874a.682.682 0 0 0-.062-.487ZM15.796 35.26a.638.638 0 0 0-.772.444 7.08 7.08 0 0 0-.31 1.645c0 .168.066.328.183.447.12.117.28.184.446.187a.637.637 0 0 0 .444-.187.699.699 0 0 0 .186-.447c0-.1 0-.2.027-.296a6.2 6.2 0 0 1 .224-1.012.647.647 0 0 0-.428-.78ZM7.295 36.032a.638.638 0 0 0-.775.443 7.065 7.065 0 0 0-.289 1.905c0 .167.066.328.184.447a.625.625 0 0 0 1.072-.447c0-.222.025-.444.05-.665.044-.305.11-.607.195-.903a.644.644 0 0 0-.437-.78ZM10.5 44.565a.623.623 0 0 0-.626-.325.618.618 0 0 0-.524.475 18.61 18.61 0 0 0-.248 2.416c0 .166.066.325.182.442a.618.618 0 0 0 .438.183.64.64 0 0 0 .62-.625c.019-.546.066-1.09.134-1.633.021-.15.043-.296.068-.446a.698.698 0 0 0-.043-.487ZM21.005 43.02a.62.62 0 0 0-.887 0 .74.74 0 0 0-.186.446 28.376 28.376 0 0 0-.155 2.057.627.627 0 0 0 .62.625.64.64 0 0 0 .62-.625c.025-.686.078-1.372.158-2.057a.627.627 0 0 0-.17-.447ZM38.072 42.31a.633.633 0 0 0-.89 0l-.099.129a.628.628 0 0 0-.084.312l-.192 1.739a.628.628 0 0 0 1.073.447l.099-.128a.629.629 0 0 0 .084-.313c.065-.577.127-1.158.192-1.739a.628.628 0 0 0-.183-.446ZM46.71 33.94a.62.62 0 0 0-.376-.29.616.616 0 0 0-.772.443c-.132.67-.202 1.35-.21 2.032a.618.618 0 0 0 .62.624.64.64 0 0 0 .62-.624c.003-.403.03-.805.083-1.205.025-.165.05-.328.081-.493a.666.666 0 0 0-.047-.487ZM52.833 40.971a.638.638 0 0 0-.772.444 24.04 24.04 0 0 0-.478 2.81.628.628 0 0 0 .627.633.646.646 0 0 0 .62-.624c0-.112.024-.222.04-.334 0-.031.025-.225 0-.063 0-.05.015-.103.022-.153a23.159 23.159 0 0 1 .366-1.914.65.65 0 0 0-.425-.799ZM54.448 53.148a.624.624 0 0 0-.624-.321.619.619 0 0 0-.523.47 52.06 52.06 0 0 1-.394 2.009.637.637 0 0 0 .44.777.624.624 0 0 0 .772-.443 43.45 43.45 0 0 0 .394-2.005.698.698 0 0 0-.065-.487ZM30.712 48.777a.634.634 0 0 0-.772.44c-.217.864-.378 1.741-.48 2.626a.618.618 0 0 0 .62.624.642.642 0 0 0 .446-.184.764.764 0 0 0 .183-.45l.018-.155v-.05c0-.094.025-.188.04-.278a18.973 18.973 0 0 1 .366-1.805.629.629 0 0 0-.421-.768ZM14.447 51.93a.635.635 0 0 0-.772.44 14.546 14.546 0 0 0-.34 2.102.618.618 0 0 0 1.064.44.7.7 0 0 0 .185-.446c0-.163.034-.313.052-.481.06-.432.14-.86.242-1.283a.648.648 0 0 0-.43-.772ZM25.14 57.757a.62.62 0 0 0-.89 0 .648.648 0 0 0-.182.446 9.524 9.524 0 0 1-.06 1.545.628.628 0 0 0 .184.447.62.62 0 0 0 .686.14.62.62 0 0 0 .203-.14l.097-.128a.598.598 0 0 0 .086-.312c.063-.513.084-1.03.063-1.546a.683.683 0 0 0-.187-.453ZM40.63 56.14a.642.642 0 0 0-.627-.308.617.617 0 0 0-.235.082.733.733 0 0 0-.288.378c-.246.63-.371 1.3-.37 1.977a.636.636 0 0 0 .63.633.636.636 0 0 0 .63-.634 4.205 4.205 0 0 1 .31-1.639.66.66 0 0 0-.05-.49Z" fill="#809863"/><path d="M21.305 81.124a.388.388 0 0 0-.53.14 23.521 23.521 0 0 0-1.076 3.013.393.393 0 0 0 .28.444.386.386 0 0 0 .464-.238c.267-.964.601-1.908.999-2.826a.408.408 0 0 0-.137-.533ZM22.412 81.017a13.898 13.898 0 0 0-1.32 3.435c-.115.484.62.693.743.206a13.076 13.076 0 0 1 1.24-3.247c.249-.437-.424-.83-.663-.394ZM24.424 80.724l-1.265 3.79c-.161.475.586.681.744.207l1.28-3.785c.143-.48-.6-.684-.759-.212ZM27.11 80.852a.391.391 0 0 0-.475.272l-1.175 3.4a.391.391 0 0 0 .27.477.383.383 0 0 0 .474-.271l1.175-3.4a.396.396 0 0 0-.27-.478ZM28.541 81.211l-1.296 3.86c-.16.474.583.677.745.205l1.296-3.859c.16-.48-.586-.677-.745-.206ZM31.211 81.017a.395.395 0 0 0-.474.272c-.372 1.13-.746 2.26-1.123 3.39a.39.39 0 0 0 .27.478.383.383 0 0 0 .474-.271c.377-1.13.75-2.26 1.123-3.39a.392.392 0 0 0-.27-.479ZM33.462 81.008a.395.395 0 0 0-.475.272 51.834 51.834 0 0 0-1.044 3.394.393.393 0 0 0 .278.444.385.385 0 0 0 .466-.238 50.177 50.177 0 0 1 1.044-3.394.396.396 0 0 0-.27-.478ZM35.313 81.264a.394.394 0 0 0-.478.272 298.222 298.222 0 0 1-1.262 3.434.392.392 0 0 0 .27.478.391.391 0 0 0 .474-.272c.414-1.149.834-2.294 1.262-3.434a.393.393 0 0 0-.266-.478ZM36.813 81.323a.388.388 0 0 0-.474.272 9.865 9.865 0 0 1-1.11 3.4c-.239.437.428.83.666.39a10.408 10.408 0 0 0 1.188-3.575.399.399 0 0 0-.27-.487Z" fill="#A3B971"/></svg>