<svg width="63" height="119" fill="none" xmlns="http://www.w3.org/2000/svg"><path d="M36.953 60.129h-15.21v56.169h15.21v-56.17Z" fill="#907442"/><path d="M34.916 79.674c-.292 3.55-.242 7.166-.242 10.728 0 3.862-.087 7.853.505 11.649.334 2.184.93 4.318 1.773 6.357v3.154a28.874 28.874 0 0 1-3.032-9.411c-.58-3.977-.502-8.118-.502-12.158 0-6.638-.518-14.852 3.1-20.207a.555.555 0 0 1 .44-.281v2.186c-1.301 2.288-1.828 5.145-2.042 7.983Z" fill="#826334"/><path d="M33.567 74.126c-2.14 7.54-3.032 15.377-2.124 23.38a54.487 54.487 0 0 0 5.51 18.699v.081h-1.46a52.891 52.891 0 0 1-3.396-8.871A60.86 60.86 0 0 1 30.21 84.12c.478-4.371 1.572-8.527 2.79-12.636 1.017-3.497 2.05-7.081 3.963-9.938v2.645c-1.569 2.994-2.462 6.6-3.395 9.935Z" fill="#826334"/><path d="M29.592 116.298c-.39-6.734-1.296-13.388-1.584-20.141-.366-8.296.602-16.527 1.749-24.666.589-4.237 1.633-8.1 3.822-11.369H31.97a25.615 25.615 0 0 0-3.02 8.38c-.74 4.06-1.209 8.28-1.636 12.421-.47 4.189-.688 8.402-.655 12.617.078 4.287.469 8.543.868 12.78.33 3.319.62 6.638.806 9.972l1.26.006ZM23.615 116.298h-1.259c-.186-2.775-.375-5.535-.564-8.295 0-.263-.037-.509-.05-.772v-9.135c.754 2.906 1.042 5.932 1.256 9.085.201 3.038.415 6.079.617 9.117Z" fill="#826334"/><path d="M24.824 100c.62 5.408 1.221 10.828 1.284 16.298h-1.26c-.086-7.393-1.081-14.718-1.987-21.98a231.052 231.052 0 0 0-1.119-7.853v-7.344c.075.378.149.756.226 1.134.15.771.264 1.542.404 2.317 1.37-7.475 3.62-14.788 4.101-22.443h1.24c-.514 8.658-3.27 16.86-4.554 25.365a.605.605 0 0 1-.226.443c.747 4.665 1.324 9.367 1.89 14.063Z" fill="#826334"/><path d="M1.782 66.155c.781-1.927 1.73-3.894 1.839-6.017.12-2.376-.468-4.715-.738-7.06a31.327 31.327 0 0 1 1.383-13.257 31.616 31.616 0 0 1 2.852-6.3c1.172-1.958 2.514-3.8 3.72-5.73 2.447-3.89 3.801-8.224 5.417-12.52 1.454-3.865 3.202-7.628 6.017-10.616C25.156 1.583 28.938-.222 33.1.022c2.313.131 4.57.734 6.796 1.358.197.053.38.147.54.275 6.752 1.66 12.472 7.434 14.205 14.453.561 2.273.639 4.636 1.079 6.934a21.988 21.988 0 0 0 2.118 5.842c1.795 3.55 4.03 7.022 4.65 11.062.695 4.537-.546 8.955-1.479 13.348-.45 2.114-.812 4.246-.76 6.42.056 2.304.677 4.52 1.176 6.75.955 4.259 1.079 8.533-.217 12.739a21.721 21.721 0 0 1-6.344 10.007 21.048 21.048 0 0 1-10.94 4.948c-1.952.26-3.931.225-5.873-.1-2.266-.365-4.449-1.117-6.662-1.71a18.206 18.206 0 0 0-6.403-.687c-2.34.209-4.65.811-6.976 1.033a15.532 15.532 0 0 1-11.006-3.175 17.88 17.88 0 0 1-6.51-10.304c-1.011-4.443-.41-8.892 1.29-13.06Z" fill="#3F7743"/><path d="M27.09 15.755c-.28-.07-.575-.03-.826.113-.25.144-.437.38-.52.658a32.755 32.755 0 0 0-.867 3.188 1.109 1.109 0 0 0 .358 1.203 1.09 1.09 0 0 0 1.75-.62 34.45 34.45 0 0 1 .868-3.187 1.115 1.115 0 0 0-.105-.835 1.102 1.102 0 0 0-.658-.52ZM39.765 13.729a1.182 1.182 0 0 0-.31-.78 1.103 1.103 0 0 0-.772-.313c-.546.025-1.154.487-1.095 1.102.124 1.228.246 2.456.366 3.684.007.289.117.565.31.778.209.2.486.312.775.312.543-.025 1.153-.487 1.091-1.102-.12-1.228-.241-2.455-.365-3.681ZM48.396 23.092a1.106 1.106 0 0 0-.508-.694 1.088 1.088 0 0 0-1.519.423 1.107 1.107 0 0 0-.081.858 16.841 16.841 0 0 1 .598 2.533c0 .075.022.15.034.224v.07c.044.352.072.705.093 1.06.035.266.164.51.364.686a1.09 1.09 0 0 0 1.443 0c.2-.177.329-.42.364-.685a18.292 18.292 0 0 0-.788-4.475ZM17.876 29.384a1.106 1.106 0 0 0-.828.111 1.12 1.12 0 0 0-.517.66l-.844 3.394c-.065.277-.021.57.123.815s.378.425.65.501c.273.076.565.042.814-.093a1.1 1.1 0 0 0 .521-.636l.844-3.397c.072-.282.033-.58-.11-.833a1.115 1.115 0 0 0-.653-.522ZM32.91 27.06a1.116 1.116 0 0 0-.766.33c-.204.204-.322.48-.329.77a27.356 27.356 0 0 1-.18 2.01c-.046.313-.096.66-.152.984-.069.287-.03.59.109.85.146.246.38.427.654.505.533.122 1.24-.162 1.346-.768.21-1.184.347-2.38.409-3.581a1.11 1.11 0 0 0-.322-.776 1.094 1.094 0 0 0-.77-.323ZM46.26 38.014c0-.293-.115-.573-.32-.78a1.09 1.09 0 0 0-1.549 0c-.205.207-.32.487-.32.78l.13 3.484c.015.282.137.547.34.741a1.09 1.09 0 0 0 1.506 0c.203-.194.325-.46.34-.74l-.127-3.485ZM57.623 42.594a1.109 1.109 0 0 0-.661-1.071 1.088 1.088 0 0 0-1.227.254 1.103 1.103 0 0 0-.298.817c.035.668.035 1.336 0 2.005-.016.312-.037.64-.065.961l-.047.478c0 .094-.025.184-.034.278v.065c-.067.287-.029.59.109.85a1.088 1.088 0 0 0 1.498.393 1.061 1.061 0 0 0 .501-.656 22.95 22.95 0 0 0 .224-4.374ZM28.541 41.492a1.116 1.116 0 0 0-.766.329 1.13 1.13 0 0 0-.328.77c-.031 1.261-.063 2.523-.096 3.784.001.291.117.57.321.776.204.205.481.322.77.323a1.11 1.11 0 0 0 .768-.327c.204-.205.32-.482.326-.772l.1-3.784a1.112 1.112 0 0 0-.324-.776 1.097 1.097 0 0 0-.77-.323ZM11.868 46.266a1.112 1.112 0 0 0-.768.329 1.128 1.128 0 0 0-.327.773v4.18c0 .293.116.573.32.78a1.09 1.09 0 0 0 1.549 0c.205-.207.32-.487.32-.78v-4.177a1.121 1.121 0 0 0-.324-.777 1.106 1.106 0 0 0-.77-.328ZM41.79 52.239a1.112 1.112 0 0 0-.767.33c-.203.205-.32.482-.325.772-.06 1.228-.118 2.456-.174 3.684.003.292.119.57.323.777a1.1 1.1 0 0 0 .772.325c.288-.006.562-.124.765-.33.204-.205.32-.482.326-.772.06-1.228.118-2.456.174-3.684a1.116 1.116 0 0 0-.324-.777 1.1 1.1 0 0 0-.77-.325ZM24.48 61.303c0-.293-.116-.573-.32-.78a1.09 1.09 0 0 0-1.549 0c-.205.207-.32.487-.32.78.032.65.032 1.303 0 1.954 0 .313-.037.625-.065.937-.016.156-.031.312-.05.468 0 .031-.037.353-.018.163.018-.19-.019.13-.022.165-.069.286-.03.587.108.846a1.09 1.09 0 0 0 2-.262c.215-1.413.294-2.843.236-4.271ZM50.182 65c-.21-.2-.487-.312-.775-.313a1.11 1.11 0 0 0-.767.33c-.203.205-.32.482-.325.772-.002.397-.026.793-.071 1.187-.06.41-.145.815-.254 1.214a1.11 1.11 0 0 0 .129.81 1.088 1.088 0 0 0 1.458.404 1.1 1.1 0 0 0 .521-.63c.267-.972.402-1.976.403-2.985 0-.295-.115-.578-.32-.79ZM32.755 74.282a1.104 1.104 0 0 0-.652-.506c-.545-.125-1.24.163-1.345.768l-.62 3.082c-.071.287-.031.59.112.85.145.245.378.426.65.505.546.125 1.24-.165 1.346-.768.205-1.027.406-2.058.62-3.085a1.165 1.165 0 0 0-.111-.846ZM7.403 69.595a1.112 1.112 0 0 0-.824.114c-.25.143-.435.377-.518.654a16.529 16.529 0 0 0-.682 2.892c-.068.287-.03.589.108.849.147.246.38.426.654.506a1.106 1.106 0 0 0 1.161-.39c.087-.114.15-.243.185-.381.14-.982.368-1.949.682-2.888a1.118 1.118 0 0 0-.108-.836 1.105 1.105 0 0 0-.658-.52ZM16.019 79.712a1.106 1.106 0 0 0-.77.327 1.122 1.122 0 0 0-.325.775c.023.884-.022 1.77-.133 2.647-.037.25-.074.497-.12.743-.07.287-.03.589.11.847.147.246.381.427.655.505.536.125 1.24-.162 1.343-.768.252-1.309.364-2.641.334-3.974a1.122 1.122 0 0 0-.325-.775 1.106 1.106 0 0 0-.77-.328ZM48.334 80.904c-.288.009-.561.128-.764.333a1.14 1.14 0 0 0-.33.77l-.385 4.08c0 .292.115.572.32.778.204.207.482.324.771.325.288-.008.563-.126.766-.331.204-.205.322-.482.329-.772l.384-4.08c0-.292-.115-.572-.32-.779a1.09 1.09 0 0 0-.771-.324Z" fill="#629B65"/><path d="M21.38 114.453a21.64 21.64 0 0 0-1.492 3.397.394.394 0 0 0 .27.478.39.39 0 0 0 .474-.272c.379-1.108.85-2.182 1.41-3.21.249-.437-.418-.827-.663-.393ZM24.012 114.45a21.48 21.48 0 0 0-1.492 3.397.394.394 0 0 0 .27.478.39.39 0 0 0 .475-.272 20.548 20.548 0 0 1 1.413-3.21c.239-.44-.428-.824-.666-.393ZM29.37 114.178a21.908 21.908 0 0 0-1.492 3.397.393.393 0 0 0 .27.478.39.39 0 0 0 .474-.272 20.538 20.538 0 0 1 1.414-3.209c.238-.441-.428-.831-.667-.394ZM36.937 114.178a21.641 21.641 0 0 0-1.491 3.397.393.393 0 0 0 .27.478.39.39 0 0 0 .474-.272c.378-1.109.85-2.183 1.414-3.209.238-.441-.413-.831-.667-.394ZM27.754 114.544a.387.387 0 0 0-.527.14 19.713 19.713 0 0 0-1.219 2.935.391.391 0 0 0 .27.478.4.4 0 0 0 .15.011.387.387 0 0 0 .324-.283c.307-.945.689-1.864 1.141-2.747a.404.404 0 0 0-.14-.534ZM32.017 114.4a.388.388 0 0 0-.527.141 15.988 15.988 0 0 0-1.188 2.675.393.393 0 0 0 .27.478.392.392 0 0 0 .474-.272c.29-.866.662-1.702 1.11-2.497a.398.398 0 0 0-.14-.525ZM34.798 114.818a.39.39 0 0 0-.474.272 15.503 15.503 0 0 1-1.055 2.36.387.387 0 0 0 .566.51.391.391 0 0 0 .098-.119c.448-.815.828-1.666 1.135-2.545a.394.394 0 0 0-.27-.478Z" fill="#A3B971"/></svg>