<svg width="118" height="34" fill="none" xmlns="http://www.w3.org/2000/svg"><path d="M58.879 19.813s-29.763-.185-36.736 1.61c-6.973 1.796-9.187 2.73-15.31 3.101-6.123.372-10.715 4.899-2.04 5.458 8.675.559 12.755 3.534 28.914 2.541 16.16-.993 15.812 1.983 35.716.993 19.904-.99 37.645-2.185 42.199-3.278 2.79-.668 10.231-4.9 2.046-6.076-8.185-1.177-6.43-1.311-17.204-2.985-10.773-1.674-37.585-1.364-37.585-1.364Z" fill="#B69A67"/><path d="M22.31 8.629c-.018-.856-2.074-.86-2.055 0 .132 6.136.055 12.269-.233 18.4-.04.855 2.015.855 2.056 0 .283-6.133.36-12.266.232-18.4Z" fill="#80653B"/><path d="M20.273 18.383a1.067 1.067 0 0 0-.505-.522l-2.102-1.165c-.704-.39-1.572-.774-2.36-.374a1.207 1.207 0 0 0-.694.912c-.03.285.025.573.158.827.19.403.482.748.847 1.002a5.18 5.18 0 0 0 2.198.737c.192.031.384.062.576.103l.103.022.062.019.062.018c.107.042.218.073.331.094a1.07 1.07 0 0 0 1.132-.684.9.9 0 0 0 .18-.262.968.968 0 0 0 .012-.727Z" fill="#466E44"/><path d="M17.598 15.572a1.068 1.068 0 0 0-.506-.521l-2.102-1.165c-.7-.387-1.572-.774-2.36-.374a1.207 1.207 0 0 0-.694.912c-.03.285.025.573.159.827.19.403.481.748.846 1.002a5.18 5.18 0 0 0 2.198.737c.192.031.385.062.577.103l.102.025h.062l.065.019c.107.042.219.073.332.093a1.064 1.064 0 0 0 1.128-.683.843.843 0 0 0 .18-.263.968.968 0 0 0 .013-.711Z" fill="#3E643C"/><path d="M18.782 14.42a1.065 1.065 0 0 0-.276-.67l-1.528-1.874c-.509-.625-1.176-1.305-2.053-1.224a1.2 1.2 0 0 0-.98.587c-.134.253-.189.542-.158.827.03.446.175.877.422 1.25a5.158 5.158 0 0 0 1.77 1.5c.168.1.335.2.496.313l.09.063.05.037.053.04c.083.081.174.152.272.213a1.07 1.07 0 0 0 1.302-.215.838.838 0 0 0 .264-.178.956.956 0 0 0 .276-.669ZM27.838 13.687c-.576-.625-1.33-.263-1.96.04a10.176 10.176 0 0 0-4.302 4.06.983.983 0 0 0-.022.873.94.94 0 0 0 .177.497.929.929 0 0 0 1.218.243c1.686-1.092 3.767-1.804 4.778-3.69.322-.618.666-1.44.111-2.023Z" fill="#466E44"/><path d="M31.183 13.265c-.58-.624-1.33-.262-1.959.04a10.177 10.177 0 0 0-4.303 4.06.974.974 0 0 0-.022.874c.008.178.07.35.177.493a.93.93 0 0 0 1.215.247c1.69-1.096 3.767-1.805 4.78-3.69.31-.619.64-1.44.112-2.024Z" fill="#3E643C"/><path d="M28.973 9.131c-.58-.624-1.33-.262-1.96.04a10.177 10.177 0 0 0-4.303 4.06.974.974 0 0 0-.022.874c.008.179.07.35.177.493a.93.93 0 0 0 1.216.247c1.69-1.096 3.766-1.805 4.78-3.69.323-.631.651-1.44.112-2.024Z" fill="#466E44"/><path d="M26.747 7.167a.938.938 0 0 0-1.158-.666.963.963 0 0 0-.433.248 15.35 15.35 0 0 0-3.748 5.183.951.951 0 0 0 .288 1.305.933.933 0 0 0 1.296-.29.93.93 0 0 0 .162-.113c.728-.818 1.475-1.62 2.185-2.454.357-.405.679-.84.961-1.302a2.75 2.75 0 0 0 .447-1.91Z" fill="#3E643C"/><path d="M20.438 9.387a1.366 1.366 0 0 0-.106-.424c-.316-.76-.696-1.491-1.134-2.186-.431-.68-.93-1.461-1.68-1.808-.562-.262-1.272-.368-1.768.094-.555.512-.276 1.249 0 1.81a8.722 8.722 0 0 0 1.41 2.018c.596.677 1.24 1.523 2.17 1.717a.958.958 0 0 0 .715-.097.97.97 0 0 0 .448-.568 1.065 1.065 0 0 0-.055-.556Z" fill="#466E44"/><path d="M21.675 7.614a1.412 1.412 0 0 0-.106-.416c-.316-.759-.694-1.49-1.131-2.185-.434-.678-.93-1.458-1.684-1.808-.561-.259-1.271-.368-1.767.094-.555.515-.276 1.249 0 1.81a8.676 8.676 0 0 0 1.41 2.02c.596.678 1.24 1.524 2.17 1.715.242.062.497.028.713-.096a.967.967 0 0 0 .447-.566c.035-.19.017-.387-.052-.568Z" fill="#3E643C"/><path d="M23.581.701a.947.947 0 0 0-.908-.7c-1.327-.062-1.668 1.593-1.86 2.595a11.356 11.356 0 0 0-.137 3.304c.027.196.099.383.211.546a1.16 1.16 0 0 0 .685.625c.506.196.999-.222 1.16-.662.7-1.84 1.144-3.74.85-5.708Z" fill="#466E44"/><path d="M27.708 16.79c-1.063-.312-2.195.347-3.14.765a11.01 11.01 0 0 0-2.577 1.393.848.848 0 0 0-.288.137c-.047-.312-.115-.624-.177-.937a21.981 21.981 0 0 0-.667-2.47 4.41 4.41 0 0 0-.164-.43h.074a.966.966 0 0 0 .567-.44.977.977 0 0 0 .11-.712 6.152 6.152 0 0 0-1.325-2.498 8.634 8.634 0 0 0-2-1.808c-.542-.337-1.354-.662-1.925-.218a1.136 1.136 0 0 0-.387 1.223c.086.257.2.503.34.734a9.529 9.529 0 0 0 2.66 3.091 1.274 1.274 0 0 0-.467.68c-.092.47-.092.952 0 1.421.06.39.165.771.31 1.137.36.88.814 1.717 1.355 2.498a.955.955 0 0 0 1.29.34.998.998 0 0 0 .21-.256c.18.217.437.355.716.387a7.434 7.434 0 0 0 5.085-1.249 3.784 3.784 0 0 0 1.12-1.058 1.167 1.167 0 0 0-.72-1.73Z" fill="#2E542B"/><path d="M27.404 11.086a.963.963 0 0 0-.447-.568.952.952 0 0 0-.713-.094 6.948 6.948 0 0 0-3.99 2.81.962.962 0 0 0 .338 1.299c.19.1.408.136.62.1.89.365 1.944-.272 2.651-.793.865-.637 1.857-1.534 1.541-2.754ZM26.303 4.332a1.198 1.198 0 0 0-1.24-.521c-.493.1-.883.5-1.24.846-.285.281-.552.58-.8.896-.272.359-.521.734-.747 1.124-.177-1.361-.62-2.707-1.612-3.681a1.742 1.742 0 0 0-1.656-.562 1.427 1.427 0 0 0-.743.558c-.18.264-.266.58-.246.9.034.46.131.915.289 1.349.16.496.354.98.58 1.449.461.955 1.084 1.917 2.145 2.248a.8.8 0 0 0 .483-.02c-.059.053-.113.11-.16.173l-.097.137a.943.943 0 0 0 .695 1.415.954.954 0 0 0 .595-.116c1.578-.98 3.16-2.083 3.782-3.931.15-.444.219-.912.202-1.38a1.698 1.698 0 0 0-.23-.884Z" fill="#2E542B"/><path d="M21.15 20.587a1.981 1.981 0 0 0-1.215-.965.802.802 0 0 0-.124 0 5.592 5.592 0 0 0-.908-.45 3.752 3.752 0 0 0-1.135-.262 1.232 1.232 0 0 0-.911.312 1.19 1.19 0 0 0-.295 1.202 2.905 2.905 0 0 0 1.584 1.711c.39.19.794.343 1.21.46.57.159 1.24.337 1.714-.15.474-.488.369-1.306.08-1.858ZM20.143 16.715a.77.77 0 0 0-.1-.187c-.02-.128-.03-.26-.061-.387v-.122a6.351 6.351 0 0 0-.115-.874 2.503 2.503 0 0 0-.81-1.533 1.69 1.69 0 0 0-.746-.313c-.355-.199-.77-.257-1.166-.162-.206.063-.396.17-.558.312a.434.434 0 0 0-.08.031 1.1 1.1 0 0 0-.339.34 1 1 0 0 0-.096.731 4.95 4.95 0 0 0 .885 2.011 4.907 4.907 0 0 0 1.664 1.424.965.965 0 0 0 .955 0 .78.78 0 0 0 .204-.225.914.914 0 0 0 .214-.237.339.339 0 0 0 .069-.081.941.941 0 0 0 .08-.728ZM24.797 11.754c-.543 0-.952.437-1.318.787a14.152 14.152 0 0 0-2.254 2.804.965.965 0 0 0 .347 1.298c.062.027.127.048.193.063.063.105.145.198.241.275a1.04 1.04 0 0 0 1.21.037c.35-.242.675-.52.97-.827a6.569 6.569 0 0 0 1.389-1.786c.207-.407.33-.852.36-1.308a1.23 1.23 0 0 0-.668-1.218 1.205 1.205 0 0 0-.47-.125ZM21.48 12.485a1.008 1.008 0 0 0-.286-.425c-.02-.301-.06-.6-.118-.896a6.094 6.094 0 0 0-.21-.703 3.318 3.318 0 0 0-.345-.78 1.37 1.37 0 0 0-1.113-.668 1.137 1.137 0 0 0-.781.334c-.21.226-.332.52-.344.83a3 3 0 0 0 0 .553c.02.262.06.522.124.777.15.602.517 1.126 1.03 1.47a.94.94 0 0 0 .415.618.924.924 0 0 0 .731.117l.22-.06a.956.956 0 0 0 .576-.444.968.968 0 0 0 .1-.723Z" fill="#557F51"/><path d="M20.996 22.763c-.079-.454-.201-.9-.366-1.33a4.334 4.334 0 0 0-.416-.874c-.018-.028-.052-.044-.074-.072.03.009.06.015.09.019a.925.925 0 0 0 .666-.278 1.05 1.05 0 0 0 .276-.672c.048-.59.02-1.184-.083-1.767-.093-.577-.242-1.274-.66-1.708a1.212 1.212 0 0 0-1.452-.237 1.284 1.284 0 0 0-.62 1.124c.007.279.047.555.118.824.04.211.092.42.155.625.144.456.375.88.679 1.249.006.097.03.192.068.28a1.087 1.087 0 0 0-.62 0 .996.996 0 0 0-.561.438c-.034.075-.065.153-.096.228a.942.942 0 0 0 0 .506 5.11 5.11 0 0 0 1.24 2.6c.08.16.2.295.347.394.037.022.087.025.127.044a.924.924 0 0 0 1.123-.138.965.965 0 0 0 .059-1.255ZM25.132 19.132a1.103 1.103 0 0 0-1.126.062c-.525.313-1.003.7-1.42 1.15-.545.59-1.088 1.326-1.05 2.185a1.03 1.03 0 0 0 .412.762.596.596 0 0 0 .086.125 1.039 1.039 0 0 0 1.274.156c.276-.221.514-.486.704-.784.428-.507.83-1.037 1.203-1.586.075-.119.143-.24.205-.365.14-.238.223-.505.242-.78a1.051 1.051 0 0 0-.53-.925ZM24.232 13.505a2.13 2.13 0 0 0-1.2.606c-.44.38-.806.839-1.081 1.352-.32.593-.595 1.21-.822 1.845a.964.964 0 0 0 .67 1.179.926.926 0 0 0 .716-.104.78.78 0 0 0 .074-.07c.079.03.162.047.245.05a1.11 1.11 0 0 0 .667-.277c.484-.392.893-.87 1.206-1.411.168-.3.31-.613.421-.937.129-.321.206-.66.23-1.005a1.166 1.166 0 0 0-.303-.855 1.15 1.15 0 0 0-.823-.373ZM21.715 13.496a.983.983 0 0 0-.282-.43 5.517 5.517 0 0 0-.214-.806c-.236-.578-.515-1.18-1.079-1.502a1.454 1.454 0 0 0-1.153-.15 1.111 1.111 0 0 0-.701.64c-.094.274-.105.57-.031.85.074.548.236 1.08.48 1.576a2.615 2.615 0 0 0 1.458 1.249.962.962 0 0 0 .728-.094.461.461 0 0 1 .04-.037 1.02 1.02 0 0 0 .54-.387l.12-.175a.974.974 0 0 0 .094-.734ZM24.76 6.777a.964.964 0 0 0-1.03.197A8.712 8.712 0 0 0 22.307 8.4a3.73 3.73 0 0 0-.735 1.942.754.754 0 0 0 .04.23.958.958 0 0 0-.185.313.99.99 0 0 0 .102.777.934.934 0 0 0 .815.472c.277-.012.541-.123.744-.312l.193-.194a9.557 9.557 0 0 0 1.153-1.477c.201-.315.379-.644.53-.986.252-.473.38-1 .375-1.537a.973.973 0 0 0-.58-.852Z" fill="#387437"/><path d="M20.047 7.526a1.225 1.225 0 0 0-.1-.25.132.132 0 0 0 0-.027 1.5 1.5 0 0 0-.145-.194l-.025-.028c-.059-.05-.124-.1-.186-.144l-.034-.019a1.422 1.422 0 0 0-.223-.096H19.3a1.792 1.792 0 0 0-.245-.032 1.315 1.315 0 0 0-.248.032h-.031a.979.979 0 0 0-.406.24.083.083 0 0 0-.025.022c-.053.06-.102.123-.146.19a.873.873 0 0 0-.056.125.946.946 0 0 0-.05.125.963.963 0 0 0 0 .497.72.72 0 0 0 .115.265c.019.038.028.075.047.112a.623.623 0 0 0 .288.272 1.007 1.007 0 0 0 .583.197c.09 0 .18-.013.267-.04.152-.048.291-.13.406-.241l.018-.019c.052-.06.1-.124.143-.19a.997.997 0 0 0 .109-.25 1.37 1.37 0 0 0 .04-.272v-.028a1.334 1.334 0 0 0-.062-.247ZM23.972 11.426a.197.197 0 0 0 0-.04c-.019-.047-.062-.157-.084-.2v-.016c-.021-.034-.052-.072-.071-.097-.019-.025-.05-.072-.078-.1-.027-.028-.07-.056-.096-.075a1.102 1.102 0 0 0-.096-.071c-.03 0-.167-.075-.198-.085h-.016c-.024 0-.195-.028-.22-.028a.582.582 0 0 0-.124.016h-.124l-.198.084c-.034.022-.075.06-.096.075l-.1.075v.016a1.241 1.241 0 0 0-.065.087l-.028.022-.034.031a3.858 3.858 0 0 0-.136.178v.038l-.084.2a1.033 1.033 0 0 0-.034.271v.019l.028.218v.038c0 .043.065.159.084.203v.022l.074.096a.832.832 0 0 0 .075.097c.027.025.139.113.17.131l.202.085h.024l.224.03h.13c.018 0 .087 0 .127-.018l.195-.081h.025l.043-.028c.069-.05.137-.103.199-.156a.85.85 0 0 0 .13-.15c.032-.038.06-.077.087-.119v-.022a1.96 1.96 0 0 0 .087-.203.177.177 0 0 0 0-.043c0-.047.024-.172.03-.222a.059.059 0 0 0 0-.025 1.758 1.758 0 0 0-.052-.253Z" fill="#635874"/><path d="M20.1 14.22a.856.856 0 0 0-.115-.418l-.127-.168a.853.853 0 0 0-.363-.213l-.27-.037h-.118l-.133.015-.14.019-.055.016a2.1 2.1 0 0 0-.242.103l-.037.025a4.063 4.063 0 0 0-.18.14l-.022.019-.015.019a2.83 2.83 0 0 0-.14.18.183.183 0 0 0-.025.041c-.033.07-.063.14-.09.213a.062.062 0 0 0 0 .021 1.277 1.277 0 0 0-.037.266v.031c0 .056.022.169.031.225a.261.261 0 0 0 0 .047c.026.08.06.157.1.23.037.054.09.123.133.172v.02h.015l.17.13h.016l.196.085c.083.021.168.034.254.037h.03l.221-.028a.062.062 0 0 0 .034 0c.08-.025.157-.059.23-.1l.09-.069.086-.068v-.016c.047-.056.096-.122.14-.181a.443.443 0 0 0 .04-.075c.034-.078.068-.153.1-.234v-.106a.624.624 0 0 0 .074-.144c.127-.05.136-.125.148-.197Z" fill="#4C3A6A"/><path d="M21.826 10.461a.856.856 0 0 0-.114-.418l-.127-.169a.854.854 0 0 0-.363-.212 2.373 2.373 0 0 0-.443-.066 1.846 1.846 0 0 0-.31.038 1.454 1.454 0 0 0-.354.153c-.056.044-.12.09-.173.137h-.02a2.103 2.103 0 0 0-.154.197 1.019 1.019 0 0 0-.124.787c.04.159.12.305.236.421a.951.951 0 0 0 .722.287c.105-.003.209-.018.31-.046.093-.031.183-.07.27-.116a1.248 1.248 0 0 0 .428-.409l.027-.037c.019-.038.028-.063.04-.09a.625.625 0 0 0 .13-.254.933.933 0 0 1 .02-.203ZM24.583 15.085c0-.075-.019-.159-.031-.23a.314.314 0 0 0 0-.054c-.025-.072-.06-.143-.087-.212v-.05a2.685 2.685 0 0 0-.143-.184l-.037-.04c-.059-.05-.124-.1-.186-.144l-.025-.02h-.028a2.657 2.657 0 0 0-.217-.093h-.059a1.408 1.408 0 0 0-.272-.034.637.637 0 0 0-.31.072.62.62 0 0 0-.24.156h-.033a.794.794 0 0 0-.295.312.835.835 0 0 0 0 .834c.053.072.102.143.161.209l.044.044.021.018c.06.05.121.097.186.144l.053.034.05.025.217.094H23.467l.226.031h.158a1.11 1.11 0 0 0 .118-.015.892.892 0 0 0 .397-.228l.065-.085.065-.087c0-.022.08-.181.087-.203.006-.022 0-.075 0-.119a.978.978 0 0 0 .015-.121l-.015-.053ZM17.297 15.872a.973.973 0 0 0-.14-.487l-.127-.168-.021-.02c.059.054-.121-.105-.18-.137l-.199-.084a.865.865 0 0 0-.861.2.181.181 0 0 0-.04 0 .858.858 0 0 0-.382.222.776.776 0 0 0-.152.196.943.943 0 0 0-.087.694.957.957 0 0 0 .251.424c.122.119.271.206.434.253h.05c.086.017.173.027.26.031.105 0 .21-.014.31-.04.1-.031.196-.07.289-.116l.083-.05a1.18 1.18 0 0 0 .23-.19c.116-.124.2-.274.248-.437a1.375 1.375 0 0 0 .034-.29Z" fill="#4C3B68"/><path d="m22.828 18.236-.084-.197a.605.605 0 0 0-.21-.231.39.39 0 0 0-.183-.106.576.576 0 0 0-.31-.072h-.335a1.66 1.66 0 0 0-.255.031.597.597 0 0 0-.13.053.656.656 0 0 0-.288.185.693.693 0 0 0-.186.287.95.95 0 0 0-.047.112l-.028.222a.742.742 0 0 0 0 .115v.116c.023.072.052.142.087.21v.015l.13.165c.059.057.123.107.193.15.072.043.15.076.232.097.025 0 .047.037.071.044a1.456 1.456 0 0 0 .317.034 1.54 1.54 0 0 0 .263-.034c.084-.025.165-.058.242-.097a.591.591 0 0 0 .127-.09.698.698 0 0 0 .115-.098c.05-.058.097-.12.14-.184a.866.866 0 0 0 .049-.115.838.838 0 0 0 .084-.36c.011-.083.014-.168.006-.252Z" fill="#4C3A6A"/><path d="m27.965 15.02-.127-.169a.794.794 0 0 0-.363-.212h-.043a1.423 1.423 0 0 0-.254-.034h-.025c-.074 0-.164.018-.236.03H26.9a.755.755 0 0 0-.174.073h-.028l-.074.021a3.748 3.748 0 0 0-.258.113.93.93 0 0 0-.213.156l-.022.022c-.025.028-.053.069-.072.094a.713.713 0 0 0-.074.096c0 .025-.074.172-.084.2-.009.028 0 .078-.018.122v.11c0 .16.043.318.127.455a.884.884 0 0 0 .31.312h.015l.202.085h.031c.08 0 .164.024.245.03.112.005.225-.006.335-.03a1.494 1.494 0 0 0 .415-.175c.062-.047.127-.097.186-.147l.028-.025-.003-.003c.06-.069.113-.142.161-.219.044-.082.082-.167.112-.256a.667.667 0 0 0 .015-.33.629.629 0 0 0-.096-.32ZM19.672 18.913a.896.896 0 0 0-.019-.122 5.322 5.322 0 0 0-.08-.196.98.98 0 0 0-.14-.178 1.005 1.005 0 0 0-.192-.156l-.04-.025a2.004 2.004 0 0 0-.24-.097h-.046a.615.615 0 0 0-.328 0c-.038 0-.069.025-.103.031h-.034l-.217.031a.618.618 0 0 0-.282.147.42.42 0 0 0-.146.15.625.625 0 0 0-.148.281v.022l-.016.11v.115a.87.87 0 0 0 0 .118c0 .025 0 .081.016.119.015.037 0 .015 0 .025 0 .01.065.16.086.2v.018s.093.132.14.181c.032.03.066.058.102.082a.51.51 0 0 0 .118.084l.1.044.105.043h.028c.07 0 .155.025.226.032h.087c.104-.004.208-.018.31-.04h.021l.199-.085a.795.795 0 0 0 .195-.15.913.913 0 0 0 .27-.643c.043-.056.028-.131.028-.14Z" fill="#635874"/><path d="M23.628 6.649a.67.67 0 0 0 0-.33l-.084-.198a.815.815 0 0 0-.294-.296l-.196-.085a.866.866 0 0 0-.437 0 1.93 1.93 0 0 0-.273.113.398.398 0 0 0-.077.047 2.473 2.473 0 0 0-.226.178 1.728 1.728 0 0 0-.18.23.448.448 0 0 0-.05.076l-.019.037c-.03.075-.068.153-.096.231a.278.278 0 0 0-.053.387.82.82 0 0 0 .112.419c.05.094.122.173.211.23.08.075.177.126.282.15a.865.865 0 0 0 .437 0c.1-.027.197-.065.289-.115.09-.05.175-.113.25-.184a.392.392 0 0 0 .072-.072c.07-.076.132-.16.183-.25V7.19c.031-.069.062-.14.087-.209l.018-.056c0-.066.019-.131.025-.197.006-.065.016-.05.019-.078Z" fill="#4C3A6A"/><path d="M47.333 8.629c-.018-.856-2.074-.86-2.055 0a263.82 263.82 0 0 1-.233 18.4c-.04.855 2.015.855 2.056 0 .291-6.133.369-12.266.232-18.4Z" fill="#80653B"/><path d="M45.296 18.383a1.067 1.067 0 0 0-.505-.522l-2.102-1.165c-.7-.39-1.572-.774-2.36-.374a1.197 1.197 0 0 0-.69.912c-.034.285.02.573.154.827.19.403.482.748.846 1.002a5.18 5.18 0 0 0 2.199.737c.192.031.384.062.576.103l.103.022.062.019.065.018c.107.042.218.074.331.094a1.063 1.063 0 0 0 1.129-.684.845.845 0 0 0 .18-.262.968.968 0 0 0 .012-.727Z" fill="#466E44"/><path d="M42.62 15.572a1.077 1.077 0 0 0-.502-.521l-2.105-1.165c-.7-.387-1.569-.774-2.356-.374a1.195 1.195 0 0 0-.695.912c-.033.285.021.573.155.827.192.403.485.748.85 1.002.667.41 1.418.661 2.195.737.192.031.388.062.577.103l.102.025h.062l.065.019c.107.042.218.073.332.093a1.064 1.064 0 0 0 1.128-.683.91.91 0 0 0 .183-.263.968.968 0 0 0 .01-.711Z" fill="#3E643C"/><path d="M43.802 14.42a1.083 1.083 0 0 0-.28-.67l-1.525-1.874c-.511-.625-1.178-1.305-2.055-1.224a1.2 1.2 0 0 0-.98.587c-.134.253-.19.542-.158.827.03.446.175.877.422 1.25a5.188 5.188 0 0 0 1.77 1.5c.167.1.335.2.5.313l.086.063.05.037.052.04c.084.081.177.152.276.213a1.066 1.066 0 0 0 1.3-.215.837.837 0 0 0 .263-.178.959.959 0 0 0 .279-.669ZM52.861 13.687c-.577-.625-1.33-.263-1.956.04a10.158 10.158 0 0 0-4.307 4.06.983.983 0 0 0-.021.873.94.94 0 0 0 .176.497.93.93 0 0 0 1.219.243c1.686-1.092 3.767-1.804 4.777-3.69.323-.618.655-1.44.112-2.023Z" fill="#466E44"/><path d="M56.194 13.265c-.577-.624-1.33-.262-1.96.04a10.177 10.177 0 0 0-4.303 4.06.974.974 0 0 0-.021.874c.007.178.069.35.176.493a.93.93 0 0 0 1.219.247c1.686-1.096 3.767-1.805 4.777-3.69.323-.619.651-1.44.112-2.024Z" fill="#3E643C"/><path d="M53.996 9.131c-.577-.624-1.33-.262-1.96.04a10.176 10.176 0 0 0-4.303 4.06.973.973 0 0 0-.022.874c.008.179.07.35.177.493a.93.93 0 0 0 1.218.247c1.687-1.111 3.78-1.823 4.778-3.697.323-.624.651-1.433.112-2.017Z" fill="#466E44"/><path d="M51.77 7.167a.938.938 0 0 0-1.155-.666.962.962 0 0 0-.433.248 15.32 15.32 0 0 0-3.751 5.183.951.951 0 0 0 .288 1.305.933.933 0 0 0 1.296-.29.925.925 0 0 0 .161-.113c.729-.818 1.476-1.62 2.17-2.454.358-.405.68-.84.962-1.302a2.75 2.75 0 0 0 .462-1.91Z" fill="#3E643C"/><path d="M45.46 9.387a1.366 1.366 0 0 0-.105-.412c-.315-.76-.694-1.49-1.131-2.186-.431-.68-.93-1.46-1.684-1.807-.561-.263-1.271-.369-1.767.093-.555.512-.276 1.25 0 1.811a8.723 8.723 0 0 0 1.41 2.017c.596.678 1.24 1.524 2.17 1.717a.958.958 0 0 0 .713-.097.97.97 0 0 0 .447-.568c.036-.19.018-.387-.052-.568Z" fill="#466E44"/><path d="M46.685 7.614a1.412 1.412 0 0 0-.105-.416c-.316-.759-.695-1.49-1.132-2.185-.43-.678-.93-1.458-1.683-1.808-.562-.259-1.272-.368-1.768.094-.554.515-.276 1.249 0 1.81a8.676 8.676 0 0 0 1.411 2.02c.595.678 1.24 1.524 2.17 1.715.241.062.496.028.712-.096a.967.967 0 0 0 .448-.566c.036-.19.017-.388-.053-.568Z" fill="#3E643C"/><path d="M48.604.701a.958.958 0 0 0-.908-.7c-1.327-.062-1.668 1.593-1.86 2.595a11.36 11.36 0 0 0-.14 3.304c.026.196.099.383.211.546a1.162 1.162 0 0 0 .685.625c.506.196.998-.222 1.163-.662.691-1.84 1.144-3.74.85-5.708Z" fill="#466E44"/><path d="M52.73 16.79c-1.063-.312-2.194.347-3.137.765-.917.346-1.785.815-2.58 1.393a.848.848 0 0 0-.288.137c-.046-.312-.114-.624-.176-.937a22 22 0 0 0-.664-2.47 4.446 4.446 0 0 0-.167-.43h.074a.965.965 0 0 0 .567-.44.977.977 0 0 0 .11-.712 6.115 6.115 0 0 0-1.325-2.498 8.638 8.638 0 0 0-2-1.808c-.542-.337-1.351-.662-1.925-.218a1.143 1.143 0 0 0-.387 1.223c.086.257.2.503.34.734.43.773.96 1.484 1.576 2.117.339.343.701.661 1.085.952a1.274 1.274 0 0 0-.468.681c-.09.47-.09.951 0 1.42.06.39.164.771.31 1.137.36.88.814 1.718 1.355 2.498a.949.949 0 0 0 1.29.34c.084-.072.157-.159.213-.256.183.209.438.34.713.366a7.431 7.431 0 0 0 5.085-1.227 3.784 3.784 0 0 0 1.12-1.059 1.167 1.167 0 0 0-.72-1.708Z" fill="#2E542B"/><path d="M52.427 11.086a.963.963 0 0 0-.447-.568.952.952 0 0 0-.712-.094 6.939 6.939 0 0 0-3.988 2.81.94.94 0 0 0 .338 1.299c.19.101.408.136.62.1.893.365 1.944-.272 2.651-.793.865-.637 1.854-1.534 1.538-2.754ZM51.336 4.332a1.2 1.2 0 0 0-1.24-.521c-.493.1-.884.5-1.24.846-.288.28-.556.58-.804.896-.27.36-.52.735-.747 1.124-.176-1.361-.62-2.707-1.612-3.681a1.742 1.742 0 0 0-1.656-.562 1.421 1.421 0 0 0-.742.558 1.438 1.438 0 0 0-.244.9c.032.461.127.915.286 1.349.16.496.354.98.583 1.449.462.955 1.082 1.917 2.142 2.248.16.043.33.037.487-.02-.061.052-.116.11-.165.173l-.096.137a.942.942 0 0 0 .695 1.415.954.954 0 0 0 .595-.116c1.578-.98 3.16-2.083 3.782-3.931.153-.449.223-.922.205-1.396a1.734 1.734 0 0 0-.23-.868Z" fill="#2E542B"/><path d="M46.174 20.587a1.981 1.981 0 0 0-1.216-.965.787.787 0 0 0-.12 0 5.721 5.721 0 0 0-.91-.45 3.794 3.794 0 0 0-1.137-.262 1.232 1.232 0 0 0-.911.312 1.189 1.189 0 0 0-.31 1.202 2.923 2.923 0 0 0 1.584 1.711c.39.19.795.343 1.212.46.567.159 1.24.337 1.711-.15.472-.488.388-1.306.097-1.858ZM45.166 16.715a.89.89 0 0 0-.096-.187c-.025-.128-.031-.26-.065-.387 0-.04 0-.081-.016-.122a6.367 6.367 0 0 0-.114-.874 2.504 2.504 0 0 0-.81-1.533 1.676 1.676 0 0 0-.747-.313c-.354-.199-.77-.257-1.165-.162-.206.063-.395.17-.556.312a.385.385 0 0 0-.083.031 1.101 1.101 0 0 0-.338.34 1 1 0 0 0-.096.731c.141.73.444 1.417.886 2.011a4.912 4.912 0 0 0 1.665 1.424.958.958 0 0 0 .952 0 .741.741 0 0 0 .205-.225.918.918 0 0 0 .214-.237.352.352 0 0 0 .071-.081.94.94 0 0 0 .093-.728ZM49.82 11.754c-.543 0-.95.437-1.318.787-.251.237-.493.487-.722.746a14.356 14.356 0 0 0-1.532 2.057.965.965 0 0 0 .338 1.3.536.536 0 0 1 .434.337 1.04 1.04 0 0 0 1.21.037c.35-.241.675-.518.97-.827a6.57 6.57 0 0 0 1.389-1.786 3.32 3.32 0 0 0 .36-1.308 1.224 1.224 0 0 0-.661-1.216 1.203 1.203 0 0 0-.468-.127ZM46.502 12.485a1.031 1.031 0 0 0-.282-.425 7.79 7.79 0 0 0-.12-.896 6.114 6.114 0 0 0-.212-.703 3.443 3.443 0 0 0-.34-.78 1.375 1.375 0 0 0-1.117-.668 1.137 1.137 0 0 0-.781.334c-.21.226-.331.521-.344.83a3 3 0 0 0 0 .553c.02.262.06.522.124.777.15.602.517 1.126 1.03 1.47a.94.94 0 0 0 .414.618.925.925 0 0 0 .732.117l.217-.06a.956.956 0 0 0 .578-.443.968.968 0 0 0 .101-.724Z" fill="#557F51"/><path d="M46.019 22.763c-.079-.454-.201-.9-.366-1.33a4.337 4.337 0 0 0-.416-.874c-.018-.028-.052-.044-.074-.072a.52.52 0 0 0 .09.019c.25 0 .492-.1.67-.278.166-.185.263-.422.275-.672a7.18 7.18 0 0 0-.083-1.767c-.096-.577-.245-1.274-.664-1.708a1.21 1.21 0 0 0-1.448-.237 1.288 1.288 0 0 0-.62 1.124c.009.278.048.555.118.824.044.213.093.422.155.625.146.456.376.88.68 1.249.005.097.028.192.067.28a1.075 1.075 0 0 0-.62 0 1.002 1.002 0 0 0-.564.438l-.096.228a.999.999 0 0 0 0 .506c.155.97.585 1.873 1.24 2.6.078.16.197.296.344.394.037.022.087.025.127.044a.924.924 0 0 0 1.123-.138.964.964 0 0 0 .062-1.255ZM50.158 19.132a1.11 1.11 0 0 0-1.129.062c-.525.313-1.004.7-1.42 1.15-.546.59-1.088 1.326-1.05 2.185a1.04 1.04 0 0 0 .411.762.596.596 0 0 0 .087.125 1.04 1.04 0 0 0 1.274.156c.276-.222.514-.487.707-.784.426-.508.827-1.038 1.2-1.586.075-.119.143-.24.205-.365.14-.238.223-.505.242-.781a1.052 1.052 0 0 0-.527-.924Z" fill="#387437"/><path d="M49.255 13.505a2.13 2.13 0 0 0-1.2.606c-.44.38-.806.839-1.081 1.352a13.26 13.26 0 0 0-.822 1.845.944.944 0 0 0 .319 1.027.926.926 0 0 0 1.144-.006c.079.03.161.046.245.05a1.11 1.11 0 0 0 .667-.277c.485-.392.894-.87 1.206-1.412.168-.3.31-.613.425-.937.126-.321.202-.66.226-1.005a1.164 1.164 0 0 0-.675-1.14 1.143 1.143 0 0 0-.454-.103ZM46.738 13.496a.984.984 0 0 0-.282-.43 5.492 5.492 0 0 0-.214-.806c-.236-.578-.515-1.18-1.08-1.502a1.448 1.448 0 0 0-1.15-.15 1.098 1.098 0 0 0-.7.64c-.095.27-.108.56-.037.837.073.549.236 1.082.483 1.577.31.586.83 1.033 1.454 1.248a.958.958 0 0 0 .73-.093s.024-.028.04-.038a1.02 1.02 0 0 0 .539-.387l.12-.175a.961.961 0 0 0 .097-.72ZM49.786 6.777a.97.97 0 0 0-1.033.197 8.556 8.556 0 0 0-1.42 1.427 3.708 3.708 0 0 0-.738 1.942.754.754 0 0 0 .04.23 1.01 1.01 0 0 0-.185.313.99.99 0 0 0 .447 1.122.944.944 0 0 0 .47.127c.277-.012.541-.123.744-.312l.193-.194a8.93 8.93 0 0 0 .365-.403c.288-.34.552-.698.791-1.074.2-.316.376-.646.53-.986.249-.473.378-1.001.375-1.537a.972.972 0 0 0-.58-.852Z" fill="#387437"/><path d="M45.07 7.526a1.456 1.456 0 0 0-.096-.25l-.019-.027a1.247 1.247 0 0 0-.145-.194l-.025-.028c-.06-.051-.122-.1-.186-.144l-.031-.019a1.59 1.59 0 0 0-.227-.096h-.034a1.803 1.803 0 0 0-.242-.032 1.35 1.35 0 0 0-.25.032h-.032a.978.978 0 0 0-.406.24.084.084 0 0 0-.025.022c-.052.06-.1.124-.145.19a.863.863 0 0 0-.056.125.946.946 0 0 0-.05.125c-.04.163-.04.334 0 .497.018.086.052.169.1.243.004.009.01.016.018.022l.043.112a.622.622 0 0 0 .289.272 1.008 1.008 0 0 0 .583.197.884.884 0 0 0 .27-.04c.15-.049.288-.13.402-.241l.019-.019a1.72 1.72 0 0 0 .146-.19 1.12 1.12 0 0 0 .145-.522v-.028a1.666 1.666 0 0 0-.046-.247ZM48.995 11.426a.212.212 0 0 0 0-.04 3.857 3.857 0 0 0-.084-.2.03.03 0 0 0 0-.016c-.022-.034-.053-.072-.071-.097-.019-.025-.05-.072-.078-.1l-.093-.075c-.021 0-.065-.053-.099-.071-.028 0-.167-.075-.198-.085-.025 0-.196-.028-.22-.028a.53.53 0 0 0-.124.016 1.221 1.221 0 0 0-.124 0l-.196.084h-.018c-.034.022-.075.06-.096.075-.022.016-.069.05-.096.075v.016a.77.77 0 0 0-.069.087l-.028.022-.034.031a3.79 3.79 0 0 0-.136.178v.019a.046.046 0 0 0 0 .019c-.025.05-.065.15-.087.2-.022.05 0 0 0 0a1.045 1.045 0 0 0-.037.252v.038l.028.218v.038c.015.043.065.159.087.203v.022l.074.096c.019.022.05.07.074.097.025.025.14.113.168.131l.198.085h.028l.22.03h.13c.019 0 .087 0 .128-.018l.195-.081h.025l.043-.028.202-.156a.979.979 0 0 0 .127-.15c.028-.038.065-.078.09-.119v-.022c.028-.059.059-.137.083-.203a.188.188 0 0 0 0-.043c0-.047.025-.172.028-.222v-.034a1.79 1.79 0 0 0-.04-.244Z" fill="#635874"/><path d="M45.135 14.22a.82.82 0 0 0-.112-.418l-.13-.168a.853.853 0 0 0-.363-.213l-.27-.037h-.117l-.133.015-.14.019-.056.016c-.081.029-.161.063-.239.103l-.04.025-.18.14-.018.019-.019.019c-.046.056-.093.118-.14.18l-.024.041a3.36 3.36 0 0 0-.09.213v.021a1.277 1.277 0 0 0-.037.266v.031c0 .056.021.169.03.225a.261.261 0 0 0 0 .047c.027.08.06.157.1.23.037.054.09.123.133.172l.016.02.17.13.196.085c.084.021.17.034.257.037h.028l.22-.028h.034c.079-.026.154-.06.226-.1l.09-.069.087-.068h.016v-.016c.05-.056.096-.122.14-.181.042-.06.03-.05.042-.075.035-.078.069-.153.097-.234 0 0 0-.028.015-.044.016-.015 0-.043 0-.062a.77.77 0 0 0 .071-.144c.106-.05.118-.125.14-.197Z" fill="#4C3A6A"/><path d="M46.85 10.461a.819.819 0 0 0-.112-.418l-.13-.169a.854.854 0 0 0-.363-.212 2.336 2.336 0 0 0-.443-.066 1.785 1.785 0 0 0-.31.038 1.377 1.377 0 0 0-.357.153c-.056.044-.12.09-.174.137-.057.062-.11.128-.158.197a1.019 1.019 0 0 0-.124.787c.04.16.122.306.239.421a.93.93 0 0 0 .428.253c.095.026.193.037.291.034.105-.003.21-.018.31-.046.093-.03.184-.07.27-.116a1.3 1.3 0 0 0 .245-.184c.07-.067.132-.142.183-.225a.29.29 0 0 0 .028-.037.692.692 0 0 0 .04-.09.625.625 0 0 0 .13-.254.563.563 0 0 1 .006-.203ZM49.606 15.085c0-.075-.019-.159-.028-.23a.337.337 0 0 0-.016-.054 2.538 2.538 0 0 0-.087-.212v-.05c-.043-.062-.093-.125-.139-.184l-.04-.04c-.06-.05-.124-.1-.186-.144l-.025-.02h-.025a2.722 2.722 0 0 0-.22-.093h-.056a1.457 1.457 0 0 0-.276-.034.637.637 0 0 0-.31.072.62.62 0 0 0-.239.156h-.034a.827.827 0 0 0-.294 1.13c.053.072.102.144.161.21l.043.043.022.019.186.143.053.035.05.025.216.093H48.477l.227.032h.158c.04-.004.078-.009.117-.016a.891.891 0 0 0 .397-.228l.065-.084c.022-.028.044-.06.069-.088 0-.022.077-.18.083-.203.006-.021 0-.075 0-.118a.99.99 0 0 0 0-.122s.013-.031.013-.038ZM42.32 15.872a1 1 0 0 0-.137-.487l-.127-.169-.021-.009a2.228 2.228 0 0 0-.177-.137l-.195-.085a.923.923 0 0 0-.509 0 .96.96 0 0 0-.356.207.182.182 0 0 0-.04 0 .89.89 0 0 0-.534.418.943.943 0 0 0-.087.693.984.984 0 0 0 .685.677h.053c.086.017.173.028.26.032.105 0 .21-.014.31-.04.1-.031.196-.07.289-.116l.084-.05c.084-.054.16-.118.229-.19a1.04 1.04 0 0 0 .248-.438c.019-.083.031-.168.037-.253a.202.202 0 0 0-.012-.053Z" fill="#4C3B68"/><path d="m47.85 18.236-.083-.197a.583.583 0 0 0-.21-.231.39.39 0 0 0-.184-.106.576.576 0 0 0-.31-.072h-.334a1.66 1.66 0 0 0-.255.031.597.597 0 0 0-.13.053.656.656 0 0 0-.288.185.692.692 0 0 0-.186.287.946.946 0 0 0-.044.112c0 .075-.021.147-.03.222a.718.718 0 0 0 0 .115c0 .038 0 .078.015.116.02.073.049.143.087.21a.04.04 0 0 0 0 .015c.04.056.083.112.127.165a.894.894 0 0 0 .425.247c.027 0 .046.037.07.044a1.456 1.456 0 0 0 .317.034c.09-.004.179-.015.267-.034.082-.025.162-.058.238-.097a.589.589 0 0 0 .127-.09.694.694 0 0 0 .115-.098c.051-.057.098-.119.14-.184a.905.905 0 0 0 .053-.115.843.843 0 0 0 .08-.36.974.974 0 0 0-.006-.252Z" fill="#4C3A6A"/><path d="m52.988 15.02-.127-.169a.794.794 0 0 0-.363-.212h-.043a1.388 1.388 0 0 0-.254-.034h-.04c-.075 0-.162.018-.236.03h-.019a.815.815 0 0 0-.173.073h-.025l-.078.021a3.748 3.748 0 0 0-.257.113.931.931 0 0 0-.214.156l-.022.022c-.025.028-.052.069-.071.094a.697.697 0 0 0-.074.096s-.075.172-.084.2c-.01.028 0 .078-.016.122v.11a.869.869 0 0 0 .124.455.883.883 0 0 0 .31.312h.016l.201.085h.031c.081 0 .165.024.245.03.113.005.225-.006.335-.03a1.492 1.492 0 0 0 .416-.175l.189-.147.025-.025c.018 0 .03-.034.046-.05.06-.069.113-.142.161-.219a1.69 1.69 0 0 0 .112-.255.628.628 0 0 0 0-.332.605.605 0 0 0-.115-.271ZM44.695 18.913a.584.584 0 0 0-.019-.122l-.084-.196a.98.98 0 0 0-.14-.178 1.005 1.005 0 0 0-.191-.156l-.04-.025a1.661 1.661 0 0 0-.24-.097h-.046a.615.615 0 0 0-.328 0c-.038 0-.069.025-.103.031h-.034l-.217.031a.618.618 0 0 0-.279.147.429.429 0 0 0-.149.15.625.625 0 0 0-.146.281.045.045 0 0 0 0 .022v.225a.87.87 0 0 0 0 .118v.144c0 .04.066.16.084.2v.018s.093.132.14.181c.032.03.066.057.102.082a.51.51 0 0 0 .118.084l.1.044.105.043h.027c.069 0 .152.025.224.032h.087c.104-.004.208-.018.31-.04h.018l.195-.085a.913.913 0 0 0 .465-.793c.056-.056.04-.131.04-.14Z" fill="#635874"/><path d="M48.65 6.649a.63.63 0 0 0-.015-.33l-.083-.198a.815.815 0 0 0-.295-.296l-.195-.085a.865.865 0 0 0-.437 0c-.094.03-.185.068-.273.113a2.105 2.105 0 0 0-.3.225 2.055 2.055 0 0 0-.233.306l-.02.037c-.03.075-.067.153-.092.231a.346.346 0 0 0-.022.081c-.016.085-.027.17-.034.256a.819.819 0 0 0 .112.468c.05.095.124.174.214.232a.582.582 0 0 0 .279.15.865.865 0 0 0 .437 0c.1-.028.199-.067.291-.116a1.35 1.35 0 0 0 .248-.184.31.31 0 0 0 .072-.072c.07-.076.131-.16.182-.25a.12.12 0 0 0 0-.028c.032-.069.063-.14.09-.209v-.056c0-.066.019-.131.025-.197.006-.065.047-.05.05-.078Z" fill="#4C3A6A"/><path d="M72.356 8.629c-.019-.856-2.074-.86-2.055 0 .136 6.136.058 12.269-.233 18.4-.04.855 2.015.855 2.056 0 .291-6.133.369-12.266.232-18.4Z" fill="#80653B"/><path d="M70.32 18.383a1.077 1.077 0 0 0-.503-.522l-2.105-1.165c-.7-.39-1.569-.774-2.356-.374a1.2 1.2 0 0 0-.695.912c-.033.285.021.573.155.827.191.403.484.748.85 1.002.667.41 1.417.661 2.195.737.192.031.387.062.576.103l.103.022.062.019.065.018c.107.042.218.074.331.094a1.063 1.063 0 0 0 1.129-.684.912.912 0 0 0 .183-.262.968.968 0 0 0 .01-.727Z" fill="#466E44"/><path d="M67.644 15.572a1.077 1.077 0 0 0-.497-.521l-2.105-1.165c-.7-.387-1.568-.774-2.356-.374a1.207 1.207 0 0 0-.694.912c-.032.285.022.573.155.827.191.403.484.748.85 1.002a5.17 5.17 0 0 0 2.194.737c.195.031.388.062.577.103l.105.025h.06l.064.019c.108.042.219.073.332.093a1.064 1.064 0 0 0 1.129-.683.855.855 0 0 0 .182-.263.967.967 0 0 0 .004-.711Z" fill="#3E643C"/><path d="M68.825 14.42a1.081 1.081 0 0 0-.276-.67l-1.529-1.874c-.511-.625-1.175-1.305-2.055-1.224a1.187 1.187 0 0 0-.977.587 1.413 1.413 0 0 0-.16.827c.03.446.175.877.42 1.25a5.216 5.216 0 0 0 1.771 1.5c.167.1.338.2.5.313l.086.063.05.037.052.04c.085.081.177.152.276.213a1.066 1.066 0 0 0 1.3-.215.888.888 0 0 0 .266-.178.968.968 0 0 0 .276-.669ZM77.884 13.687c-.577-.625-1.33-.263-1.956.04a10.157 10.157 0 0 0-4.307 4.06.983.983 0 0 0-.021.873.94.94 0 0 0 .18.497.93.93 0 0 0 1.215.243c1.69-1.092 3.767-1.804 4.777-3.69.326-.618.655-1.44.112-2.023Z" fill="#466E44"/><path d="M81.217 13.265c-.577-.624-1.33-.262-1.96.04a10.177 10.177 0 0 0-4.303 4.06.982.982 0 0 0-.022.874c.01.178.071.35.177.493a.93.93 0 0 0 1.219.247c1.686-1.096 3.766-1.805 4.777-3.69.323-.619.654-1.44.112-2.024Z" fill="#3E643C"/><path d="M79.019 9.131c-.577-.624-1.33-.262-1.96.04a10.177 10.177 0 0 0-4.303 4.06.983.983 0 0 0-.022.874c.01.178.071.35.177.493a.93.93 0 0 0 1.218.247c1.7-1.111 3.767-1.823 4.778-3.697.332-.624.642-1.433.112-2.017Z" fill="#466E44"/><path d="M76.793 7.167a.938.938 0 0 0-1.155-.666.962.962 0 0 0-.433.248 15.319 15.319 0 0 0-3.751 5.183.951.951 0 0 0 .288 1.305.933.933 0 0 0 1.296-.29.83.83 0 0 0 .161-.113c.729-.818 1.476-1.62 2.186-2.454.358-.404.68-.84.961-1.302a2.75 2.75 0 0 0 .447-1.91Z" fill="#3E643C"/><path d="M70.487 9.387a1.474 1.474 0 0 0-.109-.412c-.315-.76-.694-1.49-1.132-2.186-.43-.68-.93-1.46-1.683-1.807-.561-.263-1.271-.369-1.767.093-.555.512-.276 1.25 0 1.811.37.737.845 1.416 1.407 2.017.596.678 1.24 1.524 2.17 1.717a.958.958 0 0 0 .713-.097.97.97 0 0 0 .447-.568c.037-.19.02-.386-.046-.568Z" fill="#466E44"/><path d="M71.724 7.614a1.526 1.526 0 0 0-.109-.416c-.316-.759-.694-1.49-1.131-2.185-.431-.678-.93-1.458-1.684-1.808-.561-.259-1.271-.368-1.767.094-.552.515-.273 1.249 0 1.81.37.739.844 1.42 1.407 2.02.596.678 1.256 1.524 2.17 1.715.241.062.497.028.713-.096a.967.967 0 0 0 .447-.566c.037-.19.02-.387-.046-.568Z" fill="#3E643C"/><path d="M73.627.701a.959.959 0 0 0-.899-.7c-1.327-.062-1.665 1.593-1.86 2.595a11.249 11.249 0 0 0-.136 3.304c.025.196.096.383.207.546a1.176 1.176 0 0 0 .689.625c.502.196.995-.222 1.159-.662.682-1.84 1.138-3.74.84-5.708Z" fill="#466E44"/><path d="M77.757 16.79c-1.067-.312-2.198.347-3.14.765-.918.346-1.786.815-2.58 1.393a.832.832 0 0 0-.286.137c-.05-.312-.117-.624-.18-.937a21.979 21.979 0 0 0-.663-2.47 4.395 4.395 0 0 0-.167-.43h.074a.966.966 0 0 0 .567-.44.977.977 0 0 0 .11-.712 6.115 6.115 0 0 0-1.325-2.498 8.684 8.684 0 0 0-1.996-1.808c-.546-.337-1.355-.662-1.929-.218a1.143 1.143 0 0 0-.387 1.223c.086.257.2.503.34.734a9.96 9.96 0 0 0 1.573 2.117c.337.343.699.661 1.082.952a1.29 1.29 0 0 0-.469.681c-.09.47-.09.951 0 1.42.06.39.164.772.31 1.137.36.88.814 1.717 1.352 2.498a.952.952 0 0 0 1.29.34.935.935 0 0 0 .214-.256c.184.208.438.338.713.366a7.431 7.431 0 0 0 5.085-1.227c.442-.271.825-.632 1.122-1.059a1.17 1.17 0 0 0-.71-1.708Z" fill="#2E542B"/><path d="M77.45 11.086a.963.963 0 0 0-.447-.568.952.952 0 0 0-.713-.094 6.952 6.952 0 0 0-3.987 2.81.958.958 0 0 0 .338 1.299c.19.101.408.136.62.1.893.365 1.944-.272 2.654-.793.862-.637 1.851-1.534 1.535-2.754ZM76.352 4.332a1.199 1.199 0 0 0-1.24-.521c-.496.1-.886.5-1.24.846-.287.28-.554.58-.8.896-.273.358-.522.733-.747 1.124-.18-1.361-.62-2.707-1.615-3.681a1.742 1.742 0 0 0-1.656-.562 1.427 1.427 0 0 0-.741.559c-.179.264-.265.58-.245.899.032.461.13.915.289 1.349.157.497.35.98.58 1.449.461.955 1.081 1.917 2.142 2.248a.81.81 0 0 0 .487-.02c-.06.053-.116.11-.165.173l-.096.137a.942.942 0 0 0 .696 1.415.962.962 0 0 0 .597-.116c1.575-.98 3.156-2.083 3.78-3.931a3.88 3.88 0 0 0 .204-1.396c0-.304-.08-.603-.23-.868Z" fill="#2E542B"/><path d="M71.197 20.587a1.974 1.974 0 0 0-1.216-.965.787.787 0 0 0-.12 0 5.725 5.725 0 0 0-.909-.45 3.772 3.772 0 0 0-1.138-.262 1.232 1.232 0 0 0-.911.312 1.188 1.188 0 0 0-.31 1.202 2.924 2.924 0 0 0 1.584 1.711c.39.19.795.343 1.212.46.568.159 1.24.337 1.712-.15.47-.488.387-1.306.096-1.858ZM70.189 16.715a.76.76 0 0 0-.096-.187c-.022-.128-.031-.26-.065-.387v-.122a6.367 6.367 0 0 0-.115-.874 2.503 2.503 0 0 0-.81-1.533 1.68 1.68 0 0 0-.743-.313 1.623 1.623 0 0 0-1.17-.162c-.204.063-.394.17-.554.312a.385.385 0 0 0-.084.032 1.101 1.101 0 0 0-.338.34 1.015 1.015 0 0 0-.096.73c.142.73.444 1.417.886 2.011a4.912 4.912 0 0 0 1.666 1.424.958.958 0 0 0 .951 0 .742.742 0 0 0 .205-.225.916.916 0 0 0 .214-.237.352.352 0 0 0 .071-.081.941.941 0 0 0 .078-.728ZM74.846 11.754c-.546 0-.952.437-1.321.787-.251.237-.493.487-.722.746-.57.64-1.082 1.328-1.532 2.057a.968.968 0 0 0 .341 1.3c.06.027.124.048.19.062.064.105.145.198.241.275a1.04 1.04 0 0 0 1.21.037c.35-.241.675-.518.97-.827a6.64 6.64 0 0 0 1.392-1.786c.206-.407.327-.852.356-1.308a1.225 1.225 0 0 0-.658-1.215 1.202 1.202 0 0 0-.467-.128ZM71.525 12.485a1.03 1.03 0 0 0-.282-.425c-.023-.3-.063-.6-.118-.896a6.795 6.795 0 0 0-.214-.703 3.448 3.448 0 0 0-.34-.78 1.375 1.375 0 0 0-1.114-.668 1.14 1.14 0 0 0-.784.334c-.21.226-.331.521-.344.83-.014.184-.008.37.015.553.019.262.06.522.121.777a2.476 2.476 0 0 0 1.033 1.47.942.942 0 0 0 .415.618.925.925 0 0 0 .732.117l.223-.066c.238-.07.44-.23.562-.447a.968.968 0 0 0 .095-.714Z" fill="#557F51"/><path d="M71.041 22.763c-.078-.454-.2-.9-.365-1.33a4.328 4.328 0 0 0-.413-.874c-.021-.028-.056-.044-.074-.072.03.01.06.016.09.019.25 0 .49-.1.666-.278.167-.185.264-.422.276-.672a7.032 7.032 0 0 0-.083-1.767c-.097-.577-.242-1.274-.664-1.708a1.21 1.21 0 0 0-1.448-.237 1.294 1.294 0 0 0-.62 1.124c.008.278.048.555.118.824.043.213.093.422.155.625.146.456.376.88.679 1.249a.836.836 0 0 0 .071.28 1.087 1.087 0 0 0-.62 0 1.002 1.002 0 0 0-.564.438c-.031.075-.062.153-.096.228a.999.999 0 0 0 0 .506c.156.969.587 1.872 1.24 2.6.079.16.199.296.347.394.04.017.082.031.124.044a.924.924 0 0 0 1.123-.138.965.965 0 0 0 .058-1.255ZM75.18 19.132a1.11 1.11 0 0 0-1.128.062c-.525.313-1.002.7-1.417 1.15-.546.59-1.091 1.326-1.054 2.185a1.04 1.04 0 0 0 .412.762.977.977 0 0 0 .087.125 1.04 1.04 0 0 0 1.274.156 3.34 3.34 0 0 0 .707-.784c.428-.507.829-1.036 1.2-1.586.076-.118.144-.24.205-.365.14-.238.223-.505.245-.781a1.058 1.058 0 0 0-.53-.924Z" fill="#387437"/><path d="M74.278 13.505a2.112 2.112 0 0 0-1.196.606c-.442.38-.81.838-1.086 1.352-.319.593-.593 1.21-.818 1.845a.961.961 0 0 0 .668 1.18.926.926 0 0 0 .718-.105.758.758 0 0 0 .071-.07.835.835 0 0 0 .245.05c.247-.015.481-.113.667-.277.486-.39.895-.869 1.206-1.411.168-.3.31-.613.424-.937.126-.322.203-.66.227-1.005a1.16 1.16 0 0 0-.676-1.127 1.139 1.139 0 0 0-.45-.1ZM71.764 13.496a1.013 1.013 0 0 0-.282-.43 5.948 5.948 0 0 0-.217-.806c-.236-.578-.515-1.18-1.08-1.502a1.447 1.447 0 0 0-1.15-.15 1.104 1.104 0 0 0-.7.64c-.095.274-.106.57-.031.85.07.548.233 1.082.48 1.576.31.587.83 1.033 1.454 1.249a.955.955 0 0 0 .73-.094s.024-.028.04-.037a1.02 1.02 0 0 0 .539-.387l.12-.175a.977.977 0 0 0 .097-.734ZM74.808 6.777a.97.97 0 0 0-1.032.197 8.8 8.8 0 0 0-1.42 1.427 3.735 3.735 0 0 0-.738 1.942.754.754 0 0 0 .04.23 1.01 1.01 0 0 0-.186.313.992.992 0 0 0 .106.778.933.933 0 0 0 .812.47c.277-.01.541-.122.744-.311.069-.063.13-.128.192-.194.128-.131.249-.265.366-.403.288-.34.552-.698.79-1.074.201-.315.378-.645.531-.986.249-.473.378-1.001.375-1.537a.972.972 0 0 0-.58-.852Z" fill="#387437"/><path d="M70.093 7.526a1.232 1.232 0 0 0-.096-.25l-.016-.027a1.533 1.533 0 0 0-.149-.194l-.024-.028c-.06-.051-.122-.1-.187-.144l-.03-.019a1.59 1.59 0 0 0-.227-.096h-.034a1.803 1.803 0 0 0-.242-.032 1.284 1.284 0 0 0-.248.032h-.034a1 1 0 0 0-.406.24.085.085 0 0 0-.025.022c-.052.06-.1.124-.145.19-.022.038-.04.091-.056.125a.933.933 0 0 0-.05.125c-.04.163-.04.334 0 .497.02.086.053.168.1.243.004.009.01.016.018.022.015.037.028.075.046.112a.604.604 0 0 0 .211.231c.022.02.053.025.075.041a1.009 1.009 0 0 0 .582.197.868.868 0 0 0 .27-.04c.152-.05.29-.131.406-.241v-.019a1.72 1.72 0 0 0 .146-.19.892.892 0 0 0 .106-.25 1.027 1.027 0 0 0 .04-.3 1.677 1.677 0 0 0-.031-.247ZM74.018 11.426a.197.197 0 0 0 0-.04c0-.047-.062-.157-.084-.2v-.016a.873.873 0 0 0-.074-.097.88.88 0 0 0-.078-.1l-.093-.075c-.021 0-.065-.053-.099-.071h-.016c-.027 0-.167-.075-.198-.085h-.015l-.224-.028a.557.557 0 0 0-.124.016 1.223 1.223 0 0 0-.124 0l-.195.084h-.019c-.034.022-.074.06-.096.075-.021.016-.068.05-.096.075v.016a.792.792 0 0 0-.068.087l-.028.022-.03.031c-.05.057-.096.116-.137.178v.038c-.025.05-.065.15-.084.2-.019.05 0 0 0 0a1.035 1.035 0 0 0-.037.252v.038c0 .072.018.146.03.218a.085.085 0 0 0 0 .038c.016.043.066.159.084.203a.08.08 0 0 0 0 .022c.02.03.053.071.072.096.018.025.05.07.077.097.025.025.14.113.168.131l.198.085.22.03h.13c.02 0 .087 0 .128-.018l.198-.081h.025l.04-.028.202-.156a.973.973 0 0 0 .127-.15c.028-.038.065-.078.09-.119v-.022c.03-.059.059-.137.087-.203a.188.188 0 0 0 0-.043c0-.047.024-.172.027-.222v-.034c.013-.08.018-.162.016-.244Z" fill="#635874"/><path d="M70.146 14.22a.82.82 0 0 0-.112-.418l-.13-.168a.853.853 0 0 0-.363-.213l-.267-.037h-.12l-.134.015-.14.019-.055.016c-.082.03-.161.064-.239.103l-.037.025c-.062.043-.124.093-.183.14l-.019.019v.019a2.008 2.008 0 0 0-.164.221 1.63 1.63 0 0 0-.09.213v.021a1.27 1.27 0 0 0-.037.266v.031c0 .056.022.169.03.225a.261.261 0 0 0 0 .047c.027.08.06.157.1.23.037.054.093.123.133.172v.02h.02l.166.13h.02l.197.085c.085.021.171.034.258.037h.03l.218-.028a.073.073 0 0 0 .034 0c.079-.026.154-.06.226-.1l.09-.069.087-.068v-.016c.05-.056.096-.122.14-.181a.458.458 0 0 0 .043-.075c.034-.078.068-.153.096-.234a.177.177 0 0 0 0-.044c0-.022 0-.043.016-.062a.625.625 0 0 0 .07-.144c.097-.05.106-.125.116-.197Z" fill="#4C3A6A"/><path d="M71.872 10.461a.819.819 0 0 0-.111-.418l-.13-.169a.854.854 0 0 0-.363-.212 2.338 2.338 0 0 0-.444-.066 1.786 1.786 0 0 0-.31.038 1.376 1.376 0 0 0-.275.11l-.081.043c-.056.044-.118.09-.17.137h-.02c-.056.061-.108.127-.154.197a.993.993 0 0 0-.121.268c-.045.17-.045.349 0 .519.04.16.122.306.239.421a.93.93 0 0 0 .427.253c.096.026.194.037.292.034.105-.003.209-.019.31-.046.092-.031.181-.07.267-.116a1.43 1.43 0 0 0 .248-.184c.068-.068.13-.144.183-.225l.024-.037c.016-.03.03-.06.04-.09a.596.596 0 0 0 .13-.254c0-.056.01-.14.02-.203ZM74.632 15.085c0-.075-.022-.159-.031-.23a.314.314 0 0 0 0-.054 4.361 4.361 0 0 0-.09-.212v-.05c-.043-.063-.093-.125-.14-.184a.25.25 0 0 0-.04-.04 2.1 2.1 0 0 0-.186-.144l-.025-.02h-.025a3.273 3.273 0 0 0-.217-.093h-.058a1.425 1.425 0 0 0-.276-.034.654.654 0 0 0-.31.072.619.619 0 0 0-.24.156h-.033a.824.824 0 0 0-.412.823.833.833 0 0 0 .102.307c.052.072.102.144.16.21l.044.043.025.019c.059.05.121.096.183.143l.053.035.05.024.216.094h.118l.223.031h.158c.041-.003.081-.008.121-.015a.93.93 0 0 0 .397-.228l.065-.084.069-.088c0-.022.077-.18.083-.203.008-.039.015-.079.019-.118v-.122l-.003-.038ZM67.346 15.872a1.005 1.005 0 0 0-.14-.487l-.127-.168-.021-.02a2.212 2.212 0 0 0-.177-.137l-.195-.084a.923.923 0 0 0-.509 0 .928.928 0 0 0-.353.206.21.21 0 0 0-.044 0 .892.892 0 0 0-.533.419.942.942 0 0 0-.084.693.98.98 0 0 0 .685.677h.05c.086.017.173.027.26.031.105 0 .21-.014.31-.04.099-.03.194-.069.286-.116a1.18 1.18 0 0 0 .313-.24 1.041 1.041 0 0 0 .285-.69l-.006-.044Z" fill="#4C3B68"/><path d="m72.874 18.236-.084-.197a.582.582 0 0 0-.21-.231.381.381 0 0 0-.18-.106.59.59 0 0 0-.31-.072h-.339c-.085.004-.17.015-.254.031a.602.602 0 0 0-.13.053.787.787 0 0 0-.471.472.61.61 0 0 0-.047.112c0 .075-.021.147-.03.222a.742.742 0 0 0 0 .115v.116a.88.88 0 0 0 .086.21v.015c.043.056.084.112.127.165a.87.87 0 0 0 .425.247c.025 0 .043.037.068.044a1.455 1.455 0 0 0 .316.034c.09-.004.18-.015.267-.034a1.56 1.56 0 0 0 .242-.097.659.659 0 0 0 .124-.09.702.702 0 0 0 .115-.098 1.47 1.47 0 0 0 .14-.184.92.92 0 0 0 .052-.115.842.842 0 0 0 .08-.36.865.865 0 0 0 .013-.252Z" fill="#4C3A6A"/><path d="m78.014 15.02-.13-.169a.795.795 0 0 0-.363-.212h-.043a1.39 1.39 0 0 0-.254-.034h-.04c-.072 0-.162.018-.236.03h-.019a.735.735 0 0 0-.17.073h-.028l-.075.021c-.089.034-.175.071-.26.113a.993.993 0 0 0-.214.156l-.022.022c-.025.028-.052.069-.071.094a.71.71 0 0 0-.071.096s-.078.172-.087.2c-.01.028 0 .078 0 .122v.11a.885.885 0 0 0 .434.764l.198.084h.031c.08 0 .165.025.245.032a1.3 1.3 0 0 0 .75-.206c.066-.047.128-.097.19-.147l.028-.025.043-.05c.06-.07.114-.143.164-.219.042-.082.078-.168.109-.256a.943.943 0 0 0-.08-.624l-.029.025ZM69.718 18.913a.582.582 0 0 0-.019-.122l-.084-.196a1.117 1.117 0 0 0-.136-.178 1.028 1.028 0 0 0-.195-.156l-.04-.025a1.646 1.646 0 0 0-.24-.097h-.046a.616.616 0 0 0-.326 0c-.037 0-.068.025-.105.031h-.034l-.217.031a.62.62 0 0 0-.28.147.43.43 0 0 0-.148.15.625.625 0 0 0-.146.281.043.043 0 0 0 0 .022v.11c0 .037 0 .077-.015.115 0 .037.015.1.015.118v.144c.016.04.066.16.084.2v.018s.093.132.14.182c.032.029.066.056.102.08a.53.53 0 0 0 .12.085l.097.044.105.044h.044c.071 0 .155.024.226.03h.084c.104-.003.208-.017.31-.04h.034l.195-.084a.91.91 0 0 0 .465-.793.502.502 0 0 0 .01-.14Z" fill="#635874"/><path d="M73.674 6.649a.63.63 0 0 0 0-.33c-.028-.066-.056-.132-.08-.198a.85.85 0 0 0-.31-.296l-.196-.085a.865.865 0 0 0-.437 0c-.094.032-.185.07-.273.113a2.105 2.105 0 0 0-.3.225 2.055 2.055 0 0 0-.23.306.356.356 0 0 0-.136.35c-.016.084-.026.171-.035.255v.05a.858.858 0 0 0 .115.419.583.583 0 0 0 .21.23.594.594 0 0 0 .28.15.865.865 0 0 0 .437 0c.101-.026.199-.065.291-.115a1.372 1.372 0 0 0 .323-.256c.068-.077.129-.16.18-.25a.12.12 0 0 0 0-.028c.03-.069.062-.14.09-.209a.377.377 0 0 0 0-.056c0-.066.018-.131.024-.197.007-.065.047-.05.047-.078Z" fill="#4C3A6A"/><path d="M97.38 8.629c-.02-.856-2.075-.86-2.056 0a263.82 263.82 0 0 1-.233 18.4c-.04.855 2.015.855 2.056 0 .291-6.133.368-12.266.232-18.4Z" fill="#80653B"/><path d="M95.342 18.383a1.076 1.076 0 0 0-.502-.522l-2.105-1.165c-.7-.39-1.569-.774-2.356-.374a1.207 1.207 0 0 0-.695.912c-.031.285.023.573.155.827.191.403.484.748.85 1.002.667.409 1.417.66 2.195.737.195.031.387.062.576.103l.106.022.059.019.065.018c.107.042.218.074.331.094a1.063 1.063 0 0 0 1.129-.684.854.854 0 0 0 .183-.262.968.968 0 0 0 .01-.727Z" fill="#466E44"/><path d="M92.666 15.572a1.077 1.077 0 0 0-.502-.52l-2.102-1.166c-.704-.387-1.572-.774-2.36-.374a1.207 1.207 0 0 0-.694.912c-.031.285.023.573.155.827.192.403.485.748.85 1.002.668.41 1.42.661 2.198.737.192.031.384.062.573.103l.106.025h.059l.065.019c.107.042.218.073.332.093a1.07 1.07 0 0 0 1.131-.683.9.9 0 0 0 .18-.263.943.943 0 0 0 .01-.711Z" fill="#3E643C"/><path d="M93.848 14.42a1.081 1.081 0 0 0-.276-.67l-1.529-1.874c-.508-.625-1.175-1.305-2.055-1.224a1.187 1.187 0 0 0-.977.587 1.436 1.436 0 0 0-.161.846c.028.446.173.877.419 1.249a5.194 5.194 0 0 0 1.773 1.502c.167.1.335.2.496.312l.087.062c.018.011.036.024.052.038l.053.04c.083.082.174.153.273.213a1.066 1.066 0 0 0 1.299-.216c.1-.042.19-.102.267-.178a.953.953 0 0 0 .279-.687ZM102.91 13.687c-.58-.625-1.333-.263-1.959.04a10.04 10.04 0 0 0-2.326 1.586 9.978 9.978 0 0 0-1.978 2.457.975.975 0 0 0-.025.875c.012.18.074.352.18.496a.93.93 0 0 0 1.216.244c1.69-1.093 3.767-1.805 4.78-3.69.314-.603.652-1.425.112-2.008Z" fill="#466E44"/><path d="M106.24 13.265c-.577-.624-1.33-.262-1.957.04a10.16 10.16 0 0 0-4.306 4.06.983.983 0 0 0-.022.874c.011.178.073.349.177.493a.928.928 0 0 0 1.219.247c1.689-1.096 3.766-1.805 4.777-3.69.323-.619.654-1.44.112-2.024Z" fill="#3E643C"/><path d="M104.042 9.131c-.577-.624-1.33-.262-1.957.04a10.16 10.16 0 0 0-4.306 4.06.983.983 0 0 0-.022.874.94.94 0 0 0 .177.493.93.93 0 0 0 1.218.247c1.69-1.096 3.767-1.805 4.778-3.69.323-.631.654-1.44.112-2.024Z" fill="#466E44"/><path d="M101.816 7.167a.934.934 0 0 0-.658-.665.955.955 0 0 0-.93.247 15.363 15.363 0 0 0-3.751 5.183.951.951 0 0 0 .288 1.305.933.933 0 0 0 1.296-.29.824.824 0 0 0 .161-.113c.732-.818 1.476-1.62 2.186-2.454.358-.404.68-.84.961-1.302.379-.56.538-1.24.447-1.91Z" fill="#3E643C"/><path d="M95.51 9.387a1.474 1.474 0 0 0-.11-.412c-.314-.76-.693-1.49-1.13-2.186-.432-.68-.93-1.46-1.684-1.807-.561-.263-1.268-.369-1.767.093-.552.512-.273 1.25 0 1.811a8.62 8.62 0 0 0 1.407 2.017c.596.678 1.24 1.524 2.17 1.717a.955.955 0 0 0 .713-.096.967.967 0 0 0 .447-.569c.036-.19.02-.386-.047-.568Z" fill="#466E44"/><path d="M96.746 7.614a1.522 1.522 0 0 0-.108-.416 14.442 14.442 0 0 0-1.132-2.185c-.43-.678-.93-1.458-1.68-1.808-.564-.259-1.271-.368-1.77.094-.552.515-.273 1.249 0 1.81a8.659 8.659 0 0 0 1.407 2.02c.596.678 1.24 1.524 2.17 1.715.241.062.496.028.713-.096a.967.967 0 0 0 .447-.566c.036-.19.02-.387-.047-.568Z" fill="#3E643C"/><path d="M98.653.701a.95.95 0 0 0-.912-.7c-1.323-.062-1.664 1.593-1.86 2.595a11.249 11.249 0 0 0-.136 3.304c.025.196.097.383.208.546a1.176 1.176 0 0 0 .688.625c.502.196.995-.222 1.16-.662.691-1.84 1.147-3.74.852-5.708Z" fill="#466E44"/><path d="M102.78 16.79c-1.067-.312-2.198.347-3.14.765-.918.346-1.786.815-2.58 1.393a.863.863 0 0 0-.285.137c-.05-.312-.118-.624-.18-.937a21.975 21.975 0 0 0-.664-2.47 4.456 4.456 0 0 0-.167-.43h.077a.965.965 0 0 0 .567-.44.977.977 0 0 0 .11-.712 6.158 6.158 0 0 0-1.328-2.498 8.622 8.622 0 0 0-1.996-1.808c-.546-.337-1.355-.662-1.926-.218a1.14 1.14 0 0 0-.39 1.223c.086.258.201.504.344.734a9.844 9.844 0 0 0 1.575 2.139c.338.343.7.661 1.082.952a1.29 1.29 0 0 0-.468.68c-.092.47-.092.952 0 1.421.059.39.163.771.31 1.137.36.88.813 1.717 1.351 2.498a.952.952 0 0 0 1.29.34.935.935 0 0 0 .214-.256c.184.209.44.34.716.365a7.426 7.426 0 0 0 5.085-1.227c.443-.27.825-.63 1.122-1.058a1.172 1.172 0 0 0-.242-1.484 1.147 1.147 0 0 0-.477-.246Z" fill="#2E542B"/><path d="M102.492 11.086a.972.972 0 0 0-.45-.567.956.956 0 0 0-.713-.095 6.95 6.95 0 0 0-3.987 2.81.96.96 0 0 0 .338 1.299c.19.101.408.136.62.1.893.365 1.944-.272 2.654-.793.846-.637 1.848-1.533 1.538-2.754ZM101.375 4.332a1.197 1.197 0 0 0-1.24-.521c-.496.1-.886.5-1.24.846-.287.28-.554.58-.8.896-.273.358-.522.733-.747 1.124-.18-1.361-.62-2.707-1.612-3.681a1.748 1.748 0 0 0-1.659-.562 1.427 1.427 0 0 0-.741.559c-.179.264-.265.58-.245.899.034.46.131.915.289 1.349.158.496.352.98.58 1.449.461.955 1.081 1.917 2.142 2.248a.81.81 0 0 0 .486-.02 1.25 1.25 0 0 0-.164.173l-.093.137a.941.941 0 0 0 .693 1.414.961.961 0 0 0 .597-.115c1.578-.98 3.156-2.083 3.779-3.931.153-.449.222-.922.205-1.396a1.727 1.727 0 0 0-.23-.868Z" fill="#2E542B"/><path d="M96.22 20.587a1.966 1.966 0 0 0-1.213-.965.828.828 0 0 0-.124 0 5.734 5.734 0 0 0-.908-.45 3.75 3.75 0 0 0-1.138-.262 1.231 1.231 0 0 0-.908.312 1.192 1.192 0 0 0-.31 1.202 2.921 2.921 0 0 0 1.584 1.711c.39.19.795.343 1.212.46.567.159 1.24.337 1.715-.15.474-.488.381-1.306.09-1.858ZM95.215 16.715a.901.901 0 0 0-.1-.187c-.02-.128-.03-.26-.061-.387v-.122a6.367 6.367 0 0 0-.115-.874 2.503 2.503 0 0 0-.812-1.533 1.664 1.664 0 0 0-.744-.313 1.617 1.617 0 0 0-1.166-.162c-.206.063-.396.17-.558.312a.385.385 0 0 0-.084.032c-.135.088-.25.204-.338.34a1.015 1.015 0 0 0-.093.73c.14.73.442 1.417.884 2.012a4.899 4.899 0 0 0 1.665 1.423.958.958 0 0 0 .951 0 .74.74 0 0 0 .205-.225.932.932 0 0 0 .217-.237.431.431 0 0 0 .068-.081.97.97 0 0 0 .081-.728ZM99.869 11.754c-.546 0-.952.437-1.321.787-.251.237-.49.487-.722.746a14.359 14.359 0 0 0-1.529 2.057.964.964 0 0 0 .338 1.3c.061.026.124.047.19.062.063.105.145.198.24.275a1.04 1.04 0 0 0 1.21.037c.351-.241.676-.518.97-.827a6.644 6.644 0 0 0 1.393-1.786c.205-.408.327-.853.359-1.308a1.226 1.226 0 0 0-.661-1.215 1.21 1.21 0 0 0-.467-.128ZM96.548 12.485a1.002 1.002 0 0 0-.282-.425c-.022-.3-.061-.6-.118-.896a6.795 6.795 0 0 0-.214-.703 3.306 3.306 0 0 0-.34-.78 1.369 1.369 0 0 0-1.114-.668 1.146 1.146 0 0 0-.784.334c-.208.227-.33.521-.344.83-.012.184-.007.37.015.553.019.262.06.522.121.777.15.603.519 1.127 1.032 1.47a.94.94 0 0 0 .416.618.925.925 0 0 0 .732.117l.22-.06a.953.953 0 0 0 .567-.447.964.964 0 0 0 .093-.72Z" fill="#557F51"/><path d="M96.068 22.763c-.081-.454-.205-.9-.37-1.33a4.328 4.328 0 0 0-.412-.874c-.021-.028-.052-.044-.074-.072.03 0 .059.022.09.019a.925.925 0 0 0 .666-.278c.167-.185.264-.422.276-.672a6.89 6.89 0 0 0-.083-1.767c-.093-.577-.242-1.274-.664-1.708a1.21 1.21 0 0 0-1.448-.237 1.285 1.285 0 0 0-.62 1.124c.006.279.044.555.115.824.042.211.094.42.158.625.143.457.374.881.679 1.249.006.097.03.192.068.28a1.087 1.087 0 0 0-.62 0 1.003 1.003 0 0 0-.564.438l-.093.228a.942.942 0 0 0 0 .506c.154.97.585 1.873 1.24 2.6.079.16.199.296.347.394a.998.998 0 0 0 .127.044.924.924 0 0 0 1.123-.138.975.975 0 0 0 .059-1.255ZM100.203 19.132a1.107 1.107 0 0 0-1.128.062c-.524.314-1.001.7-1.417 1.15-.546.59-1.091 1.326-1.05 2.185a1.026 1.026 0 0 0 .408.762.987.987 0 0 0 .087.125 1.042 1.042 0 0 0 1.278.156 3.33 3.33 0 0 0 .703-.784c.428-.507.83-1.037 1.203-1.586.075-.119.143-.24.205-.365.138-.239.221-.506.242-.781a1.047 1.047 0 0 0-.531-.924Z" fill="#387437"/><path d="M99.301 13.505c-.453.067-.873.28-1.197.606-.441.38-.81.838-1.085 1.352-.319.593-.593 1.21-.818 1.845a.961.961 0 0 0 .668 1.18.926.926 0 0 0 .718-.105.498.498 0 0 0 .071-.07.835.835 0 0 0 .245.05c.247-.015.483-.113.67-.277.484-.392.892-.87 1.203-1.411.169-.3.311-.613.424-.937.128-.321.204-.66.227-1.005a1.148 1.148 0 0 0-1.126-1.227ZM96.787 13.496a1.012 1.012 0 0 0-.282-.43 5.922 5.922 0 0 0-.214-.806c-.236-.578-.515-1.18-1.082-1.502a1.448 1.448 0 0 0-1.15-.15 1.104 1.104 0 0 0-.701.64c-.096.274-.106.57-.031.85.07.548.233 1.082.48 1.576.31.588.832 1.034 1.458 1.249a.947.947 0 0 0 .725-.094.493.493 0 0 0 .04-.037c.218-.064.409-.2.54-.387l.12-.175a.977.977 0 0 0 .097-.734ZM99.831 6.777a.964.964 0 0 0-1.029.197A8.713 8.713 0 0 0 97.38 8.4a3.733 3.733 0 0 0-.735 1.942.666.666 0 0 0 .037.23.937.937 0 0 0-.182.313.99.99 0 0 0 .102.777.935.935 0 0 0 .812.472c.277-.011.541-.122.744-.312a8.938 8.938 0 0 0 .558-.596c.288-.34.552-.699.79-1.075.201-.315.378-.645.531-.986.249-.474.378-1.001.375-1.537a.966.966 0 0 0-.58-.852Z" fill="#387437"/><path d="M95.119 7.526a1.225 1.225 0 0 0-.1-.25V7.25a1.852 1.852 0 0 0-.145-.194l-.028-.028c-.06-.051-.121-.1-.186-.144l-.031-.019a1.546 1.546 0 0 0-.223-.096h-.037a1.806 1.806 0 0 0-.242-.032 1.285 1.285 0 0 0-.248.032h-.034c-.153.047-.292.13-.406.24l-.025.022c-.052.06-.101.124-.146.19a.82.82 0 0 0-.053.125.926.926 0 0 0-.052.125c-.04.163-.04.334 0 .497a.725.725 0 0 0 .117.265c0 .037.028.075.047.112a.604.604 0 0 0 .21.231c.022.02.053.025.075.041a1.007 1.007 0 0 0 .583.197.87.87 0 0 0 .27-.04c.151-.05.29-.131.406-.241l.018-.019c.051-.06.099-.124.143-.19a.997.997 0 0 0 .109-.25 1.37 1.37 0 0 0 .04-.272v-.028a2.18 2.18 0 0 0-.062-.247ZM99.044 11.426v-.04a3.88 3.88 0 0 0-.087-.2v-.016a.873.873 0 0 0-.074-.097.904.904 0 0 0-.078-.1l-.093-.075c-.018 0-.065-.053-.096-.071-.03 0-.17-.075-.201-.085l-.22-.028a.557.557 0 0 0-.125.016 1.221 1.221 0 0 0-.124 0h-.105l-.195.084h-.019l-.096.075c-.022.019-.068.05-.096.075v.016a.781.781 0 0 0-.068.087l-.028.022-.031.031a2.464 2.464 0 0 0-.137.178v.038c-.025.05-.065.15-.083.2a1.045 1.045 0 0 0-.038.252v.038c0 .072.022.146.031.218a.085.085 0 0 0 0 .038c0 .043.066.159.084.203a.08.08 0 0 0 0 .022l.071.096c.019.022.05.07.078.097l.167.131h.016l.198.085h.028l.22.03h.13c.016 0 .09 0 .13-.018l.196-.081h.025l.04-.028.202-.156c.048-.046.091-.096.13-.15.028-.038.062-.078.087-.119v-.022c.03-.059.059-.137.087-.203a.177.177 0 0 0 0-.043c0-.047.024-.172.03-.222v-.034c.02-.08.035-.162.044-.244Z" fill="#635874"/><path d="M95.168 14.22a.819.819 0 0 0-.111-.418l-.13-.168a.854.854 0 0 0-.363-.213l-.267-.037h-.117l-.137.015-.136.019-.06.016c-.08.03-.16.064-.238.103l-.037.025a2.809 2.809 0 0 0-.18.14l-.022.019-.015.019a1.99 1.99 0 0 0-.165.221c-.033.07-.063.14-.09.213v.021a1.27 1.27 0 0 0-.037.266v.031c0 .056.019.169.028.225a.261.261 0 0 0 0 .047c.028.08.062.157.103.23.037.054.093.123.133.172l.019.02h.015l.167.13a.03.03 0 0 0 .016 0l.198.085c.084.021.169.034.255.037h.03l.218-.028a.073.073 0 0 0 .034 0c.078-.025.154-.059.226-.1l.09-.069.146-.034v-.016c.05-.056.096-.121.14-.18a.474.474 0 0 0 .043-.075c.034-.079.068-.153.096-.235a.188.188 0 0 0 0-.043v-.063a.625.625 0 0 0 .074-.144l.075-.23Z" fill="#4C3A6A"/><path d="M96.91 10.461a.819.819 0 0 0-.11-.418l-.13-.169a.854.854 0 0 0-.364-.212 2.344 2.344 0 0 0-.44-.066 1.789 1.789 0 0 0-.31.038 1.376 1.376 0 0 0-.353.153c-.056.044-.121.09-.174.137h-.019a1.1 1.1 0 0 0-.276.465c-.045.17-.045.349 0 .519a.95.95 0 0 0 .958.709c.105-.004.21-.02.31-.047.094-.031.184-.07.27-.116a1.248 1.248 0 0 0 .428-.409l.025-.037a.692.692 0 0 0 .04-.09.625.625 0 0 0 .133-.254l.013-.203ZM99.655 15.085c0-.075-.019-.159-.031-.23a.313.313 0 0 0 0-.054c-.025-.072-.06-.143-.09-.212v-.05c-.044-.063-.093-.125-.14-.184l-.04-.04c-.059-.05-.121-.1-.183-.144l-.025-.02h-.028a3.273 3.273 0 0 0-.217-.093h-.059a1.425 1.425 0 0 0-.275-.034.862.862 0 0 0-.555.228h-.031a.824.824 0 0 0-.31.312.834.834 0 0 0 0 .834c.052.071.105.143.164.209l.04.043.025.02c.059.05.12.096.183.143l.052.034.053.025.217.094H98.52l.223.031h.149s.08 0 .118-.015a.892.892 0 0 0 .397-.228l.065-.085c.025-.028.046-.06.068-.087 0-.022.078-.181.084-.203a.679.679 0 0 0 .018-.119c0-.022 0-.084.016-.121l-.003-.054ZM92.369 15.872a1.003 1.003 0 0 0-.14-.487l-.13-.168-.022-.02a2.21 2.21 0 0 0-.176-.137l-.196-.084a.865.865 0 0 0-.861.2.21.21 0 0 0-.044 0 .892.892 0 0 0-.642.756.916.916 0 0 0 .025.356.98.98 0 0 0 .248.424c.123.119.273.206.437.253h.05c.086.017.173.027.26.031.105 0 .21-.014.31-.04.099-.03.194-.07.286-.116a.549.549 0 0 0 .083-.05c.085-.052.162-.117.23-.19.117-.124.203-.274.25-.437.02-.084.031-.168.035-.253l-.003-.038Z" fill="#4C3B68"/><path d="m97.897 18.236-.08-.197a.623.623 0 0 0-.215-.231.381.381 0 0 0-.18-.106.59.59 0 0 0-.31-.072h-.337c-.086.004-.17.015-.255.031a.771.771 0 0 0-.13.053.648.648 0 0 0-.285.184.667.667 0 0 0-.186.288.61.61 0 0 0-.047.112c0 .075-.018.147-.03.222 0 .037 0 .078.015.115.015.038 0 .078 0 .116a.88.88 0 0 0 .087.21v.015l.127.165c.057.057.12.107.189.15a.923.923 0 0 0 .236.097c.024 0 .043.037.068.044a1.484 1.484 0 0 0 .316.034c.09-.004.179-.015.267-.034.083-.026.163-.058.241-.097a.66.66 0 0 0 .124-.09.894.894 0 0 0 .118-.098s.103-.121.14-.184c.037-.062.037-.087.05-.115a.796.796 0 0 0 .08-.36.864.864 0 0 0-.003-.252Z" fill="#4C3A6A"/><path d="m103.037 15.02-.13-.169a.794.794 0 0 0-.363-.212h-.04a1.468 1.468 0 0 0-.257-.034h-.041c-.071 0-.161.018-.232.03h-.022a.713.713 0 0 0-.17.073h-.028l-.075.021c-.089.034-.175.071-.26.113a1.073 1.073 0 0 0-.214.156l-.019.022-.074.094a1.022 1.022 0 0 0-.071.096s-.078.172-.084.2a.717.717 0 0 0-.019.122l-.015.11a.9.9 0 0 0 .434.767l.198.085h.031c.081 0 .165.024.248.03a1.29 1.29 0 0 0 .747-.205c.066-.047.128-.097.19-.147l.027-.025.044-.05c.059-.07.114-.142.164-.219.042-.082.078-.168.109-.255a.63.63 0 0 0 .015-.332.599.599 0 0 0-.093-.271ZM94.74 18.913a.854.854 0 0 0 0-.122l-.083-.196a1.008 1.008 0 0 0-.329-.334l-.043-.025a1.767 1.767 0 0 0-.236-.097H94a.615.615 0 0 0-.31 0c-.037 0-.068.025-.105.031h-.03l-.22.031a.634.634 0 0 0-.28.147.43.43 0 0 0-.149.15.627.627 0 0 0-.145.281.2.2 0 0 0 0 .022l-.016.11V19.143c0 .02 0 .082.019.119a.075.075 0 0 0 0 .025c0 .04.065.16.083.2v.018s.093.132.143.182c.03.03.064.057.1.08a.528.528 0 0 0 .12.085l.096.044.106.044h.055c.072 0 .155.024.227.03h.087c.104-.003.208-.017.31-.04h.018l.195-.084a.91.91 0 0 0 .465-.793.503.503 0 0 0-.027-.14Z" fill="#635874"/><path d="M98.697 6.649a.628.628 0 0 0 0-.33 5.244 5.244 0 0 0-.081-.198.867.867 0 0 0-.31-.296l-.198-.085a.866.866 0 0 0-.438 0c-.093.032-.184.07-.272.113a2.105 2.105 0 0 0-.3.225 2.055 2.055 0 0 0-.23.306l-.02.037a3.016 3.016 0 0 0-.095.231.632.632 0 0 0-.022.081c0 .085-.025.172-.034.256v.05a.82.82 0 0 0 .111.419.583.583 0 0 0 .211.23.62.62 0 0 0 .28.15.865.865 0 0 0 .436 0c.102-.026.2-.065.292-.115a1.375 1.375 0 0 0 .322-.256 1.66 1.66 0 0 0 .183-.25V7.19c.031-.069.062-.14.09-.209a1.059 1.059 0 0 0 .04-.253c.016-.028.035-.05.035-.078Z" fill="#4C3A6A"/><path d="M24.267 28.19a.91.91 0 0 0-.125-.14.384.384 0 0 0-.247-.672h-.106l-.084-.028a.351.351 0 0 0-.31-.184h-5.289a.374.374 0 0 0-.364.296.38.38 0 0 0 .001.169h-.08c-.493.022-.496.799 0 .777l.74-.031a.396.396 0 0 0 .332.237c.22.022.444.028.667.044a.357.357 0 0 0 .276.122h3.606a.338.338 0 0 0 .08-.019h.58a.386.386 0 0 0 .367-.383.394.394 0 0 0-.044-.188ZM52.12 27.674l-1.091-.2a.372.372 0 0 0-.35-.274l-1.681-.094a.384.384 0 0 0-.198-.253.394.394 0 0 0-.227-.112 27.038 27.038 0 0 0-5.708-.078.4.4 0 0 0-.314.198.408.408 0 0 0-.02.373h-.158a.39.39 0 0 0-.36.331l-1.575.14c-.487.044-.502.8 0 .778 2.765-.112 5.531-.21 8.3-.153.059.04.127.063.198.066 1.033.037 2.06.046 3.082.028.415.006.558-.668.102-.75ZM77.63 27.865l-1.997-.119a.311.311 0 0 0-.251-.225 17.842 17.842 0 0 0-1.287-.15l.205-.034c.45-.093.31-.737-.102-.765a42.88 42.88 0 0 0-5.975 0 .408.408 0 0 0-.17.053c-.548 0-1.097.032-1.647.094a.413.413 0 0 0-.25-.034l-1.2.218h-.038a.361.361 0 0 0-.256.215.368.368 0 0 0 .027.335c-.505.043-1.01.084-1.513.134a.387.387 0 0 0-.353.389.392.392 0 0 0 .353.388l1.801.035a.339.339 0 0 0 .341-.225c.165-.016.326-.037.49-.056a.343.343 0 0 0 .221.33.336.336 0 0 0 .139.02 57.948 57.948 0 0 1 5.844-.07c1.879.098 3.748.397 5.63.229a.384.384 0 0 0 .31-.386.39.39 0 0 0-.322-.376ZM102.383 28.43l-.152-.019a.387.387 0 0 0-.143-.74h-1.435c.133-.212.093-.556-.198-.596h-.152a29.632 29.632 0 0 0-7.708-.069.427.427 0 0 0-.358.429c0 .068.017.135.048.196a24.345 24.345 0 0 1-2.17-.16.385.385 0 0 0-.39.232.393.393 0 0 0 .231.527.386.386 0 0 0 .159.019c.257.034.515.05.772.072a.35.35 0 0 0 .257.106h2.17c-.241.215-.173.709.227.68a64.28 64.28 0 0 1 4.905-.162.387.387 0 0 0 .178.473.38.38 0 0 0 .175.045 26.067 26.067 0 0 0 3.593-.23.398.398 0 0 0 .394-.407.4.4 0 0 0-.403-.396Zm-3.27.218a.446.446 0 0 0 0-.212h2.538c.025.02.052.035.081.047-.868.1-1.741.155-2.62.165Z" fill="#A07E49"/></svg>