<svg width="55" height="78" fill="none" xmlns="http://www.w3.org/2000/svg"><path d="M34.197 37.457H20.174v39.937h14.023V37.457Z" fill="#907442"/><path d="M32.315 51.345c-.266 2.523-.22 5.092-.22 7.628 0 2.744-.08 5.582.465 8.28.319 1.58.87 3.104 1.634 4.521v2.26a17.472 17.472 0 0 1-2.79-6.694c-.533-2.828-.465-5.77-.465-8.645 0-4.718-.474-10.56 2.852-14.363a.552.552 0 0 1 .406-.2v1.543c-1.196 1.627-1.683 3.66-1.882 5.67Z" fill="#826334"/><path d="M31.075 47.408c-1.971 5.36-2.79 10.928-1.959 16.623a32.514 32.514 0 0 0 5.078 13.304v.06H32.85a33.196 33.196 0 0 1-3.132-6.311 33.824 33.824 0 0 1-1.739-16.548c.44-3.122 1.451-6.06 2.564-8.983.93-2.498 1.891-5.033 3.652-7.066v1.874c-1.435 2.107-2.26 4.677-3.119 7.047Z" fill="#826334"/><path d="M27.41 77.394c-.359-4.79-1.196-9.52-1.463-14.322-.334-5.898.558-11.752 1.613-17.535.545-3.012 1.51-5.757 3.528-8.08h-1.485a15.746 15.746 0 0 0-2.79 5.957c-.686 2.895-1.114 5.886-1.507 8.83a57.966 57.966 0 0 0-.62 8.97c.07 3.05.43 6.076.8 9.09.31 2.36.58 4.717.744 7.09h1.18ZM21.908 77.394h-1.16c-.177-1.976-.35-3.937-.524-5.901 0-.184-.034-.362-.046-.546v-6.498c.697 2.07.964 4.218 1.16 6.46.179 2.16.377 4.324.57 6.485Z" fill="#826334"/><path d="M23.014 65.804c.58 3.844 1.126 7.7 1.182 11.59h-1.16c-.08-5.258-.995-10.466-1.832-15.63-.31-1.873-.648-3.747-1.033-5.583v-5.223c.072.268.14.54.211.808.14.547.242 1.096.37 1.646 1.264-5.308 3.341-10.513 3.782-15.955h1.147c-.475 6.154-3.014 11.983-4.198 18.034a.423.423 0 0 1-.208.313c.682 3.319 1.219 6.66 1.74 10Z" fill="#826334"/><path d="M49.6 33.251c-.31-.415-.859-.911-.974-1.408-.096-.427.255-.936.416-1.33a21.737 21.737 0 0 0 1.342-4.04c.568-2.81.596-5.764-.443-8.486a13.532 13.532 0 0 0-3.47-5.07 13.408 13.408 0 0 0-5.341-2.995C41.058 3.974 34.092-.313 27.544.018c-3.603.181-7.208 1.474-9.503 4.059a10.254 10.254 0 0 0-1.686 2.66 16.438 16.438 0 0 0-4.778 3.485 15.089 15.089 0 0 0-3.846 7.202 15.157 15.157 0 0 0 .46 8.165c-6.7 5.44-9.787 14.762-7.378 22.6a12.451 12.451 0 0 0 4.002 6.027 12.312 12.312 0 0 0 6.66 2.758c.828.085 1.73 0 2.421.472.93.624 1.662 1.533 2.601 2.185 1.75 1.193 3.73 2 5.81 2.37 4.4.78 9.05 0 12.616-2.498.448-.307.877-.643 1.283-1.005.157-.13.305-.27.444-.418.046-.06.08-.097.118-.138 1.001.138 1.968.537 2.982.675 2.46.321 4.959-.093 7.187-1.19a13.062 13.062 0 0 0 5.065-4.273 13.187 13.187 0 0 0 2.335-6.224c.462-4.868-1.798-9.713-4.737-13.679Z" fill="#76924A"/><path d="M41.592 44.595a.584.584 0 0 0-.58.584c.001.4-.023.8-.074 1.198 0 .044 0 .088-.022.135a.647.647 0 0 0 .059.45.583.583 0 0 0 .58.283.578.578 0 0 0 .48-.424 9.75 9.75 0 0 0 .137-1.642.592.592 0 0 0-.58-.584ZM24.831 20.937a.577.577 0 0 0-.409-.172.59.59 0 0 0-.58.584c-.046.593-.096 1.19-.142 1.783a.585.585 0 0 0 .357.54.573.573 0 0 0 .629-.13.598.598 0 0 0 .173-.41l.143-1.783a.573.573 0 0 0-.17-.412ZM15.298 14.867a.58.58 0 0 0-.345-.268.586.586 0 0 0-.716.406l-.39 2.204a.628.628 0 0 0 .059.45.579.579 0 0 0 .574.287.574.574 0 0 0 .483-.425l.394-2.2a.629.629 0 0 0-.06-.454ZM28.53 7.071a.581.581 0 0 0-.58-.285.544.544 0 0 0-.462.432c-.106.698-.16 1.404-.161 2.11a.586.586 0 0 0 .58.584.578.578 0 0 0 .58-.583c-.001-.599.038-1.197.117-1.79a.628.628 0 0 0-.074-.468ZM36.554 10.537a.579.579 0 0 0-.822 0 .661.661 0 0 0-.167.412l-.134 1.364c0 .155.06.303.168.413a.581.581 0 0 0 .822 0 .665.665 0 0 0 .17-.413l.133-1.364a.583.583 0 0 0-.17-.412ZM43.84 14.749a.585.585 0 0 0-.962-.062.573.573 0 0 0-.099.202 14.803 14.803 0 0 1-.34 1.608.588.588 0 0 0 .395.744.577.577 0 0 0 .72-.431c.146-.528.26-1.064.344-1.605a.653.653 0 0 0-.059-.456ZM39.688 20.416a.58.58 0 0 0-.822 0 .665.665 0 0 0-.17.412c-.022.243-.05.487-.08.727-.047.313-.097.644-.156.965a.629.629 0 0 0 .06.45.58.58 0 0 0 .343.268.588.588 0 0 0 .717-.409c.122-.662.214-1.329.276-2.001a.583.583 0 0 0-.168-.412ZM12.216 23.254a.583.583 0 0 0-.58-.284.577.577 0 0 0-.383.222.563.563 0 0 0-.098.202c-.086.556-.176 1.112-.263 1.668a.628.628 0 0 0 .059.45.58.58 0 0 0 .344.268.585.585 0 0 0 .616-.207.56.56 0 0 0 .097-.202l.267-1.668a.647.647 0 0 0-.06-.45ZM35.004 28.3a.59.59 0 0 0-.58.583c-.03.716-.055 1.43-.078 2.14a.586.586 0 0 0 .58.583.578.578 0 0 0 .58-.584l.077-2.139a.595.595 0 0 0-.58-.584ZM46.977 24.39a.589.589 0 0 0-.713.41c-.12.558-.245 1.114-.369 1.673a.588.588 0 0 0 .405.72.577.577 0 0 0 .714-.408l.37-1.673a.6.6 0 0 0-.407-.722ZM28.499 35.093a.583.583 0 0 0-.58-.283.577.577 0 0 0-.48.424 176.27 176.27 0 0 1-.258 1.72.666.666 0 0 0 .06.45c.077.13.201.227.346.268a.585.585 0 0 0 .615-.206.57.57 0 0 0 .098-.203c.087-.57.171-1.145.258-1.72a.628.628 0 0 0-.06-.45ZM15.087 33.07a.585.585 0 0 0-.713.406 6.654 6.654 0 0 0-.273 1.52.589.589 0 0 0 .358.54.572.572 0 0 0 .631-.127.627.627 0 0 0 .17-.412c0-.094 0-.184.028-.275.041-.318.11-.631.205-.937a.594.594 0 0 0-.406-.715ZM6.716 33.251a.589.589 0 0 0-.713.41 6.37 6.37 0 0 0-.267 1.757.592.592 0 0 0 .58.584.598.598 0 0 0 .58-.584c0-.206.021-.409.043-.624a5.97 5.97 0 0 1 .183-.834.594.594 0 0 0-.406-.709ZM18.714 40.048a.576.576 0 0 0-.818 0 .674.674 0 0 0-.17.413 23.53 23.53 0 0 0-.146 1.898c0 .155.06.303.17.413a.578.578 0 0 0 .989-.413c.025-.624.073-1.257.146-1.898a.578.578 0 0 0-.17-.413ZM48.741 37.816a.588.588 0 0 0-.716.406 23.109 23.109 0 0 0-.44 2.6.581.581 0 0 0 .58.584.593.593 0 0 0 .58-.583l.036-.312c0-.032.025-.206 0-.056 0-.047 0-.097.022-.144a22.023 22.023 0 0 1 .335-1.78.594.594 0 0 0-.397-.715ZM50.23 49.056a.58.58 0 0 0-.345-.268.583.583 0 0 0-.713.409c-.11.624-.23 1.241-.363 1.851a.588.588 0 0 0 .396.744.575.575 0 0 0 .624-.218.586.586 0 0 0 .096-.213c.133-.625.254-1.242.363-1.852a.628.628 0 0 0-.059-.453ZM28.325 44.997a.585.585 0 0 0-.713.406 19.574 19.574 0 0 0-.443 2.423.59.59 0 0 0 .17.415.581.581 0 0 0 .819 0 .681.681 0 0 0 .17-.415l.02-.144v-.046l.036-.256a18.95 18.95 0 0 1 .341-1.664.597.597 0 0 0-.4-.719ZM11.887 48.547a.586.586 0 0 0-.713.406 12.821 12.821 0 0 0-.31 1.94.574.574 0 0 0 .168.411.618.618 0 0 0 .412.172.58.58 0 0 0 .41-.172.664.664 0 0 0 .17-.412c0-.15.03-.312.05-.443a11.7 11.7 0 0 1 .22-1.183.597.597 0 0 0-.407-.719ZM23.185 53.3a.58.58 0 0 0-.41-.172.581.581 0 0 0-.58.584c.02.476 0 .953-.055 1.426 0 .155.06.303.168.413a.618.618 0 0 0 .412.171.593.593 0 0 0 .41-.171c.03-.04.061-.078.089-.119a.581.581 0 0 0 .08-.294c.056-.473.075-.95.056-1.426a.627.627 0 0 0-.17-.413ZM37.477 51.807a.583.583 0 0 0-.58-.284.577.577 0 0 0-.213.075.668.668 0 0 0-.267.35c-.227.58-.343 1.199-.34 1.823a.578.578 0 1 0 1.16 0c0-.172.012-.344.033-.515.05-.343.139-.678.266-1a.586.586 0 0 0-.059-.449Z" fill="#647A46"/><path d="M20.047 23.213c-.3-.4-.709-.704-1.178-.874a2.51 2.51 0 0 0-1.513-.203 1.442 1.442 0 0 0-.93.778 1.956 1.956 0 0 0-.477 2.001c.36.959 1.41 1.28 2.347 1.233a2.361 2.361 0 0 0 1.441-.509c.332-.3.544-.712.596-1.158a1.787 1.787 0 0 0-.285-1.268Z" fill="#E59E4F"/><path d="M18.531 20.737a.52.52 0 0 0-.496-.13c-.358.1-.661.339-.845.664a1.43 1.43 0 0 0-.138 1.071c.037.13.121.242.236.313.075.04.157.061.242.062a.25.25 0 0 0 .084.016.495.495 0 0 0 .362-.15c.326-.39.561-.847.689-1.34a.528.528 0 0 0-.134-.506Z" fill="#2C542B"/><path d="M21.908 15.57c.051.447.264.86.598 1.158.41.326.916.507 1.439.512.93.047 1.99-.274 2.347-1.248a1.952 1.952 0 0 0-.478-2.002 1.455 1.455 0 0 0-.93-.777 2.499 2.499 0 0 0-1.51.203c-.47.169-.88.473-1.181.874a1.803 1.803 0 0 0-.285 1.28Z" fill="#E59E4F"/><path d="M23.727 11.83a.526.526 0 0 1 .5-.132c.357.102.66.34.843.666.184.325.233.71.136 1.07a.493.493 0 0 1-.477.372.248.248 0 0 1-.08 0 .487.487 0 0 1-.364-.15 3.383 3.383 0 0 1-.688-1.34.529.529 0 0 1 .13-.487Z" fill="#2C542B"/><path d="M30.589 23.554c.152.42.452.772.843.986a2.378 2.378 0 0 0 1.52.169c.93-.172 1.86-.728 2.002-1.745a1.954 1.954 0 0 0-.93-1.836 1.446 1.446 0 0 0-1.085-.544 2.52 2.52 0 0 0-1.423.547 2.582 2.582 0 0 0-.949 1.124c-.156.42-.148.884.022 1.299Z" fill="#E59E4F"/><path d="M31.497 19.491a.522.522 0 0 1 .453-.243c.372.015.723.178.976.453s.388.64.375 1.014a.539.539 0 0 1-.158.353.511.511 0 0 1-.223.116.333.333 0 0 1-.074.037.506.506 0 0 1-.388-.065 3.359 3.359 0 0 1-.976-1.143.53.53 0 0 1 .015-.522Z" fill="#2C542B"/><path d="M18.234 48.35c.15.424.45.775.843.987a2.338 2.338 0 0 0 1.52.169c.93-.172 1.86-.728 2.002-1.742a1.954 1.954 0 0 0-.93-1.84 1.452 1.452 0 0 0-1.082-.54c-.52.029-1.019.22-1.426.547a2.57 2.57 0 0 0-.93 1.12c-.162.419-.161.883.003 1.3Z" fill="#E59E4F"/><path d="M19.145 44.292a.516.516 0 0 1 .453-.244c.371.017.72.18.974.453.253.274.389.638.378 1.012a.561.561 0 0 1-.159.355.584.584 0 0 1-.223.116.22.22 0 0 1-.077.034.49.49 0 0 1-.385-.062 3.365 3.365 0 0 1-.989-1.146.526.526 0 0 1 .028-.518Z" fill="#2C542B"/><path d="M36.33 44.373c-.2-.46-.53-.85-.948-1.124a2.52 2.52 0 0 0-1.423-.547 1.437 1.437 0 0 0-1.082.544c-.312.187-.564.459-.729.784-.164.326-.234.691-.202 1.055.13 1.015 1.083 1.56 2.003 1.742.511.116 1.046.056 1.52-.169.391-.213.691-.564.843-.986.169-.415.175-.88.018-1.3Z" fill="#E59E4F"/><path d="M35.41 41.603a.52.52 0 0 0-.453-.246c-.371.017-.721.18-.974.455a1.433 1.433 0 0 0-.378 1.012.54.54 0 0 0 .158.353.55.55 0 0 0 .224.119.538.538 0 0 0 .074.034.507.507 0 0 0 .388-.062c.407-.303.74-.695.976-1.146a.524.524 0 0 0-.015-.519Z" fill="#2C542B"/><path d="M25.064 31.737a2.587 2.587 0 0 0-.949-1.124 2.528 2.528 0 0 0-1.426-.546 1.443 1.443 0 0 0-1.082.54c-.31.188-.562.46-.726.785-.165.325-.235.69-.204 1.054.13 1.018 1.082 1.561 2.003 1.745a2.375 2.375 0 0 0 1.519-.168c.391-.214.691-.565.843-.987.17-.415.178-.879.022-1.299Z" fill="#E59E4F"/><path d="M24.143 28.974a.53.53 0 0 0-.456-.244c-.371.017-.721.18-.974.455a1.427 1.427 0 0 0-.374 1.013c.005.133.062.26.158.353a.482.482 0 0 0 .22.115c.024.015.05.028.077.038.133.03.272.007.388-.066.406-.302.739-.693.973-1.143a.536.536 0 0 0-.012-.521Z" fill="#2C542B"/><path d="M9.277 42.15a2.573 2.573 0 0 0-.93-1.121 2.496 2.496 0 0 0-1.426-.547 1.443 1.443 0 0 0-1.082.54 1.954 1.954 0 0 0-.93 1.839c.13 1.015 1.081 1.562 2.002 1.743a2.34 2.34 0 0 0 1.52-.169c.392-.212.693-.563.843-.986.163-.417.165-.881.003-1.3Z" fill="#E59E4F"/><path d="M8.356 39.377a.516.516 0 0 0-.453-.243 1.41 1.41 0 0 0-.974.453 1.43 1.43 0 0 0-.377 1.011c.009.134.065.26.158.356a.584.584 0 0 0 .223.116.45.45 0 0 0 .077.034.49.49 0 0 0 .385-.063c.407-.302.741-.694.976-1.145a.524.524 0 0 0-.015-.519Z" fill="#2C542B"/><path d="M39.75 37.797c.152.422.452.773.843.987a2.353 2.353 0 0 0 1.52.169c.93-.172 1.86-.728 2.002-1.746a1.956 1.956 0 0 0-.93-1.836 1.447 1.447 0 0 0-1.082-.543c-.52.03-1.017.221-1.426.546a2.605 2.605 0 0 0-.949 1.124c-.155.42-.148.885.022 1.3Z" fill="#E59E4F"/><path d="M40.659 33.735a.53.53 0 0 1 .455-.243c.372.017.721.18.974.455.252.275.387.638.375 1.012a.523.523 0 0 1-.158.353.48.48 0 0 1-.22.116.433.433 0 0 1-.078.037.512.512 0 0 1-.387-.066 3.353 3.353 0 0 1-.974-1.142.536.536 0 0 1 .013-.522Z" fill="#2C542B"/></svg>