<svg width="119" height="69" fill="none" xmlns="http://www.w3.org/2000/svg"><path d="M118.79 37.33H0L23.284 0h74.64l20.866 37.33Z" fill="#C45F27"/><path d="M68.642 37.136h-58.25v31.376h58.25V37.136Z" fill="#E2D2AF"/><path d="M113.588 37.33 93.597 4.552 68.642 37.136V68.51h44.881l.065-31.18Z" fill="#E8DEC4"/><path d="M88.388 36.53h10.916c.714 0 1.398.286 1.903.794.505.509.788 1.198.788 1.917v29.268H85.703V39.24c0-.72.284-1.408.788-1.917a2.681 2.681 0 0 1 1.903-.793h-.006Z" fill="#BBA7C1"/><path d="M85.02 5.195c-.802 1.562-2.365 3.435-4.256 3.56s-2.17-2.186-2.096-3.625c.044-.843-1.258-1.249-1.627-.447a11.957 11.957 0 0 1-2.124 3.204c-.84.9-1.944 1.954-3.178 2.232-1.166.266-2.124-.55-2.601-1.56-.62-1.3-.44-2.867-.338-4.256.068-.903-1.206-1.156-1.628-.444a19.618 19.618 0 0 1-2.567 3.45c-.899.962-1.928 1.93-3.2 2.348a2.532 2.532 0 0 1-1.669.05 2.55 2.55 0 0 1-1.34-1.002c-.822-1.168-.903-2.673-.996-4.059-.056-.821-1.194-1.265-1.628-.447-1.197 2.258-2.768 5.255-5.683 5.333-2.774.078-3.426-3.09-3.72-5.258-.115-.84-1.215-.74-1.597-.212a38.23 38.23 0 0 1-2.657 3.303c-.8.884-1.758 1.83-3.038 1.768-2.735-.138-3.83-3.285-4.486-5.48-.208-.693-1.24-.902-1.597-.21-.958 1.84-2.397 4.66-4.886 4.397-1.898-.2-2.837-2.398-2.676-4.09.109-1.127-1.64-1.121-1.745 0-.242 2.513 1.376 5.355 3.977 5.795 2.68.456 4.555-1.452 5.891-3.553.967 2.4 2.514 4.627 5.311 4.886 1.581.144 2.942-.69 4.03-1.773.776-.786 1.5-1.62 2.17-2.498.646 2.407 2.01 4.618 4.819 4.683 2.809.066 4.675-1.798 6.101-3.962.165.838.497 1.634.977 2.339a4.235 4.235 0 0 0 1.751 1.512 4.2 4.2 0 0 0 2.28.361c1.633-.215 3.066-1.218 4.225-2.342a20.438 20.438 0 0 0 1.817-2.03c.065.825.287 1.628.654 2.367.698 1.343 2.043 2.402 3.593 2.398 1.662 0 3.147-1.142 4.307-2.229a13.27 13.27 0 0 0 1.646-1.892c.45 1.405 1.398 2.557 3.079 2.698 2.675.224 5.081-2.22 6.2-4.422.53-1.008-.98-1.901-1.494-.893Z" fill="#B44B21"/><path d="M80.336 14.122a2.803 2.803 0 0 1-1.172 1.342 2.774 2.774 0 0 1-3.34-.41 2.817 2.817 0 0 1-.817-1.588c-.103-.768-1.19-1.32-1.631-.446-1.048 2.098-2.48 5.055-5.206 5.13-2.514.072-4.325-2.754-4.557-4.996-.084-.796-1.184-1.286-1.628-.443-1.212 2.288-3.125 4.668-5.912 4.786a3.884 3.884 0 0 1-3.234-1.302c-.88-1.043-1.215-2.473-1.55-3.765-.177-.69-1.271-.912-1.597-.21-1.075 2.314-2.57 5.549-5.559 5.549-2.585 0-3.345-3.094-3.574-5.155-.106-.937-1.43-1.249-1.718-.234-.589 2.104-2.17 5.064-4.626 5.308-2.82.296-4.073-3.179-4.793-5.286-.217-.625-1.268-.959-1.596-.213a8.509 8.509 0 0 1-1.777 2.651c-.651.646-1.804 1.711-2.79 1.508-.986-.203-1.55-1.527-1.839-2.366a8.034 8.034 0 0 1-.409-3.416c.1-1.127-1.65-1.121-1.745 0a9.375 9.375 0 0 0 .69 4.449c.534 1.274 1.402 2.682 2.832 3.032 1.488.365 2.91-.572 3.999-1.499a9.428 9.428 0 0 0 1.65-1.873c1.078 2.497 2.79 4.964 5.785 4.764 2.303-.156 4.073-1.914 5.208-3.946.676 2.014 1.944 3.746 4.279 3.99 3.1.312 5.125-2.014 6.532-4.502a7.824 7.824 0 0 0 1.364 2.438 5.582 5.582 0 0 0 1.93 1.376 5.547 5.547 0 0 0 2.324.448c2.79 0 4.988-1.733 6.548-3.906.893 2.316 2.769 4.324 5.314 4.546 2.94.256 4.905-2.002 6.29-4.371a4.38 4.38 0 0 0 1.22 1.302c.49.346 1.046.585 1.633.705a4.622 4.622 0 0 0 2.912-.43 4.667 4.667 0 0 0 2.073-2.105c.48-.99-1.023-1.886-1.513-.862Z" fill="#B44B21"/><path d="M73.308 22.736c-.713 1.118-1.9 2.123-3.29 2.105-1.19-.019-2.365-.965-2.356-2.21 0-1.015-1.42-1.169-1.718-.235a4.966 4.966 0 0 1-1.957 2.563 4.91 4.91 0 0 1-3.108.81c-2.186-.235-4.03-2.224-4.214-4.41a.89.89 0 0 0-.654-.823.875.875 0 0 0-.974.39c-1.323 2.132-3.146 4.486-5.844 4.683a3.647 3.647 0 0 1-3.156-1.218c-.8-.936-1.194-2.164-1.575-3.31-.226-.677-1.24-.917-1.597-.212a18.224 18.224 0 0 1-2.117 3.226c-.76.908-1.711 2.013-2.933 2.241-1.221.228-2.12-.749-2.725-1.667a8.651 8.651 0 0 1-1.318-3.566c-.14-.961-1.41-.696-1.686 0-.81 2.064-2.673 4.662-5.24 3.997-1.994-.515-2.94-2.841-3.562-4.596-.227-.646-1.24-.952-1.597-.212-.794 1.695-2.17 4.62-4.523 4.027-2.354-.593-2.53-3.68-2.583-5.62-.031-1.13-1.776-1.136-1.749 0 .078 2.81.667 6.485 3.866 7.325 2.58.674 4.406-1.174 5.64-3.222.912 1.945 2.27 3.747 4.486 4.087 2.561.4 4.527-1.136 5.835-3.122.846 2.26 2.518 4.505 4.939 4.37 1.55-.08 2.862-1.095 3.882-2.21a18.898 18.898 0 0 0 1.96-2.563 8.23 8.23 0 0 0 1.363 2.282 5.3 5.3 0 0 0 1.892 1.342c.72.302 1.498.44 2.278.404 2.79-.09 4.858-1.84 6.458-3.95a6.44 6.44 0 0 0 2.035 2.753 6.355 6.355 0 0 0 6.52.806 6.406 6.406 0 0 0 2.634-2.176c.352.487.8.895 1.317 1.197.517.303 1.09.494 1.685.561 2.17.231 4.08-1.202 5.196-2.947.61-.965-.903-1.849-1.51-.9ZM66.794 30.739c-1.55 2.55-5.463 2.363-6.598-.49-.266-.665-1.196-.937-1.6-.21-.995 1.761-2.79 3.223-4.889 3.22-1.835 0-3.788-1.396-3.98-3.32-.072-.683-.95-1.248-1.495-.624-1.621 1.873-3.481 4.09-6.117 4.343-2.697.256-3.956-2.045-4.96-4.165a.885.885 0 0 0-.644-.425.874.874 0 0 0-.73.247c-1.86 1.873-4.03 4.093-6.848 4.153-2.698.059-4.133-2.273-5.33-4.372a.888.888 0 0 0-.644-.423.878.878 0 0 0-.73.246c-1.76 1.923-3.754 4.024-6.46 4.418a4.203 4.203 0 0 1-3.343-.819c-.809-.683-1.37-1.757-1.172-2.84.199-1.084-1.482-1.584-1.686-.47-.592 3.242 2.17 5.849 5.27 5.933 3.203.094 5.742-1.957 7.866-4.159 1.389 2.21 3.168 4.175 5.999 4.231 3.01.063 5.404-1.82 7.475-3.828 1.222 2.226 2.914 4.143 5.723 4.03 2.738-.108 4.806-1.826 6.585-3.746a5.92 5.92 0 0 0 1.984 2.305c.85.581 1.835.929 2.86 1.008 2.343.197 4.535-1.087 5.986-2.885a5.416 5.416 0 0 0 3.72 2.186 5.519 5.519 0 0 0 3.018-.575 5.567 5.567 0 0 0 2.253-2.101c.586-.946-.927-1.833-1.513-.868ZM93.426 4.64l2.908-3.279 20.875 36.297h-3.646L93.426 4.64Z" fill="#B44B21"/><path d="M88.174 54.624a.828.828 0 0 0 .825-.83c0-.459-.37-.83-.825-.83a.828.828 0 0 0-.825.83c0 .458.37.83.825.83Z" fill="#3C393F"/><path d="M33.068 46.84a43.5 43.5 0 0 0-.285-1.91c-.096-.544-.183-1.103-.62-1.493-.437-.39-.989-.468-1.516-.568a21.85 21.85 0 0 0-1.798-.26 18.675 18.675 0 0 0-3.593 0c-.23.006-.45.1-.613.265a.906.906 0 0 0-.262.707 1.174 1.174 0 0 0-.152.468 33.142 33.142 0 0 0-.105 6.79c.006.233.1.453.263.617a.896.896 0 0 0 .611.264 43.86 43.86 0 0 0 7.704-.427.878.878 0 0 0 .642-.85 35.101 35.101 0 0 0-.276-3.603ZM49.717 44.367c-.254-1.148-1.212-1.701-2.322-1.72a26.93 26.93 0 0 0-5.165.812 1.807 1.807 0 0 0-.502.237.822.822 0 0 0-.648.815 39.23 39.23 0 0 0 .08 3.469c.034.537.072 1.077.137 1.611.065.534.223 1.158.738 1.49.514.33 1.094.287 1.646.312.552.025 1.172 0 1.758-.035 1.16-.05 2.313-.218 3.441-.5.651-.18.93-.646 1.008-1.298.062-.586.095-1.175.099-1.764.038-1.15-.052-2.3-.27-3.428Z" fill="#C1B481"/></svg>