<svg width="118" height="32" fill="none" xmlns="http://www.w3.org/2000/svg"><path d="M59.129 17.105s-29.764-.184-36.736 1.614c-6.973 1.799-9.184 2.726-15.307 3.1-6.123.375-10.715 4.896-2.04 5.455 8.675.56 12.755 3.535 28.911 2.542 16.156-.993 15.812 1.986 35.72.993 19.906-.993 37.641-2.186 42.198-3.279 2.79-.665 10.216-4.895 2.046-6.076-8.169-1.18-6.433-1.31-17.204-2.984-10.77-1.674-37.588-1.365-37.588-1.365Z" fill="#B69A67"/><path d="M57.269 25.051c-.289-.124-.58-.23-.875-.34a1.078 1.078 0 0 0-.315-.8 1.065 1.065 0 0 0-.798-.308h-.239a1.156 1.156 0 0 0-1.016-.625l-1.817.234c-.282.027-.55.136-.772.313l-2.775.38a1.042 1.042 0 0 0-.79.81l-.44.071c-.938.128-1.855.377-2.73.74-.461.2-.656.865-.532 1.318a1.21 1.21 0 0 0 1.116.856c.158.018.31.024.471.04.212.18.479.283.756.293 1.501.073 3.006-.01 4.49-.247a.813.813 0 0 0 .257-.087c1.152.05 2.306.02 3.454-.09.074.03.15.05.23.062.102 0 .204.019.31.025v.016a2.755 2.755 0 0 0 2.25-.819c.49-.48.45-1.539-.235-1.842ZM75.706 21.414l-.381-.019a1.112 1.112 0 0 0-.555-1.055 2.264 2.264 0 0 0-1.696-.103l-6.03.312c-.2.016-.393.078-.564.181h-.14a1.17 1.17 0 0 0-.812.347c-.216.217-.34.51-.344.818 0 .696.533 1.086 1.156 1.164l.363.04a1.22 1.22 0 0 0 1.12.797c.212.21.498.33.796.334h3.466c1.045 0 2.17.053 3.076-.527l.545.024c.297-.015.577-.145.781-.362a1.172 1.172 0 0 0 0-1.608 1.156 1.156 0 0 0-.78-.362v.019ZM96.519 24.202c-2.837-.169-5.829-.624-8.607.162a1.108 1.108 0 0 0-.601.419H87a1.233 1.233 0 0 0-.983.565 1.167 1.167 0 0 0 .09 2.21c1.401.475 2.927.375 4.384.369.763 0 1.531.019 2.291-.019.76-.037 1.656-.118 2.214-.665.19-.186.328-.42.4-.677.054-.033.107-.068.158-.107l.955.057c.306 0 .6-.123.817-.341a1.169 1.169 0 0 0 0-1.647 1.152 1.152 0 0 0-.817-.341l.009.015ZM97.136 20.961a1.135 1.135 0 0 0-.819-.343l-3.134.271c-.305.009-.597.13-.819.34-.213.221-.334.517-.337.825a1.178 1.178 0 0 0 .712 1.079c.14.058.292.087.444.086l3.134-.269c.306-.008.597-.13.819-.34a1.162 1.162 0 0 0 .252-1.271 1.162 1.162 0 0 0-.252-.378ZM113.345 23.387h-.31a1.094 1.094 0 0 0-1.008-.625 7.183 7.183 0 0 0-2.896.731 1.181 1.181 0 0 0-.533 1.318.364.364 0 0 0 .028.053c-.02.12-.02.244 0 .365.037.278.172.534.381.72.209.184.478.287.757.289h1.122c.265-.005.52-.1.722-.272l2.068-.297a1.127 1.127 0 0 0 .692-.537c.125-.226.173-.487.136-.743a1.147 1.147 0 0 0-1.159-1.002ZM14.354 24.015h-1.486a.869.869 0 0 0-.201-.15 1.367 1.367 0 0 0-.89-.119l-2.279.313a1.135 1.135 0 0 0-.691.537 1.212 1.212 0 0 0-.14.743c.035.277.168.533.375.72.206.188.473.295.75.3h2.745l.375.082c.265.053.54.024.787-.084h.642c.297-.016.576-.146.781-.363a1.172 1.172 0 0 0 0-1.608 1.156 1.156 0 0 0-.78-.362l.011-.01ZM36.127 21.117a1.185 1.185 0 0 0-.548-.697 1.171 1.171 0 0 0-.875-.118l-.102.019-.05-.025a7.544 7.544 0 0 0-3.41-.056.949.949 0 0 0-.329.15c-1.1.146-2.208.221-3.317.224a1.156 1.156 0 0 0-.781.363 1.172 1.172 0 0 0 0 1.608c.204.217.484.346.78.362.295 0 .587-.016.878-.025a1.022 1.022 0 0 0 .825.353 35.822 35.822 0 0 0 6.132-.725 1.17 1.17 0 0 0 .688-.553c.149-.268.188-.584.11-.88Z" fill="#A07E49"/><path d="M49.105 7.929c-1.172.187-1.758.73-2.65 1.474-.893.743-1.309 1.398-2.48 2.81-.267.312-1.03 1.642-1.24 2 .136-.936.495-2.84.656-3.764.286-1.64.62-3.27 1.008-4.887.356-1.464.961-2.938 1.06-4.45.044-.624-.806-.755-1.113-.311-.93 1.367-1.36 2.94-1.708 4.546a88.893 88.893 0 0 0-.822 4.443c-.062-.9-.142-1.796-.25-2.692a41.95 41.95 0 0 0-.686-4.255c-.254-1.109-.698-2.127-1.668-2.764a.598.598 0 0 0-.816.22.608.608 0 0 0-.083.299c0 .861.31 1.642.52 2.46.249.884.453 1.777.62 2.676.37 1.848 1.074 3.54 1.241 6.088a65.246 65.246 0 0 1 0 3.972 17.86 17.86 0 0 0-.93-2.351 13.453 13.453 0 0 0-1.373-2.423c-.503-.625-1.309-1.458-2.17-1.443a.618.618 0 0 0-.526.383.628.628 0 0 0 .1.645 26.753 26.753 0 0 1 4.58 9.32.538.538 0 0 0 .45.409c-.023.48-.047.958-.057 1.439 0 .774 1.182.774 1.197 0 0-.36.025-.718.037-1.077.017-.04.031-.08.04-.122.094-.812.2-1.624.295-2.435a13.8 13.8 0 0 1 1.197-3.435 15.39 15.39 0 0 1 2.077-2.357 46.942 46.942 0 0 1 3.984-3.341.605.605 0 0 0 .188-.738.604.604 0 0 0-.678-.34Z" fill="#4F642E"/><path d="M49.679 10.807c-4.117.91-6.582 4.194-7.77 7.962l-.062.14c.031-1.232.103-2.463.245-3.687.15-1.312.399-2.611.741-3.887.329-1.202.909-2.36 1.107-3.594.102-.624.112-1.754-.815-1.698-.837.05-1.37 1.42-1.628 2.07-.353.884-.341 4.371-.465 5.333-.143-.778-.986-3.731-1.24-4.4-.62-1.623-1.392-2.313-2.592-2.869-.546-.253-1.305-.25-1.507.456-.201.706.527 1.249.93 1.686a15.43 15.43 0 0 1 2.313 3.36c.72 1.395 1.157 2.135 1.656 4.749 0 1.108-.022 2.216.025 3.325 0 .093 0 .184.018.278.019.093 0 .159 0 .237a26.47 26.47 0 0 0-.905-3.335 18.267 18.267 0 0 0-1.327-2.978c-.453-.803-1.085-2.09-2.17-1.977-.348.035-.726.363-.577.762.657 1.74 1.68 3.344 2.437 5.043a52.922 52.922 0 0 1 1.668 4.315c.105.624.217 1.224.31 1.839.096.665.98.502 1.135-.047a.619.619 0 0 0 1.044-.278.521.521 0 0 0 .025-.1c.063-1.412.295-2.812.692-4.168a10.921 10.921 0 0 1 2.247-3.094 24.394 24.394 0 0 1 3.042-2.47c.859-.625 1.86-1.14 2.151-2.232a.628.628 0 0 0-.426-.726.615.615 0 0 0-.302-.014Z" fill="#6C844C"/><path d="M68.975 7.929c-1.171.187-1.757.73-2.65 1.474-.893.743-1.309 1.398-2.48 2.81-.267.312-1.033 1.642-1.24 2.001.136-.937.495-2.841.657-3.766a79.34 79.34 0 0 1 1.007-4.886c.357-1.464.961-2.938 1.06-4.45.044-.624-.806-.755-1.112-.311-.93 1.367-1.362 2.94-1.709 4.546a88.894 88.894 0 0 0-.821 4.443c-.062-.9-.143-1.796-.252-2.692a41.923 41.923 0 0 0-.685-4.255c-.254-1.109-.697-2.127-1.668-2.764a.616.616 0 0 0-.81.226.627.627 0 0 0-.092.293c0 .862.31 1.642.524 2.46.248.884.453 1.777.62 2.676.366 1.848 1.073 3.54 1.24 6.088a65.246 65.246 0 0 1 0 3.972c-.26-.805-.576-1.59-.945-2.351a13.456 13.456 0 0 0-1.374-2.423c-.502-.625-1.308-1.458-2.17-1.443-.564 0-.726.625-.422 1.028a26.75 26.75 0 0 1 4.58 9.32.537.537 0 0 0 .45.409c-.023.48-.047.958-.057 1.439-.015.774 1.181.774 1.197 0 0-.36.025-.718.037-1.077.017-.04.03-.08.04-.122.093-.812.199-1.623.31-2.435a13.682 13.682 0 0 1 1.197-3.435 15.533 15.533 0 0 1 2.074-2.357 47.467 47.467 0 0 1 3.988-3.341.605.605 0 0 0 .188-.74.604.604 0 0 0-.681-.337Z" fill="#4F642E"/><path d="M69.546 10.807c-4.114.91-6.579 4.194-7.766 7.962l-.062.14c.03-1.232.102-2.463.244-3.687.15-1.312.397-2.612.741-3.887.33-1.202.909-2.36 1.107-3.594.103-.624.112-1.754-.815-1.698-.837.05-1.37 1.42-1.628 2.07-.353.884-.34 4.371-.468 5.333-.14-.778-.983-3.731-1.24-4.4-.62-1.623-1.392-2.313-2.592-2.869-.546-.253-1.305-.25-1.507.456-.201.706.527 1.249.93 1.686a15.434 15.434 0 0 1 2.316 3.36c.72 1.395 1.157 2.135 1.653 4.749 0 1.108-.019 2.216.028 3.325 0 .093 0 .184.015.278.016.093 0 .159 0 .237a27.026 27.026 0 0 0-.905-3.335 18.276 18.276 0 0 0-1.327-2.978c-.453-.803-1.085-2.09-2.17-1.977-.348.035-.729.363-.577.762.657 1.74 1.68 3.344 2.437 5.043a54.157 54.157 0 0 1 1.668 4.315c.105.624.217 1.224.31 1.839.096.665.977.502 1.135-.047a.62.62 0 0 0 1.044-.278.514.514 0 0 0 .025-.1c.07-1.41.306-2.806.707-4.159a10.924 10.924 0 0 1 2.248-3.094 24.395 24.395 0 0 1 3.041-2.47c.86-.624 1.86-1.14 2.152-2.232a.63.63 0 0 0-.433-.742.616.616 0 0 0-.311-.008Z" fill="#6C844C"/><path d="M88.852 7.929c-1.172.187-1.758.73-2.651 1.474-.893.743-1.308 1.398-2.48 2.81-.267.312-1.033 1.642-1.24 2.001.133-.937.496-2.841.657-3.766.285-1.639.62-3.269 1.007-4.886.357-1.464.959-2.938 1.06-4.45.044-.624-.805-.755-1.112-.311-.93 1.367-1.364 2.94-1.709 4.546a88.78 88.78 0 0 0-.821 4.443c-.065-.9-.143-1.796-.251-2.692a41.894 41.894 0 0 0-.685-4.255c-.255-1.109-.698-2.127-1.668-2.764a.617.617 0 0 0-.81.226.626.626 0 0 0-.093.293c0 .862.31 1.642.524 2.46a31.8 31.8 0 0 1 .62 2.676c.366 1.848 1.073 3.54 1.24 6.088a60.588 60.588 0 0 1 0 3.972 17.854 17.854 0 0 0-.93-2.351 13.476 13.476 0 0 0-1.376-2.423c-.5-.625-1.305-1.458-2.17-1.443-.565 0-.726.625-.422 1.028a26.752 26.752 0 0 1 4.58 9.32.534.534 0 0 0 .446.409c-.019.48-.044.958-.053 1.439-.016.774 1.181.774 1.197 0 0-.36.025-.718.037-1.077a.503.503 0 0 0 .037-.122c.096-.812.198-1.623.31-2.435a13.686 13.686 0 0 1 1.197-3.435 15.37 15.37 0 0 1 2.074-2.357 46.958 46.958 0 0 1 3.987-3.341.606.606 0 0 0-.502-1.077Z" fill="#4F642E"/><path d="M89.416 10.807c-4.114.91-6.579 4.194-7.766 7.962l-.062.14c.03-1.232.102-2.463.245-3.687.149-1.312.396-2.612.74-3.887.33-1.202.91-2.36 1.104-3.594.106-.624.115-1.754-.812-1.698-.837.05-1.37 1.42-1.628 2.07-.353.884-.344 4.371-.468 5.333-.142-.778-.983-3.731-1.24-4.4-.62-1.623-1.389-2.313-2.589-2.869-.545-.253-1.305-.25-1.507.456-.201.706.528 1.249.93 1.686a15.335 15.335 0 0 1 2.32 3.36c.719 1.395 1.153 2.135 1.652 4.749 0 1.108-.018 2.216.028 3.325 0 .093 0 .184.016.278.015.093 0 .159 0 .237a27.026 27.026 0 0 0-.906-3.335 18.527 18.527 0 0 0-1.327-2.978c-.452-.803-1.085-2.09-2.17-1.977-.347.035-.728.363-.577.762.658 1.74 1.68 3.344 2.437 5.043a54.119 54.119 0 0 1 1.668 4.315c.103.624.217 1.224.31 1.839.097.665.977.502 1.135-.047a.619.619 0 0 0 1.045-.278.529.529 0 0 0 .025-.1c.069-1.41.306-2.806.707-4.159a10.924 10.924 0 0 1 2.244-3.094 24.658 24.658 0 0 1 3.045-2.47c.859-.624 1.86-1.14 2.151-2.232a.628.628 0 0 0-.437-.744.615.615 0 0 0-.313-.006Z" fill="#6C844C"/><path d="M108.716 7.929c-1.172.187-1.761.73-2.651 1.474-.89.743-1.308 1.398-2.48 2.81-.267.312-1.033 1.642-1.24 2 .133-.936.496-2.84.657-3.764.285-1.64.62-3.27 1.008-4.887.356-1.464.958-2.938 1.06-4.45.043-.624-.806-.755-1.116-.311-.93 1.367-1.361 2.94-1.709 4.546a92.948 92.948 0 0 0-.821 4.443c-.062-.9-.14-1.796-.248-2.692a41.059 41.059 0 0 0-.689-4.255c-.251-1.109-.694-2.127-1.667-2.764a.598.598 0 0 0-.816.22.609.609 0 0 0-.084.299c0 .861.295 1.642.524 2.46.245.884.453 1.777.62 2.676.366 1.848 1.073 3.54 1.241 6.088a67.42 67.42 0 0 1 0 3.972 17.989 17.989 0 0 0-.93-2.351 13.477 13.477 0 0 0-1.377-2.423c-.5-.625-1.305-1.458-2.17-1.443a.617.617 0 0 0-.523.384.628.628 0 0 0 .101.644 26.805 26.805 0 0 1 4.58 9.32.537.537 0 0 0 .446.409c-.019.48-.044.958-.053 1.439 0 .774 1.178.774 1.194 0 0-.36.028-.718.037-1.077a.522.522 0 0 0 .04-.122c.096-.812.199-1.624.31-2.435a13.692 13.692 0 0 1 1.197-3.435 15.31 15.31 0 0 1 2.074-2.357 47.308 47.308 0 0 1 3.984-3.341.605.605 0 0 0 .19-.745.599.599 0 0 0-.689-.332Z" fill="#4F642E"/><path d="M109.286 10.807c-4.114.91-6.579 4.194-7.766 7.962a2.823 2.823 0 0 0-.062.14 40.53 40.53 0 0 1 .245-3.687c.149-1.312.397-2.612.741-3.887.325-1.202.908-2.36 1.104-3.594.102-.624.114-1.754-.816-1.698-.834.05-1.367 1.42-1.628 2.07-.35.884-.341 4.371-.465 5.333-.142-.778-.982-3.731-1.24-4.4-.62-1.623-1.389-2.313-2.588-2.869-.546-.253-1.306-.25-1.51.456-.205.706.53 1.249.93 1.686a15.338 15.338 0 0 1 2.319 3.36c.716 1.395 1.153 2.135 1.652 4.749 0 1.108-.021 2.216.028 3.325 0 .093 0 .184.016.278.015.093 0 .159 0 .237a27.136 27.136 0 0 0-.909-3.335 18.254 18.254 0 0 0-1.324-2.978c-.452-.803-1.088-2.09-2.17-1.977-.347.035-.728.363-.577.762.655 1.74 1.68 3.344 2.437 5.043a52.971 52.971 0 0 1 1.665 4.315c.106.624.217 1.224.31 1.839.096.665.977.502 1.135-.047a.621.621 0 0 0 .603.168.623.623 0 0 0 .442-.446.57.57 0 0 0 .025-.1c.071-1.41.309-2.806.71-4.159a10.92 10.92 0 0 1 2.244-3.094 24.737 24.737 0 0 1 3.045-2.47c.859-.624 1.86-1.14 2.148-2.232a.626.626 0 0 0-.433-.742.617.617 0 0 0-.311-.008Z" fill="#6C844C"/><path d="M28.128 7.929c-1.169.187-1.758.73-2.65 1.474-.893.743-1.309 1.398-2.48 2.81-.267.312-1.03 1.642-1.24 2 .136-.936.498-2.84.656-3.764.286-1.64.62-3.27 1.008-4.887.357-1.464.961-2.938 1.063-4.45.044-.624-.809-.755-1.116-.311-.93 1.367-1.36 2.94-1.708 4.546a89.008 89.008 0 0 0-.822 4.443c-.062-.9-.142-1.796-.25-2.692a41.079 41.079 0 0 0-.686-4.255C19.65 1.734 19.206.716 18.235.079a.598.598 0 0 0-.816.22.61.61 0 0 0-.083.299c0 .861.31 1.642.524 2.46.245.884.45 1.777.62 2.676.366 1.848 1.07 3.54 1.24 6.088a65.246 65.246 0 0 1 0 3.972 18.3 18.3 0 0 0-.93-2.351 13.663 13.663 0 0 0-1.377-2.423c-.502-.625-1.308-1.458-2.17-1.443a.617.617 0 0 0-.525.383.63.63 0 0 0 .1.645 26.699 26.699 0 0 1 4.58 9.32.537.537 0 0 0 .45.409c-.022.48-.047.958-.056 1.439 0 .774 1.18.774 1.196 0 0-.36.025-.718.038-1.077.017-.04.03-.08.04-.122.093-.812.198-1.624.294-2.435.246-1.194.65-2.35 1.2-3.435a15.365 15.365 0 0 1 2.074-2.357 47.434 47.434 0 0 1 3.984-3.341.606.606 0 0 0-.49-1.077Z" fill="#4F642E"/><path d="M28.705 10.807c-4.117.91-6.582 4.194-7.766 7.962l-.066.14a41.83 41.83 0 0 1 .245-3.687c.15-1.312.399-2.611.741-3.887.329-1.202.909-2.36 1.107-3.594.102-.624.112-1.754-.815-1.698-.837.05-1.37 1.42-1.628 2.07-.353.884-.34 4.371-.465 5.333-.143-.778-.986-3.731-1.24-4.4-.62-1.623-1.392-2.313-2.589-2.869-.545-.253-1.308-.25-1.51.456-.201.706.527 1.249.93 1.686a15.553 15.553 0 0 1 2.32 3.36c.716 1.395 1.153 2.135 1.652 4.749 0 1.108-.022 2.216.025 3.325l.018.278v.237a26.47 26.47 0 0 0-.905-3.335 18.245 18.245 0 0 0-1.324-2.978c-.456-.803-1.088-2.09-2.17-1.977-.35.035-.729.363-.58.762.657 1.74 1.68 3.344 2.44 5.043a52.935 52.935 0 0 1 1.665 4.315c.105.624.217 1.224.31 1.839.093.665.977.502 1.135-.047a.62.62 0 0 0 1.041-.278.366.366 0 0 0 .025-.1c.072-1.41.31-2.806.707-4.159a10.996 10.996 0 0 1 2.248-3.094 24.396 24.396 0 0 1 3.041-2.47c.86-.624 1.86-1.14 2.152-2.232a.628.628 0 0 0-.433-.742.616.616 0 0 0-.311-.008Z" fill="#6C844C"/><path d="M22.591 24.361a1.818 1.818 0 0 0-.49-.966 1.797 1.797 0 0 0-.951-.51c-.038-.026-.072-.057-.112-.079a.615.615 0 0 0-.143-.043c-.03 0-.065-.019-.096-.028a1.026 1.026 0 0 0-.39-.116 3.808 3.808 0 0 0-.72-.106c-.828-.038-1.953.38-1.758 1.411a.412.412 0 0 0 .227.284c.032.172.114.331.235.456.137.13.299.229.475.294a.83.83 0 0 0 .046.09 1.55 1.55 0 0 0 1.7.503c.177-.056.345-.142.495-.253a1.155 1.155 0 0 0 .896-.372.443.443 0 0 0 .555-.221.452.452 0 0 0 .047-.213c0-.062-.013-.103-.016-.13ZM43.224 23.381a1.315 1.315 0 0 0-.93-.434 5.137 5.137 0 0 0-1.86.14c-.096.026-.183.072-.28.1a2.343 2.343 0 0 0-.821.206 1.84 1.84 0 0 0-.995.79.484.484 0 0 0 .071.572.47.47 0 0 0 .57.075h.022a.453.453 0 0 0 .382.228 7.761 7.761 0 0 0 2.325-.185.432.432 0 0 0 .149-.065h.645a.857.857 0 0 0 .865-.528.944.944 0 0 0-.143-.899ZM62.248 23.153a2.732 2.732 0 0 0-1.048-.228 6.415 6.415 0 0 0-1.628.256.465.465 0 0 0-.332.48 1.569 1.569 0 0 0-.291.897.489.489 0 0 0 .344.456c.366.108.75.14 1.129.094.108.059.234.075.353.046.255-.03.513-.025.766.016h.096c.185.017.37.005.552-.034a1.277 1.277 0 0 0 .911-.9.906.906 0 0 0-.475-.989.887.887 0 0 0-.377-.094ZM82.425 23.593a2.909 2.909 0 0 0-2.763-.537c-.49.166-1.268.55-1.079 1.2.19.649.962.624 1.47.652a6.934 6.934 0 0 0 1.981-.194.471.471 0 0 0 .335-.412c.019 0 .04-.022.056-.037a.48.48 0 0 0 0-.672ZM102.23 23.637l-.053-.025a.668.668 0 0 0-.068-.066 2.296 2.296 0 0 0-2.285-.196c-.388.171-.955.562-.853 1.049a.554.554 0 0 0 .382.403c.14.033.284.047.428.04.231.014.463.014.694 0a7.026 7.026 0 0 0 1.643-.312.474.474 0 0 0 .369-.407.482.482 0 0 0-.257-.486Z" fill="#EAEEBB"/><path d="M1.834 10.33a.394.394 0 0 0-.527.14c-.49.666-.913 1.38-1.262 2.13a.402.402 0 0 0 .137.521.388.388 0 0 0 .527-.14c.35-.75.772-1.462 1.262-2.127a.396.396 0 0 0-.137-.524Z" fill="#A3B971"/></svg>