<svg width="11" height="11" viewBox="0 0 11 11" fill="none" xmlns="http://www.w3.org/2000/svg">
<path fill-rule="evenodd" clip-rule="evenodd" d="M7.21875 5.32811C7.21875 5.78396 7.03766 6.22112 6.71534 6.54345C6.39301 6.86578 5.95584 7.04686 5.5 7.04686C5.04416 7.04686 4.60699 6.86578 4.28466 6.54345C3.96233 6.22112 3.78125 5.78396 3.78125 5.32811C3.78125 4.87227 3.96233 4.4351 4.28466 4.11278C4.60699 3.79045 5.04416 3.60936 5.5 3.60936C5.95584 3.60936 6.39301 3.79045 6.71534 4.11278C7.03766 4.4351 7.21875 4.87227 7.21875 5.32811ZM8.20188 5.84373C8.08184 6.47239 7.74634 7.0395 7.25319 7.44747C6.76 7.85536 6.14001 8.07852 5.5 8.07852C4.85999 8.07852 4.24001 7.85536 3.74683 7.44747C3.25366 7.0395 2.91816 6.47239 2.79813 5.84373H0.515625C0.378873 5.84373 0.247721 5.78942 0.151023 5.69271C0.0543246 5.59601 0 5.46487 0 5.32811C0 5.19136 0.0543246 5.06021 0.151023 4.96351C0.247721 4.86681 0.378873 4.81249 0.515625 4.81249H2.79813C2.91816 4.18384 3.25366 3.61671 3.74683 3.2088C4.24001 2.80088 4.85999 2.5777 5.5 2.5777C6.14001 2.5777 6.76 2.80088 7.25319 3.2088C7.74634 3.61671 8.08184 4.18384 8.20188 4.81249H10.4844C10.6211 4.81249 10.7523 4.86681 10.849 4.96351C10.9457 5.06021 11 5.19136 11 5.32811C11 5.46487 10.9457 5.59601 10.849 5.69271C10.7523 5.78942 10.6211 5.84373 10.4844 5.84373H8.20188Z" fill="#595959"/>
</svg>
