<svg viewBox="0 0 66 72" fill="none" xmlns="http://www.w3.org/2000/svg">
<path d="M54.7109 30.2822C59.0884 39.3121 57.0608 51.7736 45.0574 58.7602C33.0541 65.7468 19.7747 64.0904 15.3972 55.0605C11.0196 46.0306 15.8088 14.0983 27.8121 7.11168C40.7494 9.10055 50.3333 21.2523 54.7109 30.2822Z" fill="#6ABD8C"/>
<path d="M64.4971 42.6117C64.049 52.5861 56.3709 62.3914 42.5589 62.5563C28.7468 62.7211 17.9133 54.769 18.3614 44.7946C18.8096 34.8203 38.1285 9.49478 51.9406 9.32992C62.3174 17.4024 64.9453 32.6374 64.4971 42.6117Z" fill="#CCDFB0"/>
<ellipse rx="1.85034" ry="2.09002" transform="matrix(0.99946 0.0328505 -0.0314425 0.999506 31.4912 32.2661)" fill="black"/>
<ellipse rx="1.85034" ry="2.09004" transform="matrix(0.99946 0.0328509 -0.031442 0.999506 45.3684 34.1575)" fill="black"/>
<path d="M29.6373 41.4641C35.794 39.656 38.4142 42.7476 43.5145 43.3554" stroke="black"/>
<path d="M48.7795 38.7231C49.2485 40.1825 48.84 41.6189 47.8671 41.9316C46.8942 42.2443 45.7253 41.3147 45.2563 39.8554C44.7874 38.396 46.1687 36.6469 46.1687 36.6469C46.1687 36.6469 48.3105 37.2638 48.7795 38.7231Z" fill="#85C2FA"/>
</svg>
