<svg width="84" height="79" viewBox="0 0 84 79" fill="none" xmlns="http://www.w3.org/2000/svg">
<path d="M0.902832 53.6883C2.41577 44.8877 6.62429 37.5468 12.6867 31.3778C15.1373 28.874 17.1083 25.976 18.3549 22.6411C19.186 20.4037 20.6563 18.9334 23.1921 18.9334C25.7385 18.9334 27.2195 20.425 28.0292 22.6518C29.8831 27.7447 33.6867 31.3565 37.1281 35.1815C38.3534 34.7447 37.9698 33.839 38.0764 33.1678C39.0886 26.7964 42.1144 21.4798 46.4295 16.7918C50.3504 12.5407 54.3884 8.38546 56.4554 2.77055C57.1586 0.86339 58.8846 -0.0209331 60.8983 0.000375851C62.7841 0.0216849 64.4036 0.906008 65.0855 2.65335C66.8435 7.11758 69.6137 10.836 72.874 14.2667C73.5026 14.938 78.5421 20.3824 77.4021 21.32C76.3473 22.183 71.638 16.5361 70.9881 15.8223C67.9835 12.4981 65.0109 9.14193 63.4341 4.82686C63.0185 3.68683 62.4325 2.60007 60.9729 2.52549C59.5452 2.45091 58.7781 3.30327 58.3199 4.51788C56.4021 9.67466 52.7583 13.6061 49.0718 17.4844C44.2027 22.6198 40.8679 28.4585 40.1966 35.6503C40.0262 37.4615 40.2286 39.0064 41.3686 40.5513C43.4569 43.3854 44.8739 46.6031 45.4599 50.0978C45.7902 52.0475 46.8344 53.2089 48.4752 54.0506C56.7537 58.2591 65.0962 58.4402 73.2255 53.9014C80.0125 50.1191 82.6548 42.8527 81.1099 33.6579C80.3534 29.1617 78.67 25.081 75.8892 21.4372C75.2925 20.6594 70.9135 16.1845 72.3625 15.1937C73.5345 14.3946 77.2103 19.1678 77.7644 19.8923C83.4006 27.4144 85.3077 35.8527 83.0916 44.9517C81.0673 53.2622 72.842 58.9943 63.0292 59.5376C58.0429 59.8147 53.1951 59.2287 48.7202 56.906C46.7704 55.8938 46.3762 56.4372 46.323 58.4083C45.7689 78.215 22.6806 82.2211 9.86326 74.667C9.09613 74.2195 7.89218 74.0704 8.51014 73.0369C9.25595 71.8116 9.90588 73.559 10.737 74.0064C15.8191 76.8192 21.6258 76.6274 27.2408 75.7644C40.3777 73.7614 46.4402 63.7462 42.9881 50.1084C41.7202 45.1008 39.014 40.9349 35.5939 37.1739C31.6943 32.9014 27.5817 28.7994 25.5574 23.1739C25.1525 22.0658 24.3214 21.4052 23.0429 21.4692C21.9242 21.5224 21.1997 22.1191 20.8374 23.1206C18.6639 29.183 14.0825 33.4981 9.94849 38.1221C4.83434 43.8436 2.33053 50.4707 2.53297 58.1739C2.62886 61.8816 2.89522 65.941 5.05808 68.9882C5.65473 69.8299 7.49796 70.2241 6.27269 71.1084C4.85565 72.1206 4.87695 70.288 4.18441 69.425C2.29857 67.0704 2.3838 64.5133 1.33966 61.7751C1.33966 58.9303 0.902832 56.5224 0.902832 53.6883Z" fill="#595959"/>
<path d="M60.909 40.3489C59.5772 40.4128 58.565 40.0399 57.702 39.358C57.0627 38.8466 56.1038 38.3139 56.7005 37.2804C57.2971 36.2363 58.1175 36.6305 58.8847 37.1952C60.0567 38.0688 61.2606 38.0795 62.5072 37.3443C63.3169 36.8649 64.2332 35.9486 64.8618 37.3976C65.3626 38.5696 64.2971 39.1236 63.4874 39.6244C62.6457 40.1465 61.7294 40.4768 60.909 40.3489Z" fill="#595959"/>
<path d="M22.7232 59.3245C22.2544 59.1541 21.2849 58.941 20.4538 58.4828C19.6334 58.0247 18.5786 57.3961 19.1327 56.2241C19.8146 54.7964 20.7202 55.7766 21.5086 56.2667C22.7659 57.0551 23.9698 56.9379 25.1312 56.0749C25.8983 55.4996 26.7187 55.1054 27.294 56.2028C27.8374 57.2469 26.9105 57.7796 26.2499 58.2804C25.3549 58.9303 24.3321 59.2926 22.7232 59.3245Z" fill="#595959"/>
<path d="M73.982 36.7903C73.8967 37.7492 73.9287 38.9638 72.6076 38.8893C71.2864 38.804 71.4888 37.5574 71.4888 36.6199C71.4888 35.6823 71.3397 34.4463 72.7674 34.5422C74.0885 34.6275 73.8967 35.8527 73.982 36.7903Z" fill="#595959"/>
<path d="M12.5056 55.4676C12.4417 56.5757 12.5909 57.8116 11.2484 57.769C9.99116 57.7264 10.0018 56.5331 10.0125 55.5635C10.0231 54.6046 9.96982 53.4326 11.323 53.4539C12.7613 53.4859 12.3565 54.7751 12.5056 55.4676Z" fill="#595959"/>
<path d="M50.1053 36.4387C49.9774 37.5574 50.2118 38.8999 48.8907 38.8892C47.5589 38.8786 47.74 37.5468 47.7506 36.6092C47.7506 35.7888 47.5695 34.6594 48.7522 34.5422C50.2864 34.4037 49.8389 35.7888 50.1053 36.4387Z" fill="#595959"/>
<path d="M36.2439 55.425C36.1799 56.3626 36.425 57.6625 35.1465 57.7477C33.7933 57.8329 33.9105 56.5224 33.9105 55.5955C33.9212 54.6899 33.6974 53.422 35.1465 53.4539C36.3398 53.4859 36.1799 54.594 36.2439 55.425Z" fill="#595959"/>
<path d="M38.4919 72.6959C38.4387 70.7355 37.224 74.7096 35.2743 75.7325C30.7994 78.0551 25.9516 78.6411 20.9653 78.3641C11.1418 77.8207 2.9272 72.0886 0.902853 63.7781C-1.31328 54.6792 0.583218 46.2408 6.2301 38.7188C6.77348 37.9943 10.46 33.221 11.632 34.0201C13.081 35.011 8.70194 39.4859 8.10529 40.2637C5.31381 43.8968 3.6304 47.9775 2.86328 52.4737C1.31838 61.6685 3.95004 68.9349 10.7476 72.7172C18.877 77.2454 30.842 77.5011 38.2682 70.9486C39.6533 69.734 40.9531 69.4143 42.1997 67.8908C44.1708 65.4828 44.8207 61.1145 44.8207 61.1145C45.9607 59.5696 43.947 56.288 43.7766 54.4768C43.116 47.285 39.7705 41.4357 34.9014 36.3108C31.2149 32.422 27.5711 28.4905 25.6533 23.3443C25.1951 22.1191 24.428 21.2774 23.0003 21.3519C21.5406 21.4265 20.9546 22.5133 20.5391 23.6533C18.9622 27.9684 16.0003 31.3245 12.9851 34.6487C12.3458 35.3626 7.62584 41.0095 6.57104 40.1465C5.43101 39.2089 10.46 33.7644 11.0992 33.0932C14.3489 29.6624 17.1297 25.9334 18.8877 21.4798C19.5802 19.7325 21.189 18.8481 23.0749 18.8268C25.0992 18.7949 26.8146 19.6898 27.5178 21.597C29.5848 27.2013 33.6228 31.3565 37.5437 35.6183C41.8587 40.2956 44.8846 45.6229 45.8968 51.9943C46.0033 52.6655 44.6928 54.594 45.9074 55.0308L43.9364 66.1754L38.4919 72.6959Z" fill="#595959"/>
</svg>
