<svg width="67" height="71" viewBox="0 0 67 71" fill="none" xmlns="http://www.w3.org/2000/svg">
<path d="M54.8649 29.7088C59.2547 38.5677 57.2214 50.7933 45.1842 57.6477C33.1471 64.502 19.8304 62.8769 15.4405 54.018C11.0506 45.1591 15.8533 13.8313 27.8904 6.97702C40.8641 8.92823 50.475 20.8499 54.8649 29.7088Z" fill="#6ABD8C"/>
<path d="M64.6785 41.8053C64.2291 51.5908 56.5294 61.2105 42.6785 61.3722C28.8276 61.534 17.9635 53.7324 18.413 43.9469C18.8624 34.1613 38.2357 9.3153 52.0866 9.15356C62.4927 17.0732 65.1279 32.0197 64.6785 41.8053Z" fill="#CCDFB0"/>
<ellipse cx="31.5799" cy="31.6552" rx="1.85551" ry="2.05049" transform="rotate(1.84173 31.5799 31.6552)" fill="black"/>
<path d="M29.7205 40.6792C34.8186 44.8849 37.9248 45.2575 43.6368 42.5347" stroke="black"/>
<path d="M47.3467 31.3149L43.9848 32.9383L46.6004 35.2447" stroke="black"/>
</svg>
